<?xml version="1.0" encoding="UTF-8"?>
<svg version="1.1" xmlns="http://www.w3.org/2000/svg" width="3840" height="2160">
<path d="M0 0 C3.79239024 1.89619512 5.7132546 3.4651225 8.6574707 6.41455078 C9.57555008 7.32955353 10.49362946 8.24455627 11.43952942 9.18728638 C12.43512484 10.18978487 13.43053749 11.19246489 14.42578125 12.1953125 C15.456681 13.22740583 16.48795231 14.25912814 17.51957703 15.29049683 C19.68209946 17.45458267 21.84122567 19.62198184 23.99780273 21.79199219 C26.74284632 24.55392928 29.49432909 27.30933536 32.24821186 30.06245613 C34.38052847 32.19504683 36.51021203 34.33025107 38.63905907 36.46630478 C39.65142536 37.4818237 40.66437238 38.49676407 41.67794228 39.5110817 C46.78935473 44.63038966 51.78405462 49.7842052 56.49577332 55.27462769 C58.63899824 57.7329413 60.92854627 60.02309087 63.25 62.3125 C63.71180664 62.77052002 64.17361328 63.22854004 64.64941406 63.70043945 C66.09712722 65.13616175 67.54808857 66.56852432 69 68 C74.65932786 73.57967245 80.25195223 79.15533285 85.421875 85.19921875 C87.97255831 88.10977569 90.73131517 90.79867977 93.5 93.5 C97.5807603 97.48147172 101.42042423 101.57953872 105.14794922 105.89404297 C109.12300691 110.41405979 113.32520594 114.72843959 117.47851562 119.08398438 C118.16236328 119.80521484 118.84621094 120.52644531 119.55078125 121.26953125 C120.47370972 122.23789917 120.47370972 122.23789917 121.4152832 123.22583008 C125.06533366 127.3122446 125.27179245 130.27836389 125.1953125 135.51171875 C125.19106766 136.60405571 125.19106766 136.60405571 125.18673706 137.71846008 C125.17555257 140.04164137 125.15045166 142.36443547 125.125 144.6875 C125.11496794 146.2636663 125.10584248 147.83983865 125.09765625 149.41601562 C125.07561896 153.27749267 125.04110141 157.13868071 125 161 C120.93412469 159.12524639 118.06726106 156.39023206 114.875 153.3125 C109.55587983 148.30535168 104.14452311 143.97370357 98 140 C96.55367187 139.01 96.55367187 139.01 95.078125 138 C34.271987 97.26861569 -41.46859443 83.60497022 -112.9777832 96.89868164 C-169.93417532 108.24115882 -223.99937412 139.04056137 -258.75732422 186.31298828 C-259.97864961 187.97101549 -261.22377916 189.60876498 -262.47265625 191.24609375 C-278.81899556 213.02071247 -290.71452768 238.16308415 -299 264 C-299.26264648 264.79164551 -299.52529297 265.58329102 -299.79589844 266.39892578 C-304.52327605 280.67747607 -307.60621461 295.15983869 -310 310 C-310.16661133 311.02851074 -310.33322266 312.05702148 -310.50488281 313.11669922 C-321.79872817 386.55007675 -305.91628691 466.57629123 -262.0078125 526.99609375 C-257.61828215 532.91137404 -252.89478171 538.49998753 -248 544 C-247.55301758 544.50869629 -247.10603516 545.01739258 -246.64550781 545.54150391 C-206.84034635 590.74858972 -149.2277889 615.61125285 -90 622 C-88.70823853 622.14139404 -88.70823853 622.14139404 -87.39038086 622.28564453 C-78.04307862 623.18910125 -68.69522679 623.24335788 -59.3125 623.25 C-58.45172852 623.25067474 -57.59095703 623.25134949 -56.70410156 623.25204468 C-42.28717486 623.23417052 -28.22716482 622.49143893 -14 620 C-12.62062256 619.76651855 -12.62062256 619.76651855 -11.21337891 619.52832031 C35.11980171 611.39627495 78.46345307 589.77362317 113 558 C114.4328015 556.72387168 115.87002698 555.45268583 117.3125 554.1875 C118.20388672 553.40439453 118.20388672 553.40439453 119.11328125 552.60546875 C121.36913403 550.68589216 123.68430825 548.84671492 126 547 C127.90259528 579.74512828 127.90259528 579.74512828 121.6875 586.75 C119.84766562 588.55878232 117.95058306 590.31124017 116 592 C114.62102096 593.47998863 113.29838269 595.00003656 111.97192383 596.52709961 C109.7236754 599.08994796 107.36172049 601.54207909 105 604 C104.51241211 604.50950195 104.02482422 605.01900391 103.52246094 605.54394531 C96.7499579 612.58117159 89.70829684 618.98089997 82 625 C81.03964844 625.77730469 80.07929687 626.55460937 79.08984375 627.35546875 C9.55713266 682.64759931 -86.23025915 698.07314232 -172.56347656 688.609375 C-242.11756294 680.31587091 -307.77943161 652.9873771 -360 606 C-361.10794922 605.02933594 -361.10794922 605.02933594 -362.23828125 604.0390625 C-372.06393095 595.35738796 -381.50452354 586.28031143 -389.640625 575.9765625 C-391.39051472 573.76892017 -393.16380606 571.60865786 -394.984375 569.4609375 C-449.31504882 504.9365668 -473.10679489 415.12291706 -466.30093384 331.80592346 C-460.48810302 265.2775089 -436.05907126 201.44434162 -393 150 C-392.55253418 149.4524707 -392.10506836 148.90494141 -391.64404297 148.34082031 C-384.37854353 139.4638671 -376.45774315 131.25253147 -368.375 123.125 C-367.89389771 122.63863068 -367.41279541 122.15226135 -366.91711426 121.65115356 C-360.29369047 114.97168282 -353.38220389 108.83352046 -346 103 C-344.80795131 102.03464693 -343.61644375 101.06862476 -342.42578125 100.1015625 C-267.84443448 40.77336444 -173.88071935 17.67726754 -79.89770508 27.63842773 C-62.85941101 29.5968131 -46.09037776 32.86338912 -29.4375 36.9375 C-28.54764404 37.1538208 -27.65778809 37.3701416 -26.7409668 37.59301758 C-17.62135008 39.91961134 -9.00007479 42.99997507 0 46 C0 30.82 0 15.64 0 0 Z " fill="#000000" transform="translate(489,735)"/>
<path d="M0 0 C2.54182983 2.22169041 4.97972979 4.5082617 7.38671875 6.875 C8.07507813 7.55046875 8.7634375 8.2259375 9.47265625 8.921875 C35.62698359 36.42010058 36.75029255 76.53019345 36.61376953 112.22241211 C36.61320333 114.34400426 36.61352603 116.4655968 36.61465454 118.58718872 C36.61522092 124.26543331 36.60358447 129.94359083 36.58950663 135.62181544 C36.57687806 141.58613422 36.57581932 147.55045568 36.57345581 153.51478577 C36.56727627 164.77277474 36.55091394 176.03072419 36.53075683 187.28869587 C36.5082871 200.12090216 36.49737674 212.95311049 36.48736596 225.78533161 C36.46654398 252.14858127 36.42991264 278.51177685 36.38671875 304.875 C50.24671875 304.875 64.10671875 304.875 78.38671875 304.875 C78.38671875 316.095 78.38671875 327.315 78.38671875 338.875 C27.56671875 338.875 -23.25328125 338.875 -75.61328125 338.875 C-75.65066406 320.64121094 -75.68804688 302.40742187 -75.7265625 283.62109375 C-75.75683902 272.06835218 -75.78784534 260.51561949 -75.82226562 248.96289062 C-75.84031389 242.89233463 -75.85817757 236.82177814 -75.87573242 230.7512207 C-75.87904395 229.61006242 -75.87904395 229.61006242 -75.88242239 228.44585043 C-75.9177251 216.18788186 -75.94262137 203.92991335 -75.96362827 191.6719129 C-75.9854445 179.0778118 -76.01854981 166.48377626 -76.06198281 153.88973099 C-76.0883996 146.12794422 -76.10616824 138.36623904 -76.11262729 130.60440958 C-76.11853951 124.63752908 -76.14021131 118.67080828 -76.16755676 112.70398331 C-76.17630729 110.26727268 -76.1800658 107.83053787 -76.17828941 105.39381218 C-76.12855058 75.31845614 -76.12855058 75.31845614 -90.4921875 49.71875 C-97.9730526 43.2160459 -106.09474608 42.40987623 -115.7109375 42.59765625 C-123.44827694 43.14755725 -130.40312119 45.64094094 -136.05859375 51.06640625 C-144.44105455 60.8178619 -147.4804366 72.47412578 -148.70272827 84.97930908 C-148.7880202 85.85026002 -148.87331214 86.72121096 -148.96118867 87.61855435 C-149.85836814 97.51970586 -149.92164347 107.3964211 -149.93212891 117.33105469 C-149.94145629 119.39309571 -149.95162898 121.45513305 -149.96257019 123.51716614 C-149.98956802 129.04678942 -150.00492853 134.57638769 -150.01799822 140.10605907 C-150.03376293 145.91027339 -150.06050965 151.71443757 -150.08602905 157.51861572 C-150.13258296 168.47917247 -150.16943932 179.43973891 -150.20270193 190.40034318 C-150.24108985 202.89153165 -150.29045562 215.38266947 -150.34068608 227.87381506 C-150.44365755 253.54083904 -150.53302968 279.20789563 -150.61328125 304.875 C-149.16707397 304.86714478 -149.16707397 304.86714478 -147.69165039 304.85913086 C-144.12655561 304.84107882 -140.56146489 304.82956726 -136.99633789 304.82006836 C-135.45108359 304.8150286 -133.90583409 304.8081968 -132.3605957 304.79956055 C-130.14403096 304.78747924 -127.92752907 304.78176827 -125.7109375 304.77734375 C-125.01613785 304.77218246 -124.3213382 304.76702118 -123.60548401 304.76170349 C-121.94098795 304.76150723 -120.27662626 304.81310871 -118.61328125 304.875 C-116.93654476 306.55173649 -117.48540308 308.60355076 -117.47433472 310.84155273 C-117.47737106 311.87904663 -117.47737106 311.87904663 -117.48046875 312.9375 C-117.47951202 313.64398682 -117.4785553 314.35047363 -117.47756958 315.07836914 C-117.47688792 316.57470793 -117.4787412 318.07104967 -117.48291016 319.56738281 C-117.48825868 321.86530157 -117.48296474 324.16302486 -117.4765625 326.4609375 C-117.47722328 327.91145877 -117.47850445 329.36197991 -117.48046875 330.8125 C-117.47844452 331.5041626 -117.47642029 332.1958252 -117.47433472 332.90844727 C-117.49832901 337.76004776 -117.49832901 337.76004776 -118.61328125 338.875 C-120.87885512 338.97207611 -123.14752427 338.99686621 -125.41517639 338.99525452 C-126.49451585 338.99653615 -126.49451585 338.99653615 -127.59566015 338.99784368 C-130.02481705 338.9995006 -132.45390602 338.99397368 -134.88305664 338.98852539 C-136.61717222 338.98824354 -138.35128793 338.98840121 -140.08540344 338.9889679 C-144.80834446 338.98925595 -149.53126031 338.98335799 -154.25419545 338.97639394 C-159.18430915 338.97016166 -164.11442337 338.9695567 -169.04454041 338.96836853 C-178.38724487 338.96525484 -187.72993769 338.95704095 -197.07263702 338.94701904 C-207.7060718 338.93585907 -218.33950712 338.93034775 -228.97294629 338.92532361 C-250.85306589 338.91485836 -272.73316953 338.89651241 -294.61328125 338.875 C-294.61328125 327.655 -294.61328125 316.435 -294.61328125 304.875 C-283.72328125 304.875 -272.83328125 304.875 -261.61328125 304.875 C-261.61328125 210.825 -261.61328125 116.775 -261.61328125 19.875 C-272.50328125 19.875 -283.39328125 19.875 -294.61328125 19.875 C-294.61328125 8.985 -294.61328125 -1.905 -294.61328125 -13.125 C-248.74328125 -13.125 -202.87328125 -13.125 -155.61328125 -13.125 C-155.28328125 4.035 -154.95328125 21.195 -154.61328125 38.875 C-151.97328125 34.255 -149.33328125 29.635 -146.61328125 24.875 C-144.33627251 21.72858793 -142.1184377 18.81022622 -139.61328125 15.875 C-138.97132813 15.08867188 -138.329375 14.30234375 -137.66796875 13.4921875 C-122.12778121 -4.80050559 -100.24573642 -16.79940547 -76.39453125 -19.83984375 C-48.6602571 -21.93137476 -22.13321384 -17.99771051 0 0 Z " fill="#000000" transform="translate(944.61328125,930.125)"/>
<path d="M0 0 C1.72258403 1.48361283 3.43247395 2.98218632 5.125 4.5 C5.75921875 5.05171875 6.3934375 5.6034375 7.046875 6.171875 C26.52090085 24.21661455 34.21296787 51.89852673 36.125 77.5 C36.20745185 78.55681976 36.2899037 79.61363953 36.37485409 80.70248413 C37.17835328 92.06904433 37.26033701 103.38605232 37.23852539 114.77734375 C37.23824268 116.86834715 37.23840289 118.95935066 37.2389679 121.050354 C37.23925259 126.6773351 37.23340914 132.3042945 37.22639394 137.9312706 C37.22010556 143.8302372 37.21955229 149.7292044 37.21836853 155.62817383 C37.21527129 166.77659224 37.20707974 177.92500074 37.19701904 189.0734148 C37.18580777 201.77487296 37.18033486 214.47633162 37.17532361 227.1777935 C37.16489565 253.28520241 37.14657033 279.39259775 37.125 305.5 C50.985 305.5 64.845 305.5 79.125 305.5 C79.125 316.72 79.125 327.94 79.125 339.5 C28.305 339.5 -22.515 339.5 -74.875 339.5 C-74.91238281 321.35 -74.94976563 303.2 -74.98828125 284.5 C-75.01855931 272.99738862 -75.0495668 261.49478614 -75.08398438 249.9921875 C-75.10203239 243.9475918 -75.11989604 237.90299559 -75.13745117 231.85839844 C-75.1407627 230.72213418 -75.1407627 230.72213418 -75.14414114 229.56291509 C-75.17943528 217.36057774 -75.20433636 205.15824045 -75.22534702 192.95587111 C-75.24717012 180.41713565 -75.28028183 167.87846597 -75.32370156 155.33978653 C-75.35010662 147.61331852 -75.36788385 139.88693234 -75.37434604 132.16042149 C-75.38026269 126.21878474 -75.40194509 120.27726832 -75.42927551 114.33568954 C-75.43801933 111.9106869 -75.44178597 109.48566 -75.44000816 107.06064224 C-75.30658931 76.43852542 -75.30658931 76.43852542 -89.75390625 50.34375 C-97.23477135 43.8410459 -105.35646483 43.03487623 -114.97265625 43.22265625 C-122.58818365 43.76389994 -129.68303088 46.19982833 -135.25390625 51.5703125 C-149.91726419 69.02500846 -149.01786582 91.80037342 -149.08032227 113.30151367 C-149.08991415 115.40163357 -149.09992498 117.5017516 -149.11032104 119.60186768 C-149.13723426 125.27664305 -149.15831692 130.95142663 -149.17832303 136.62623 C-149.20026688 142.56661564 -149.22761429 148.5069764 -149.25437927 154.44734192 C-149.30419302 165.68444836 -149.34917361 176.9215687 -149.39240164 188.15870219 C-149.44187104 200.95679555 -149.49675304 213.75486393 -149.55208123 226.5529331 C-149.66572742 252.8685989 -149.77241196 279.18428897 -149.875 305.5 C-139.315 305.5 -128.755 305.5 -117.875 305.5 C-117.875 316.72 -117.875 327.94 -117.875 339.5 C-175.955 339.5 -234.035 339.5 -293.875 339.5 C-293.875 328.28 -293.875 317.06 -293.875 305.5 C-282.985 305.5 -272.095 305.5 -260.875 305.5 C-260.875 211.45 -260.875 117.4 -260.875 20.5 C-271.765 20.5 -282.655 20.5 -293.875 20.5 C-293.875 9.61 -293.875 -1.28 -293.875 -12.5 C-248.005 -12.5 -202.135 -12.5 -154.875 -12.5 C-154.545 4.66 -154.215 21.82 -153.875 39.5 C-151.235 34.88 -148.595 30.26 -145.875 25.5 C-130.88695607 3.49251871 -110.70950875 -10.96751304 -84.875 -17.5 C-83.99457031 -17.72558594 -83.11414062 -17.95117188 -82.20703125 -18.18359375 C-54.33898964 -24.01456927 -22.28790619 -17.87897523 0 0 Z " fill="#000000" transform="translate(1743.875,929.5)"/>
<path d="M0 0 C1.72416146 1.48177934 3.4341051 2.98036938 5.125 4.5 C5.78242188 5.08652344 6.43984375 5.67304687 7.1171875 6.27734375 C31.07456687 28.9037576 35.9654184 63.24235461 37.125 94.5 C37.50708151 109.57473344 37.36604467 124.66526132 37.32778788 139.74328089 C37.31513229 145.58746522 37.3140985 151.43165247 37.31173706 157.27584839 C37.30556525 168.29999254 37.28921377 179.32409616 37.26903808 190.34822261 C37.24654379 202.91689996 37.23565192 215.48557942 37.22564721 228.05427194 C37.20484281 253.86954214 37.16822156 279.68475693 37.125 305.5 C50.985 305.5 64.845 305.5 79.125 305.5 C79.125 316.72 79.125 327.94 79.125 339.5 C28.305 339.5 -22.515 339.5 -74.875 339.5 C-74.91238281 321.35 -74.94976563 303.2 -74.98828125 284.5 C-75.01855931 272.99738862 -75.0495668 261.49478614 -75.08398438 249.9921875 C-75.10203239 243.9475918 -75.11989604 237.90299559 -75.13745117 231.85839844 C-75.1407627 230.72213418 -75.1407627 230.72213418 -75.14414114 229.56291509 C-75.17943528 217.36057774 -75.20433636 205.15824045 -75.22534702 192.95587111 C-75.24717012 180.41713565 -75.28028183 167.87846597 -75.32370156 155.33978653 C-75.35010662 147.61331852 -75.36788385 139.88693234 -75.37434604 132.16042149 C-75.38026269 126.21878474 -75.40194509 120.27726832 -75.42927551 114.33568954 C-75.43801933 111.9106869 -75.44178597 109.48566 -75.44000816 107.06064224 C-75.33534317 77.25960155 -75.33534317 77.25960155 -88.875 51.5 C-95.08329566 45.29170434 -102.72708846 43.24454885 -111.3125 43 C-120.78290276 43.29595009 -129.06468015 45.51210536 -136.02734375 52.203125 C-147.07317711 65.93452039 -149.01250873 83.81341831 -149.03321838 100.82681274 C-149.03815636 101.7092372 -149.04309434 102.59166165 -149.04818195 103.50082624 C-149.06341355 106.42714416 -149.07187823 109.3534404 -149.08032227 112.27978516 C-149.0899121 114.38960965 -149.09992281 116.49943227 -149.11032104 118.60925293 C-149.13725649 124.31507829 -149.15832727 130.02091182 -149.17832303 135.72676516 C-149.200253 141.69785314 -149.22760726 147.66891625 -149.25437927 153.63998413 C-149.30421164 164.93733103 -149.3491854 176.23469181 -149.39240164 187.53206575 C-149.44185502 200.39784925 -149.49674301 213.26360779 -149.55208123 226.12936711 C-149.66575604 252.58622159 -149.77243368 279.04310032 -149.875 305.5 C-139.315 305.5 -128.755 305.5 -117.875 305.5 C-117.875 316.72 -117.875 327.94 -117.875 339.5 C-175.955 339.5 -234.035 339.5 -293.875 339.5 C-293.875 328.28 -293.875 317.06 -293.875 305.5 C-278.035 305.005 -278.035 305.005 -261.875 304.5 C-261.545 210.78 -261.215 117.06 -260.875 20.5 C-271.765 20.5 -282.655 20.5 -293.875 20.5 C-293.875 9.61 -293.875 -1.28 -293.875 -12.5 C-248.005 -12.5 -202.135 -12.5 -154.875 -12.5 C-154.545 4.66 -154.215 21.82 -153.875 39.5 C-150.905 34.22 -147.935 28.94 -144.875 23.5 C-141.27895474 18.98496539 -137.76688678 14.72069442 -133.875 10.5 C-133.00294922 9.50613281 -133.00294922 9.50613281 -132.11328125 8.4921875 C-119.76263135 -4.88509073 -102.26211845 -13.10351135 -84.875 -17.5 C-83.99457031 -17.72558594 -83.11414062 -17.95117188 -82.20703125 -18.18359375 C-54.33898964 -24.01456927 -22.28790619 -17.87897523 0 0 Z " fill="#000000" transform="translate(2452.875,929.5)"/>
<path d="M0 0 C2.38609977 2.09919699 4.71929689 4.24711447 7.02783203 6.43115234 C9.35748096 8.66542396 9.35748096 8.66542396 11.80126953 10.44677734 C25.22102168 21.73292848 35.53361972 38.18683725 43.43017578 53.65771484 C43.80094238 54.36557129 44.17170898 55.07342773 44.55371094 55.80273438 C71.34443612 107.29526156 73.96823346 171.51000027 57.11767578 226.50146484 C50.39281701 247.50078798 40.94070725 267.19021542 27.43017578 284.65771484 C26.73666016 285.57423828 26.04314453 286.49076172 25.32861328 287.43505859 C-1.80811767 322.04201323 -41.02138249 342.57654385 -84.35791016 348.39135742 C-123.11577824 353.05855765 -162.12717769 347.29442577 -196.56982422 328.65771484 C-197.64103516 328.08021484 -198.71224609 327.50271484 -199.81591797 326.90771484 C-211.15208013 320.53941568 -221.15352129 312.58772983 -230.56982422 303.65771484 C-231.46572266 302.81466797 -232.36162109 301.97162109 -233.28466797 301.10302734 C-243.87960217 290.84986521 -252.26203223 279.46656236 -259.56982422 266.65771484 C-259.92931152 266.03445313 -260.28879883 265.41119141 -260.65917969 264.76904297 C-271.23220401 246.25592966 -278.07321188 226.46046348 -282.56982422 205.65771484 C-282.78155273 204.68817871 -282.99328125 203.71864258 -283.21142578 202.71972656 C-289.12533567 174.19518657 -289.51240824 141.20530872 -283.56982422 112.65771484 C-283.39821777 111.77148438 -283.22661133 110.88525391 -283.04980469 109.97216797 C-277.36407435 80.84740809 -266.16923328 53.6384192 -248.56982422 29.65771484 C-247.85697266 28.68189453 -247.14412109 27.70607422 -246.40966797 26.70068359 C-218.48696945 -9.18455708 -178.05071745 -29.80376888 -133.37890625 -35.62792969 C-87.23466047 -40.9300126 -35.99096859 -30.77423722 0 0 Z M-133.56982422 10.65771484 C-160.91018605 47.43847067 -155.93553339 106.33095562 -155.83056641 149.93212891 C-155.81917294 154.70131115 -155.82595962 159.47027008 -155.83744431 164.23944473 C-159.08197863 237.01797614 -159.08197863 237.01797614 -132.63232422 301.28271484 C-124.85568168 308.3345441 -117.15608575 310.00599487 -106.88232422 309.85693359 C-97.06610019 309.26657106 -91.12843827 304.85428282 -84.56982422 297.65771484 C-82.15931762 294.48405659 -80.30639548 291.24070074 -78.56982422 287.65771484 C-77.92787109 286.34867188 -77.92787109 286.34867188 -77.27294922 285.01318359 C-63.6026908 253.49564335 -64.4151609 214.27028366 -64.40185547 180.45068359 C-64.3986249 178.46844969 -64.39525965 176.48621601 -64.39176941 174.50398254 C-64.3858369 170.37528941 -64.38392324 166.24661701 -64.38452148 162.11791992 C-64.38460244 157.95576606 -64.37769788 153.79372296 -64.36401367 149.6315918 C-61.41291804 76.65510072 -61.41291804 76.65510072 -86.56982422 10.65771484 C-89.0417658 8.22548316 -91.56377429 6.37712862 -94.56982422 4.65771484 C-95.14990234 4.31998047 -95.72998047 3.98224609 -96.32763672 3.63427734 C-107.98597243 -1.86684211 -125.02097632 0.75413149 -133.56982422 10.65771484 Z " fill="#000000" transform="translate(554.56982421875,936.34228515625)"/>
<path d="M0 0 C17.65259887 15.55103427 29.41255341 34.25286774 35.99609375 56.796875 C36.2386792 57.6226001 36.48126465 58.4483252 36.73120117 59.29907227 C40.69256111 73.64762487 40.96641818 87.70676619 40.91064453 102.46826172 C40.91007936 104.57867426 40.91039905 106.6890872 40.91152954 108.79949951 C40.91209991 114.48860673 40.90039709 120.17762844 40.88638163 125.86671591 C40.87382125 131.82708387 40.8726996 137.7874541 40.87033081 143.74783325 C40.86413157 155.01674657 40.84774193 166.28562077 40.82763183 177.55451691 C40.80522424 190.39135124 40.79426721 203.2281875 40.78424096 216.06503654 C40.76337424 242.45483839 40.72782259 268.84460284 40.68359375 295.234375 C52.56359375 295.234375 64.44359375 295.234375 76.68359375 295.234375 C76.68359375 306.454375 76.68359375 317.674375 76.68359375 329.234375 C29.49359375 329.234375 -17.69640625 329.234375 -66.31640625 329.234375 C-66.64640625 315.704375 -66.97640625 302.174375 -67.31640625 288.234375 C-69.62640625 291.204375 -71.93640625 294.174375 -74.31640625 297.234375 C-91.72930157 318.48926146 -114.86960792 331.99831705 -142.31640625 335.234375 C-146.77935195 335.512641 -151.22060087 335.56883127 -155.69140625 335.546875 C-156.87879395 335.54196045 -158.06618164 335.5370459 -159.28955078 335.53198242 C-167.68397602 335.41966508 -175.2875814 334.85109933 -183.31640625 332.234375 C-184.404375 331.88246094 -185.49234375 331.53054688 -186.61328125 331.16796875 C-210.56615048 322.64951878 -227.91525585 305.20380737 -239.07421875 282.6875 C-252.51481459 252.29419282 -255.20454064 216.45788608 -243.8203125 184.921875 C-239.03579675 173.19049093 -233.27553854 163.09302406 -225.31640625 153.234375 C-224.77628906 152.46609375 -224.23617187 151.6978125 -223.6796875 150.90625 C-223.22980469 150.35453125 -222.77992188 149.8028125 -222.31640625 149.234375 C-221.65640625 149.234375 -220.99640625 149.234375 -220.31640625 149.234375 C-219.98640625 148.244375 -219.65640625 147.254375 -219.31640625 146.234375 C-191.88097325 119.70457765 -153.38206702 111.69653111 -116.44970703 111.87841797 C-100.57876284 112.15657063 -85.30627076 113.85745653 -70.31640625 119.234375 C-70.6963728 80.62678478 -70.6963728 80.62678478 -90.00390625 48.421875 C-106.22068739 34.66591042 -125.97264379 33.23604424 -146.31640625 34.234375 C-173.37781188 36.69234383 -196.10625882 52.10992343 -213.31640625 72.234375 C-213.97640625 72.894375 -214.63640625 73.554375 -215.31640625 74.234375 C-232.23474215 55.9986277 -232.23474215 55.9986277 -235.31640625 49.234375 C-230.10812786 41.60418838 -224.69110621 34.27542323 -218.62890625 27.296875 C-218.10723877 26.69544678 -217.58557129 26.09401855 -217.0480957 25.47436523 C-210.09648088 17.57812489 -202.61439392 10.70489292 -194.31640625 4.234375 C-192.79080078 3.04134766 -192.79080078 3.04134766 -191.234375 1.82421875 C-138.56337748 -38.14461618 -52.20926843 -44.43474592 0 0 Z M-121.31640625 159.234375 C-136.2969446 177.57859904 -135.69228966 204.88341908 -134.31640625 227.234375 C-132.7230169 243.00716748 -128.23197278 258.12163875 -115.56640625 268.484375 C-105.9779872 273.64736987 -95.70790681 274.86483561 -85.12890625 272.109375 C-79.74043616 270.29577989 -74.36690275 267.2848715 -70.31640625 263.234375 C-70.21015649 261.83966329 -70.17236813 260.4396575 -70.1625061 259.04093933 C-70.15390564 258.13661667 -70.14530518 257.23229401 -70.13644409 256.30056763 C-70.13218414 255.30056732 -70.12792419 254.30056702 -70.12353516 253.27026367 C-70.11535767 252.2231572 -70.10718018 251.17605072 -70.09875488 250.09721375 C-70.07384528 246.61559634 -70.05737117 243.13401983 -70.04296875 239.65234375 C-70.03498323 237.87393317 -70.03498323 237.87393317 -70.0268364 236.05959511 C-70.00008136 229.78509796 -69.98071348 223.51062089 -69.96630859 217.23608398 C-69.9496498 210.74230415 -69.90486775 204.24903075 -69.85393715 197.75544262 C-69.8203436 192.77382295 -69.80873978 187.79232464 -69.80308151 182.81060219 C-69.79634781 180.41632527 -69.78107131 178.02205692 -69.7571907 175.62788963 C-69.72570498 172.28039206 -69.7254779 168.93427561 -69.73291016 165.58666992 C-69.71650482 164.59274231 -69.70009949 163.5988147 -69.68319702 162.57476807 C-69.64848255 157.05754607 -69.64848255 157.05754607 -72.720047 152.65182495 C-79.55351527 148.92117818 -86.01011065 147.69673631 -93.75390625 147.796875 C-94.58575439 147.80517334 -95.41760254 147.81347168 -96.2746582 147.82202148 C-106.76655406 148.11052552 -114.17649342 151.4635647 -121.31640625 159.234375 Z " fill="#000000" transform="translate(2995.31640625,939.765625)"/>
<path d="M0 0 C0.82757812 0.7321875 1.65515625 1.464375 2.5078125 2.21875 C3.25289062 2.8684375 3.99796875 3.518125 4.765625 4.1875 C27.30778573 25.19453151 38.46353745 55.79404136 44.5078125 85.21875 C44.73960205 86.32887451 44.73960205 86.32887451 44.97607422 87.46142578 C49.72486482 110.83145825 50.34436295 135.08984278 49.0703125 158.84375 C49.01170044 159.93840576 49.01170044 159.93840576 48.9519043 161.05517578 C48.63263262 166.09392988 48.63263262 166.09392988 47.5078125 167.21875 C45.09192277 167.31642385 42.70465866 167.34871678 40.28831482 167.33900452 C39.14159674 167.34028615 39.14159674 167.34028615 37.97171265 167.34159368 C35.39054232 167.34325079 32.8094359 167.33772337 30.22827148 167.33227539 C28.38578289 167.33199354 26.54329419 167.33215121 24.70080566 167.3327179 C19.68242013 167.33300596 14.66405829 167.32710775 9.64567828 167.32014394 C4.40726512 167.31391193 -0.83114852 167.31330672 -6.06956482 167.31211853 C-15.99663241 167.30900476 -25.92368906 167.30079076 -35.85075182 167.29076904 C-47.14922845 167.27960931 -58.4477056 167.27409781 -69.74618638 167.26907361 C-92.9948595 167.25860818 -116.24352289 167.24100787 -139.4921875 167.21875 C-139.03396321 171.03321023 -138.56838096 174.84673902 -138.1015625 178.66015625 C-137.97313965 179.72995728 -137.8447168 180.7997583 -137.71240234 181.90197754 C-134.56793325 207.45323031 -126.68601527 230.9533323 -106.4921875 248.21875 C-86.69512524 263.2310238 -62.89742103 266.64979192 -38.765625 263.71484375 C-20.52158314 261.02672186 -3.63442094 254.21070234 10.5078125 242.21875 C11.17941406 241.66832031 11.85101562 241.11789062 12.54296875 240.55078125 C15.38232363 238.18951077 17.43546837 236.32726619 19.5078125 233.21875 C22.76512635 233.79740689 24.35827586 234.71172126 26.63671875 237.08984375 C27.19681641 237.66412109 27.75691406 238.23839844 28.33398438 238.83007812 C28.90697266 239.43271484 29.47996094 240.03535156 30.0703125 240.65625 C31.21519363 241.84462383 32.36225129 243.03090552 33.51171875 244.21484375 C34.01517822 244.74263428 34.5186377 245.2704248 35.03735352 245.81420898 C36.66036808 247.44582266 36.66036808 247.44582266 39.5078125 249.21875 C38.94329143 254.21184155 36.65787086 257.92267069 34.1328125 262.15625 C33.68873047 262.90406738 33.24464844 263.65188477 32.78710938 264.42236328 C28.27852826 271.8489107 23.12666953 278.60556762 17.5078125 285.21875 C16.6725 286.20746094 15.8371875 287.19617187 14.9765625 288.21484375 C-8.76999825 315.30546131 -43.08508499 329.75188987 -78.4921875 333.21875 C-81.22451386 333.3291673 -83.9320167 333.40480996 -86.6640625 333.421875 C-87.7980246 333.43246445 -87.7980246 333.43246445 -88.95489502 333.44326782 C-133.85564962 333.76726778 -174.04304185 323.79064768 -207.4921875 292.21875 C-208.16765625 291.59613281 -208.843125 290.97351562 -209.5390625 290.33203125 C-244.62181692 256.86308353 -256.90189639 204.75563696 -258.41967773 158.05566406 C-259.50967911 104.31162303 -245.96417606 50.96176817 -208.4921875 11.21875 C-207.82058594 10.48269531 -207.14898438 9.74664063 -206.45703125 8.98828125 C-156.01014848 -44.28739868 -55.0192371 -46.83853421 0 0 Z M-122.9375 14.05859375 C-144.93239701 44.61934261 -139.93300655 95.36320701 -139.4921875 131.21875 C-135.10955351 132.05972613 -130.96865401 132.3452034 -126.50878906 132.34814453 C-125.50279915 132.35077301 -125.50279915 132.35077301 -124.47648621 132.35345459 C-122.278568 132.3578258 -120.0807314 132.35495324 -117.8828125 132.3515625 C-116.34918197 132.35223658 -114.81555155 132.35320748 -113.28192139 132.35446167 C-110.07774838 132.35593195 -106.87360334 132.35380445 -103.66943359 132.34912109 C-99.55794187 132.34340488 -95.44651516 132.34671896 -91.33502579 132.35269356 C-88.17296861 132.35630082 -85.01092696 132.35516016 -81.84886932 132.35256577 C-80.33217104 132.35189795 -78.81547136 132.35271985 -77.29877472 132.35504532 C-75.1851475 132.35757662 -73.07162705 132.35372538 -70.95800781 132.34814453 C-69.75476868 132.34734894 -68.55152954 132.34655334 -67.31182861 132.34573364 C-64.54064018 132.41235995 -64.54064018 132.41235995 -62.4921875 131.21875 C-59.09698819 69.20254542 -59.09698819 69.20254542 -79.8671875 13.28125 C-92.57088722 3.29977165 -111.06370863 0.67927381 -122.9375 14.05859375 Z " fill="#000000" transform="translate(2087.4921875,941.78125)"/>
<path d="M0 0 C49.5 0 99 0 150 0 C150 147.84 150 295.68 150 448 C164.19 448 178.38 448 193 448 C193 459.22 193 470.44 193 482 C141.85 482 90.7 482 38 482 C38 333.83 38 185.66 38 33 C25.46 33 12.92 33 0 33 C0 22.11 0 11.22 0 0 Z " fill="#000000" transform="translate(3072,787)"/>
<path d="M0 0 C4.81619584 1.68027728 8.38698459 5.34538525 12.09375 8.73046875 C12.65658691 9.24416016 13.21942383 9.75785156 13.79931641 10.28710938 C29.8340046 25.11757738 49.87282957 47.08625457 51.21679688 69.81103516 C52.27095432 97.80405746 47.92303937 126.85019267 38.24121094 153.13427734 C37.80083496 154.34978271 37.80083496 154.34978271 37.3515625 155.58984375 C37.0848877 156.29592773 36.81821289 157.00201172 36.54345703 157.72949219 C35.77892914 161.13126774 36.8077322 163.23836142 38.51953125 166.18359375 C47.8428905 180.00455694 58.04399572 193.08985203 68.63769531 205.95410156 C69.93336297 207.53479873 71.21387633 209.1278902 72.4921875 210.72265625 C77.94964986 217.51985667 83.72282403 224.00067119 89.74560547 230.30053711 C90.9477732 231.57563606 92.09897108 232.89835288 93.2421875 234.2265625 C97.51939117 237.98229887 102.43145479 240.31552824 107.46875 242.91796875 C127.63839443 253.61328167 148.03697305 265.25613743 156.30859375 287.88671875 C161.77543969 307.68703637 157.57850139 326.55820727 147.65625 344.16796875 C144.94164212 348.65587752 141.8785591 352.58795565 138.28125 356.40234375 C135.27517604 362.29583086 139.18951367 370.9464689 141.03515625 376.890625 C141.62449919 378.83784516 142.21368725 380.78511221 142.80273438 382.73242188 C143.73010312 385.77028613 144.66061107 388.80714592 145.59448242 391.84301758 C146.49961886 394.7939483 147.39292443 397.74827136 148.28515625 400.703125 C148.56637833 401.60434586 148.8476004 402.50556671 149.13734436 403.43409729 C150.60251496 408.30520758 151.65609246 412.58812322 151.09375 417.73046875 C150.01147461 419.68334961 150.01147461 419.68334961 148.49609375 421.1953125 C147.94542236 421.76338623 147.39475098 422.33145996 146.82739258 422.91674805 C146.23466553 423.49465088 145.64193848 424.07255371 145.03125 424.66796875 C143.82480182 425.90164101 142.61906589 427.13601023 141.4140625 428.37109375 C140.83430664 428.95439453 140.25455078 429.53769531 139.65722656 430.13867188 C137.82786245 432.0011725 136.10301273 433.93431377 134.40625 435.91796875 C131.68618789 439.07000102 128.90006328 442.15488403 126.09375 445.23046875 C123.24850772 448.34953886 120.4217542 451.47802266 117.65625 454.66796875 C114.21394454 458.63357005 110.65944765 462.49431894 107.08813477 466.34350586 C105.74630718 467.79632082 104.41997938 469.26340086 103.09375 470.73046875 C102.21589844 471.57609375 101.33804688 472.42171875 100.43359375 473.29296875 C96.67261917 477.85392963 96.25531229 483.95335852 95.28125 489.60546875 C94.559375 493.60671875 93.8375 497.60796875 93.09375 501.73046875 C78.57375 501.73046875 64.05375 501.73046875 49.09375 501.73046875 C49.09375 488.72391487 54.08523575 479.94848333 63.09375 470.73046875 C65.79178721 468.44599929 68.55845582 466.27162789 71.33984375 464.08984375 C76.25459568 459.87919104 80.12705623 454.81522945 84.09375 449.73046875 C84.96449455 448.62472492 85.83559406 447.51926054 86.70703125 446.4140625 C88.06081471 444.69462454 89.41182433 442.97330162 90.75537109 441.24584961 C93.33752138 437.93122297 95.96310855 434.66081128 98.64453125 431.42578125 C99.23903076 430.70616211 99.83353027 429.98654297 100.44604492 429.24511719 C101.60588064 427.84519979 102.77120879 426.44981025 103.94262695 425.05957031 C104.46945068 424.42245117 104.99627441 423.78533203 105.5390625 423.12890625 C106.00844238 422.56864746 106.47782227 422.00838867 106.96142578 421.43115234 C108.30219676 419.41739411 108.94978336 418.16145656 109.09375 415.73046875 C107.74890819 413.53974157 107.74890819 413.53974157 105.59765625 411.41796875 C104.76637207 410.54011719 103.93508789 409.66226562 103.07861328 408.7578125 C102.08634086 407.74606056 101.09118859 406.73712799 100.09375 405.73046875 C99.53790222 405.16859863 98.98205444 404.60672852 98.40936279 404.02783203 C93.30621027 398.8888268 88.15268512 393.80076951 82.98950195 388.72216797 C81.02906837 386.79172776 79.07473385 384.85528018 77.12109375 382.91796875 C76.21193459 382.02899902 76.21193459 382.02899902 75.28440857 381.12207031 C73.8492508 379.69570417 72.46585353 378.21759016 71.09375 376.73046875 C71.09375 376.07046875 71.09375 375.41046875 71.09375 374.73046875 C70.43375 374.73046875 69.77375 374.73046875 69.09375 374.73046875 C67.859375 373.47265625 67.859375 373.47265625 66.34375 371.60546875 C63.94785187 368.72938007 61.46877266 366.11460736 58.6953125 363.609375 C48.19307538 354.02170538 44.25589617 345.43665268 42.11328125 331.38671875 C40.4682913 318.38990637 40.4682913 318.38990637 33.33984375 308.03515625 C29.59923182 305.59207693 25.61340602 303.72886433 21.54150391 301.90673828 C17.44057406 299.93603411 13.77143319 297.36802276 10.03125 294.79296875 C8.91943359 294.04406372 8.91943359 294.04406372 7.78515625 293.2800293 C-5.14243652 284.57107716 -17.83959204 275.6080673 -29.90625 265.73046875 C-30.47867432 265.27333496 -31.05109863 264.81620117 -31.64086914 264.34521484 C-36.09396286 260.69048454 -39.63177136 256.6990186 -43.09375 252.10546875 C-43.64401855 251.38198242 -44.19428711 250.65849609 -44.76123047 249.91308594 C-50.71794908 241.90847976 -55.77873857 233.38018109 -60.74316406 224.73632812 C-61.71217391 223.06517261 -62.72225484 221.41791628 -63.7421875 219.77734375 C-64.90625 217.73046875 -64.90625 217.73046875 -64.90625 215.73046875 C-65.48173584 215.45823486 -66.05722168 215.18600098 -66.65014648 214.90551758 C-68.91650623 213.72512699 -70.92004006 212.4066539 -73.00390625 210.9296875 C-74.19246216 210.09147461 -74.19246216 210.09147461 -75.4050293 209.23632812 C-76.25105713 208.63626953 -77.09708496 208.03621094 -77.96875 207.41796875 C-84.98002405 202.47684904 -92.01206564 197.57022354 -99.09375 192.73046875 C-100.2221228 191.9583606 -100.2221228 191.9583606 -101.37329102 191.1706543 C-106.52588547 187.65271543 -111.70876393 184.18169129 -116.90625 180.73046875 C-119.15667262 182.33404529 -121.40660059 183.93830811 -123.65625 185.54296875 C-124.60757813 186.22069336 -124.60757813 186.22069336 -125.578125 186.91210938 C-126.196875 187.35361328 -126.815625 187.79511719 -127.453125 188.25 C-128.01870117 188.65323486 -128.58427734 189.05646973 -129.16699219 189.47192383 C-129.74094727 189.88724365 -130.31490234 190.30256348 -130.90625 190.73046875 C-131.62433838 191.12500244 -132.34242676 191.51953613 -133.08227539 191.92602539 C-135.35185659 194.17130375 -135.43174605 195.84948722 -135.53816223 198.972229 C-135.53974838 199.66846375 -135.54133453 200.36469849 -135.54296875 201.08203125 C-135.55635788 201.80952576 -135.56974701 202.53702026 -135.58354187 203.28656006 C-135.6136089 205.64355185 -135.60707315 207.99834737 -135.59375 210.35546875 C-135.5966806 211.54864716 -135.5966806 211.54864716 -135.59967041 212.76593018 C-135.5926705 223.81431086 -134.78063738 232.95840302 -129.2421875 242.75390625 C-127.90625 245.73046875 -127.90625 245.73046875 -128.63012695 248.12353516 C-129.90956019 250.73723098 -131.32364752 253.03252767 -132.98828125 255.41796875 C-133.59091797 256.28164063 -134.19355469 257.1453125 -134.81445312 258.03515625 C-135.75708008 259.36933594 -135.75708008 259.36933594 -136.71875 260.73046875 C-137.64397461 262.06464844 -137.64397461 262.06464844 -138.58789062 263.42578125 C-141.74351119 267.91943859 -144.84957282 272.02150676 -148.90625 275.73046875 C-153.16976988 270.45601117 -155.7259839 265.08785863 -157.71875 258.66796875 C-157.9252417 258.00796875 -158.1317334 257.34796875 -158.34448242 256.66796875 C-162.6701093 241.98881495 -160.93286694 226.14605139 -160.46875 211.04296875 C-160.42959473 209.73706787 -160.39043945 208.43116699 -160.35009766 207.08569336 C-160.22531122 203.29930962 -160.07015785 199.51534084 -159.90625 195.73046875 C-159.86886719 194.5280957 -159.83148437 193.32572266 -159.79296875 192.08691406 C-159.49493001 185.82632648 -159.25934559 181.60680407 -154.78125 176.85546875 C-153.55921875 175.51935547 -153.55921875 175.51935547 -152.3125 174.15625 C-151.12140625 172.95548828 -151.12140625 172.95548828 -149.90625 171.73046875 C-149.2771875 171.08464844 -148.648125 170.43882812 -148 169.7734375 C-146.86777613 168.63349392 -145.72470212 167.50421007 -144.5703125 166.38671875 C-142.84465523 164.66916316 -141.24867668 162.88444795 -139.65625 161.04296875 C-139.08390625 160.388125 -138.5115625 159.73328125 -137.921875 159.05859375 C-136.81992241 157.7857958 -135.72119988 156.51006237 -134.63867188 155.22070312 C-133.24373881 153.56384806 -131.82647368 151.92816485 -130.40625 150.29296875 C-129.74834473 149.49403198 -129.74834473 149.49403198 -129.07714844 148.67895508 C-126.7718457 146.06110485 -125.17558118 144.80048308 -121.77978516 143.91772461 C-117.00991919 143.687138 -113.54813802 144.74266384 -109.0859375 146.29296875 C-108.26425079 146.56310791 -107.44256409 146.83324707 -106.59597778 147.11157227 C-103.98618009 147.97058016 -101.38336278 148.84847831 -98.78125 149.73046875 C-96.17170479 150.61138883 -93.56105426 151.48765486 -90.94509888 152.34936523 C-89.32186442 152.88426826 -87.70221487 153.43021001 -86.08688354 153.98852539 C-82.02681812 155.32874654 -79.07802515 156.27548613 -74.90625 154.73046875 C-72.72534993 153.57510252 -72.72534993 153.57510252 -70.6484375 152.0703125 C-69.46121094 151.24950195 -69.46121094 151.24950195 -68.25 150.41210938 C-67.02796875 149.54875977 -67.02796875 149.54875977 -65.78125 148.66796875 C-64.98976563 148.11947266 -64.19828125 147.57097656 -63.3828125 147.00585938 C-61.73017886 145.85567967 -60.08868654 144.68936588 -58.45727539 143.50927734 C-55.90625 141.73046875 -55.90625 141.73046875 -53.35327148 140.26806641 C-42.65434943 133.68821454 -36.85253008 122.56620754 -30.21875 112.23046875 C-28.92176417 110.24228655 -27.62295085 108.25529525 -26.32226562 106.26953125 C-23.162372 101.43671945 -20.02543287 96.58964292 -16.90625 91.73046875 C-27.30711774 92.22264774 -37.20604396 94.06337142 -47.3503418 96.29736328 C-49.30321635 96.72423414 -51.25901127 97.13767464 -53.21484375 97.55078125 C-54.35751709 97.80102051 -55.50019043 98.05125977 -56.67749023 98.30908203 C-62.20817998 99.03089455 -66.13150468 98.0047863 -70.71875 94.91796875 C-71.48832031 94.41652344 -72.25789063 93.91507813 -73.05078125 93.3984375 C-76.8130818 90.01632732 -76.70497974 83.56370061 -77.03125 78.73046875 C-77.15688027 74.40886914 -77.19654279 70.48304649 -74.55566406 66.89599609 C-70.63117576 63.29726019 -66.00047811 60.76133128 -61.37695312 58.16845703 C-57.36309484 55.83232805 -53.66236767 53.08004617 -49.90625 50.35546875 C-44.27447324 46.27720598 -38.55779202 42.48164743 -32.54893494 38.98596191 C-16.31540853 30.71737112 -16.31540853 30.71737112 -4.52929688 17.78710938 C-3.45132971 11.66769879 -4.7137162 6.45714344 -6.90625 0.73046875 C-4.45764445 -0.49383403 -2.67395066 -0.4657496 0 0 Z " fill="#000000" transform="translate(3538.90625,734.26953125)"/>
<path d="M0 0 C0 31.35 0 62.7 0 95 C17.49 95 34.98 95 53 95 C53 105.89 53 116.78 53 128 C35.51 128 18.02 128 0 128 C0.039349 161.87813284 0.09293484 195.75610254 0.17792095 229.63414353 C0.18793831 233.63451329 0.19778246 237.63488346 0.20751953 241.63525391 C0.2094609 242.43164957 0.21140228 243.22804523 0.21340248 244.04857409 C0.24441651 256.94065242 0.26140146 269.83271296 0.27319422 282.72482157 C0.28560888 295.95509614 0.31311738 309.18527737 0.35461307 322.41549301 C0.3797395 330.5780842 0.39311791 338.74052056 0.39142957 346.90315098 C0.39139628 353.16418502 0.41237175 359.42498905 0.44116783 365.68595314 C0.44968959 368.25299548 0.45140141 370.82007082 0.44580269 373.3871212 C0.43917597 376.89229692 0.45705358 380.39653047 0.48101807 383.90161133 C0.47325765 384.91719179 0.46549723 385.93277225 0.45750165 386.97912788 C0.5308321 393.03893964 1.2974647 398.03866729 5 403 C11.61581511 408.41936327 18.87109152 408.35731466 27 408 C32.28 407.01 37.56 406.02 43 405 C43 415.89 43 426.78 43 438 C22.02017052 448.48991474 -0.34535231 451.23011971 -23.5625 451.25 C-24.27276337 451.25067474 -24.98302673 451.25134949 -25.71481323 451.25204468 C-36.4278405 451.23589264 -46.59718536 450.79512246 -57 448 C-57.63599121 447.83371094 -58.27198242 447.66742187 -58.92724609 447.49609375 C-77.26335027 442.56138343 -92.33921832 431.94852745 -102.02734375 415.609375 C-111.063461 399.53943752 -113.17735386 381.47310763 -113.12025452 363.33808899 C-113.12110894 362.32413644 -113.12196337 361.31018388 -113.12284368 360.26550549 C-113.12447838 356.90004829 -113.11901032 353.53464199 -113.11352539 350.16918945 C-113.11324306 347.74395245 -113.11340215 345.31871535 -113.1139679 342.89347839 C-113.11419492 337.68857146 -113.11137597 332.48367584 -113.10573006 327.27877235 C-113.09757255 319.75353152 -113.09499549 312.22829673 -113.09374207 304.70305195 C-113.0915582 292.49124016 -113.08491622 280.27943509 -113.07543945 268.06762695 C-113.06624808 256.21118198 -113.0591757 244.35473884 -113.05493164 232.49829102 C-113.05466892 231.76638006 -113.05440619 231.03446911 -113.05413551 230.28037903 C-113.05283039 226.6082745 -113.0515667 222.93616994 -113.05032361 219.26406538 C-113.03997173 188.84270531 -113.02209467 158.42135395 -113 128 C-125.21 128 -137.42 128 -150 128 C-151.86775811 106.17057705 -151.86775811 106.17057705 -148.65527344 100.71728516 C-145.0689236 96.7990914 -140.6939131 94.052287 -136.16308594 91.33691406 C-132.8946566 89.31683291 -129.97614485 86.92087458 -127 84.5 C-125.85559436 83.60234353 -124.70974313 82.70652718 -123.5625 81.8125 C-119.67056843 78.75455376 -115.83465864 75.62926515 -112 72.5 C-104.18258923 66.12337912 -96.26741611 59.87907588 -88.30712891 53.68212891 C-80.5455422 47.63887561 -72.90081323 41.47469961 -65.32592773 35.19873047 C-60.85241036 31.50046053 -56.33202025 27.87522035 -51.75 24.3125 C-47.73809093 21.19155478 -43.78497468 18.02052601 -39.91333008 14.7265625 C-38.8119829 13.79026382 -37.7050856 12.86045141 -36.5925293 11.9375 C-34.15508444 9.90574224 -31.88366486 7.87301588 -29.73828125 5.53125 C-20.69956507 -3.68596866 -14.87208818 0 0 0 Z " fill="#000000" transform="translate(2681,822)"/>
<path d="M0 0 C0 31.35 0 62.7 0 95 C14.19 95 28.38 95 43 95 C43 105.89 43 116.78 43 128 C28.81 128 14.62 128 0 128 C0.03712026 161.75072113 0.09293536 195.50132742 0.17792095 229.25196126 C0.18793831 233.23730974 0.19778245 237.22265864 0.20751953 241.20800781 C0.2094609 242.00141286 0.21140228 242.7948179 0.21340248 243.61226553 C0.24441631 256.4558449 0.2614014 269.2994064 0.27319422 282.14301616 C0.28560899 295.32357038 0.31311772 308.5040309 0.35461307 321.68452597 C0.3797392 329.81640784 0.39311793 337.9481343 0.39142957 346.08005553 C0.39139628 352.31758891 0.41237217 358.55489142 0.44116783 364.79235458 C0.44968941 367.34972153 0.45140153 369.9071216 0.44580269 372.46449661 C0.43917571 375.95653641 0.4570542 379.4476306 0.48101807 382.9395752 C0.47325765 383.95126471 0.46549723 384.96295423 0.45750165 386.005301 C0.54772236 393.43342059 2.05127638 398.97158115 7.3125 404.375 C18.61497774 411.20905631 30.69057348 407.30801747 43 405 C43 415.89 43 426.78 43 438 C36.43845273 441.28077363 31.09749353 443.90687593 24.1875 445.625 C23.37039551 445.82955811 22.55329102 446.03411621 21.71142578 446.24487305 C-3.07101561 452.21538133 -32.08242405 454.6852033 -57 448 C-58.03769531 447.73316406 -59.07539062 447.46632813 -60.14453125 447.19140625 C-78.87595493 441.66772299 -92.7093937 430.93894084 -102.69140625 414.15625 C-109.67031851 401.14293991 -112.16419148 387.13598105 -112.12025452 372.47743225 C-112.12110894 371.43014543 -112.12196337 370.3828586 -112.12284368 369.30383581 C-112.12448818 365.80157941 -112.11899396 362.29937111 -112.11352539 358.79711914 C-112.11324327 356.28380332 -112.11340174 353.77048741 -112.1139679 351.25717163 C-112.11419547 345.84975131 -112.11136268 340.44234642 -112.10573006 335.03492928 C-112.09759162 327.21678266 -112.09499743 319.39864187 -112.09374207 311.58049148 C-112.09155523 298.89504764 -112.08490513 286.20961026 -112.07543945 273.52416992 C-112.06625581 261.20385775 -112.05917963 248.88354733 -112.05493164 236.56323242 C-112.05466892 235.80338761 -112.05440619 235.04354281 -112.05413551 234.2606724 C-112.05283044 230.44862868 -112.05156674 226.63658495 -112.05032361 222.82454121 C-112.03996246 191.21635608 -112.02227965 159.60817904 -112 128 C-113.67340454 128.00785522 -113.67340454 128.00785522 -115.38061523 128.01586914 C-119.50479333 128.03391775 -123.62896791 128.04543149 -127.75317383 128.05493164 C-129.54094021 128.05997218 -131.32870245 128.06680454 -133.11645508 128.07543945 C-135.68051168 128.0875173 -138.24451397 128.09323094 -140.80859375 128.09765625 C-142.01484657 128.10539818 -142.01484657 128.10539818 -143.24546814 128.11329651 C-145.16401715 128.11349215 -147.08245368 128.06201983 -149 128 C-152.08654939 124.91345061 -151.04535685 116.52155488 -151.13647461 112.4206543 C-150.96627575 107.08367626 -150.72831711 103.02579335 -147.03125 98.97265625 C-143.70965915 96.0816896 -140.05573517 93.73104138 -136.30078125 91.44335938 C-132.52434468 89.07427056 -129.07177965 86.30489162 -125.5625 83.5625 C-124.14111697 82.48242518 -122.71923887 81.40300157 -121.296875 80.32421875 C-116.14707288 76.37501999 -111.15780451 72.23864204 -106.16650391 68.09228516 C-101.25287144 64.01482228 -96.27375135 60.03731328 -91.23754883 56.11279297 C-86.77871303 52.63101826 -82.38238341 49.07739167 -78 45.5 C-73.06057488 41.46788856 -68.09169096 37.48204483 -63.0625 33.5625 C-55.570686 27.71696604 -48.25659011 21.66046298 -40.9375 15.60107422 C-37.43554023 12.70719163 -33.91461469 9.83664041 -30.39453125 6.96484375 C-21.90656064 0 -21.90656064 0 0 0 Z " fill="#000000" transform="translate(1172,822)"/>
<path d="M0 0 C47.52 0 95.04 0 144 0 C144 104.94 144 209.88 144 318 C154.89 318 165.78 318 177 318 C177 329.22 177 340.44 177 352 C118.59 352 60.18 352 0 352 C0 340.78 0 329.56 0 318 C10.56 318 21.12 318 32 318 C32 223.95 32 129.9 32 33 C21.44 33 10.88 33 0 33 C0 22.11 0 11.22 0 0 Z " fill="#000000" transform="translate(1246,917)"/>
<path d="M0 0 C9.05621849 7.92237412 16.32699268 17.85925747 17.65478516 30.18164062 C18.47228839 45.47416916 15.55555174 57.16622414 5.76171875 69.1796875 C-2.99590533 78.81681656 -15.10342274 84.15780604 -27.56640625 87.12890625 C-28.45972656 87.35320312 -29.35304688 87.5775 -30.2734375 87.80859375 C-51.83310389 92.31175726 -76.62541393 89.64531728 -95.66796875 78.27734375 C-106.45116397 70.82119499 -115.49882744 60.76350984 -118.28515625 47.58203125 C-120.00013579 32.62359858 -117.89615754 19.7344271 -108.62890625 7.58984375 C-84.09411021 -21.41379014 -29.20343793 -22.86807101 0 0 Z " fill="#000000" transform="translate(1385.56640625,786.87109375)"/>
<path d="M0 0 C169.62 0 339.24 0 514 0 C514 5.94 514 11.88 514 18 C344.38 18 174.76 18 0 18 C0 12.06 0 6.12 0 0 Z " fill="#000000" transform="translate(3304,1251)"/>
<path d="M0 0 C5.33522059 0.46087313 8.56798917 1.61101983 12.94140625 4.67578125 C14.01970703 5.42150391 15.09800781 6.16722656 16.20898438 6.93554688 C17.32707571 7.72750781 18.44491242 8.51982835 19.5625 9.3125 C20.68340856 10.09429928 21.80514779 10.87490899 22.92773438 11.65429688 C25.00101085 13.09727745 27.07055804 14.54564269 29.13500977 16.0012207 C31.15478324 17.41032896 33.20259206 18.77966405 35.26904297 20.11938477 C46.53637257 27.87839066 48.73717665 53.50231083 51.1184082 65.99414062 C56.31512167 94.69784666 60.94061457 124.78869204 60 154 C55.0140766 152.50422298 50.58063924 150.42501353 46 148 C45.26031982 147.60844727 44.52063965 147.21689453 43.75854492 146.81347656 C36.38499693 142.81496056 29.62820861 138.12604097 23 133 C21.980271 132.43861328 20.96054199 131.87722656 19.90991211 131.29882812 C16.55587556 128.45699457 16.36042399 125.56989778 15.89160156 121.31152344 C15.67497805 118.49594386 15.53010223 115.67967084 15.390625 112.859375 C15.29440933 111.33441337 15.19562605 109.80961181 15.09442139 108.28497314 C14.83375434 104.25818357 14.60655442 100.23019035 14.38677979 96.20098877 C14.16331268 92.19662969 13.91113173 88.19411938 13.66015625 84.19140625 C13.32132684 78.74407802 12.98614157 73.29655776 12.6578598 67.84858322 C12.48109676 64.91712023 12.30265776 61.98576008 12.12423706 59.05439758 C12.00562229 57.09297081 11.88958773 55.13138851 11.77368164 53.1697998 C10.72012356 35.60715347 10.72012356 35.60715347 6 18.75 C5.64421875 17.76 5.2884375 16.77 4.921875 15.75 C3.65684324 12.25700184 2.34185275 8.80054502 0.8828125 5.38378906 C0 3 0 3 0 0 Z " fill="#000000" transform="translate(3701,1012)"/>
<path d="M0 0 C3.67689348 1.50719507 5.6763138 3.63470991 8.25 6.625 C12.32684572 11.27652546 16.57356543 15.6821156 21 20 C17.30245494 24.9725606 12.97526947 28.59427162 8.1484375 32.45703125 C4.76479437 35.16928273 1.47313262 37.98283646 -1.8125 40.8125 C-2.39652588 41.31499268 -2.98055176 41.81748535 -3.58227539 42.33520508 C-4.78022038 43.36638278 -5.97789054 44.39787983 -7.17529297 45.4296875 C-9.63369608 47.5453483 -12.09833104 49.65367711 -14.56347656 51.76147461 C-16.33293964 53.27648795 -18.09822026 54.79626887 -19.86328125 56.31640625 C-21.71849902 57.91174916 -23.58547678 59.47852354 -25.48046875 61.02734375 C-33.25817279 67.46255479 -36.41647798 74.83295596 -41 84 C-53.87 84 -66.74 84 -80 84 C-77.69502246 70.17013478 -66.74851519 59.41101281 -56 51 C-54.32081723 49.8213938 -52.63296193 48.65506545 -50.9375 47.5 C-47.09254656 44.87016925 -43.88444494 42.08596058 -40.6796875 38.71875 C-39.0273609 37.0279972 -37.30842475 35.52125 -35.5 34 C-31.28465754 30.37744007 -27.40809464 26.44640459 -23.5 22.5 C-19.05804708 18.0145465 -14.61276103 13.63678623 -9.78515625 9.5625 C-6.350618 6.55633961 -3.187576 3.26387436 0 0 Z " fill="#000000" transform="translate(3608,1124)"/>
<path d="M0 0 C-1.45188594 3.35043397 -3.2819659 5.50486196 -5.88671875 8.046875 C-7.0478418 9.1915625 -7.0478418 9.1915625 -8.23242188 10.359375 C-9.04259766 11.14828125 -9.85277344 11.9371875 -10.6875 12.75 C-15.21639375 17.17923594 -19.69007849 21.55877414 -23.765625 26.4140625 C-26.30349562 29.37020705 -28.41473921 31.11039885 -32.0625 32.625 C-38.26244306 35.65248251 -42.39872428 40.19892279 -46.78930664 45.41455078 C-50.76929164 49.81641537 -50.76929164 49.81641537 -53.95581055 50.29174805 C-56.38833108 50.07416469 -58.62793594 49.58548425 -61 49 C-62.0405957 48.77868408 -63.08119141 48.55736816 -64.15332031 48.3293457 C-67.63440213 47.57511131 -71.09787898 46.76387059 -74.5625 45.9375 C-75.76197266 45.65583984 -76.96144531 45.37417969 -78.19726562 45.08398438 C-81.1326468 44.39399438 -84.06680871 43.69922991 -87 43 C-85.95508331 37.02992403 -83.1672363 34.26528892 -79 30 C-78.44570312 29.40960937 -77.89140625 28.81921875 -77.3203125 28.2109375 C-71.00694088 22.06592246 -62.94604515 18.57101826 -55 15 C-53.73990112 14.42197632 -53.73990112 14.42197632 -52.4543457 13.83227539 C-44.21402887 10.20875751 -35.76074857 7.72437837 -27.09838867 5.3503418 C-24.6706571 4.68286927 -22.24847169 3.99743858 -19.82617188 3.31054688 C-18.26332034 2.87652424 -16.70017892 2.44354378 -15.13671875 2.01171875 C-14.42303635 1.80866623 -13.70935394 1.60561371 -12.9740448 1.39640808 C-8.46949193 0.17973048 -4.61374764 -0.19391823 0 0 Z " fill="#000000" transform="translate(3403,875)"/>
</svg>
