<?xml version="1.0" encoding="UTF-8"?>
<svg version="1.1" xmlns="http://www.w3.org/2000/svg" width="2560" height="910">
<path d="M0 0 C33.33387692 -0.06888601 66.66773593 -0.12163979 100.00166839 -0.15319599 C103.95008699 -0.15694745 107.89850544 -0.16083048 111.84692383 -0.16479492 C112.63287898 -0.16558185 113.41883414 -0.16636878 114.22860611 -0.16717956 C126.90229711 -0.18018167 139.57594668 -0.20380637 152.24961322 -0.23145839 C165.28442439 -0.25965808 178.31921409 -0.27620678 191.35405451 -0.28226548 C199.37688083 -0.28635198 207.39958997 -0.29918834 215.42238016 -0.3237494 C221.60691663 -0.34170147 227.79136649 -0.3433294 233.97592545 -0.33932304 C236.48908388 -0.34013898 239.00224733 -0.34597837 241.51537895 -0.35761642 C287.6823927 -0.56067132 333.11487197 9.19804424 374 31 C374.64888184 31.34111816 375.29776367 31.68223633 375.96630859 32.03369141 C391.99485359 40.50778304 406.47255486 50.95685226 420 63 C420.51401367 63.4522998 421.02802734 63.90459961 421.55761719 64.37060547 C440.72645045 81.27686824 456.12743998 101.38127434 468 124 C468.64727051 125.23073242 468.64727051 125.23073242 469.30761719 126.48632812 C498.67372381 183.20386441 501.32661701 250.68452164 482.58984375 311.09716797 C469.79211194 350.56924196 445.19552765 389.39851967 413 416 C411.66001953 417.18916016 411.66001953 417.18916016 410.29296875 418.40234375 C366.55015124 457.0239129 308.67177623 477.44802071 250.64501953 477.31567383 C247.7668648 477.31251849 244.88974727 477.33606505 242.01171875 477.36132812 C225.97058503 477.41587933 210.63089164 475.53377916 195 472 C195.00276538 472.81592401 195.00553076 473.63184801 195.00837994 474.47249699 C195.07480708 494.38104095 195.12436169 514.28956566 195.15543652 534.19819736 C195.17086581 543.82610126 195.19187951 553.4539309 195.22631836 563.08178711 C195.25634185 571.47931421 195.27560357 579.87678751 195.28226548 588.2743668 C195.28615593 592.71548088 195.29521566 597.15644109 195.31719017 601.59750557 C195.3377606 605.78931102 195.34379292 609.98090124 195.33932304 614.17275238 C195.34013916 615.70000572 195.34598117 617.22726731 195.35761642 618.75447655 C195.49028126 637.08824943 192.38974941 655.08554553 181 670 C180.09894531 671.22203125 180.09894531 671.22203125 179.1796875 672.46875 C168.2612952 685.14817332 151.91688367 689.08822944 136 691 C131.67928126 691.2454864 127.37631291 691.25477704 123.04956055 691.22705078 C121.82846588 691.22734283 120.60737122 691.22763489 119.34927368 691.22793579 C116.04635957 691.22679284 112.74362177 691.21686132 109.44074225 691.20278788 C105.97212495 691.19016425 102.50350307 691.18910096 99.03486633 691.18673706 C92.48685437 691.18055609 85.93891033 691.1641918 79.39092809 691.14403808 C71.92765852 691.12157285 64.46438545 691.11065912 57.00109041 691.10064721 C41.66735447 691.07982199 26.33368604 691.04471288 11 691 C10.99928786 690.44736385 10.99857571 689.89472769 10.99784199 689.32534499 C10.92024573 629.13610763 10.84143836 568.94687192 10.7563324 508.75764465 C10.75506072 507.85803571 10.75378904 506.95842677 10.75247882 506.03155695 C10.7248321 486.47890041 10.69696898 466.92624419 10.66888306 447.37358828 C10.65511031 437.7844593 10.64138537 428.19533025 10.62768555 418.60620117 C10.62632146 417.65198627 10.62495738 416.69777137 10.62355196 415.71464086 C10.57938978 384.80629187 10.53838177 353.89793966 10.49901587 322.98958421 C10.45853316 291.2174777 10.4148555 259.44537713 10.36717889 227.67328056 C10.3604407 223.18190442 10.35373889 218.69052822 10.34705925 214.19915199 C10.34574352 213.31521672 10.34442779 212.43128145 10.3430722 211.52056026 C10.32201748 197.31274583 10.3043137 183.10492912 10.28787469 168.89710868 C10.27126123 154.6006862 10.25108973 140.30427221 10.22733159 126.00785979 C10.21333715 117.52241517 10.20202554 109.03697709 10.19463562 100.5515241 C10.18941883 94.87110612 10.18062151 89.19070069 10.16901226 83.5102922 C10.16251299 80.28147961 10.15802406 77.05268789 10.15683801 73.82386842 C10.15196095 62.67351202 10.13250537 51.53564923 9.56823635 40.39723682 C9.5317033 39.66747412 9.49517025 38.93771141 9.45753014 38.18583469 C8.72402444 25.64024372 6.34664406 14.42412436 1 3 C0.67 2.01 0.34 1.02 0 0 Z M198.69140625 186.18359375 C184.65068548 200.87642347 179.47277591 218.69793244 179.65283203 238.57202148 C180.11197536 257.21901786 187.76335885 273.82236319 201 287 C215.55031578 299.60600046 233.57391034 306.21336704 252.77734375 305.375 C271.53013808 303.99580115 288.32734429 295.78860599 301 282 C314.27143872 266.50165885 319.33763177 248.44394894 318.20703125 228.3515625 C316.63718821 210.52051516 308.05862881 193.29838029 294.41113281 181.64306641 C265.19266798 158.59020779 225.33485315 160.11088824 198.69140625 186.18359375 Z " fill="#51227E" transform="translate(540,219)"/>
<path d="M0 0 C2.48641449 0.00084901 4.97282972 0.0003658 7.45924377 -0.00132751 C12.7534467 -0.00200338 18.04751027 0.00631981 23.34167671 0.023386 C30.99559337 0.04804263 38.6494568 0.05560808 46.30340885 0.05934998 C58.7293216 0.06587334 71.15517439 0.08572106 83.58105469 0.11425781 C95.63280951 0.14190613 107.68454788 0.16308655 119.73632812 0.17578125 C120.48248292 0.17656942 121.22863772 0.17735759 121.99740327 0.17816965 C125.74162327 0.1820855 129.48584337 0.18587645 133.23006356 0.18960536 C164.16310352 0.22057272 195.09606891 0.27352145 226.02905273 0.34057617 C226.03078898 1.21284542 226.03252523 2.08511467 226.0343141 2.98381633 C226.13745856 54.7412326 226.2455956 106.4986364 226.36016968 158.25602869 C226.3739384 164.47781462 226.38766562 170.69960064 226.40136719 176.92138672 C226.40409549 178.15997394 226.4068238 179.39856117 226.40963478 180.67468134 C226.45364738 200.70025495 226.49430245 220.72583403 226.53370535 240.75141718 C226.57424518 261.3166226 226.61841953 281.88181793 226.66593128 302.44700843 C226.69510859 315.12534602 226.72148881 327.80368298 226.74423171 340.48203377 C226.76012329 349.18925798 226.77956175 357.8964699 226.80172115 366.60368039 C226.81438179 371.61881611 226.82554414 376.63394262 226.83247185 381.64908981 C226.34891812 414.84784151 226.34891812 414.84784151 229.27905273 447.84057617 C229.40328613 448.65389404 229.52751953 449.46721191 229.65551758 450.30517578 C230.84574008 457.42749542 233.08426739 463.74129102 236.02905273 470.34057617 C236.35905273 471.33057617 236.68905273 472.32057617 237.02905273 473.34057617 C205.06245995 473.38633718 173.09587661 473.42166526 141.12925866 473.44270683 C137.3434966 473.44520783 133.55773461 473.44779652 129.77197266 473.45043945 C129.01838964 473.45096407 128.26480663 473.45148869 127.48838777 473.45202921 C115.33391281 473.4606992 103.17945704 473.47645011 91.02499341 473.49488176 C78.52581638 473.51367612 66.0266493 473.5247129 53.52745873 473.52875316 C45.83324532 473.53147859 38.13908617 473.5400424 30.44488949 473.55640911 C24.51542016 473.56836886 18.5859777 473.56946375 12.65649605 473.56679153 C10.2457051 473.56733587 7.83491184 473.5712341 5.4241333 473.57898712 C-13.79798613 473.63770429 -32.99622291 472.91509382 -51.97094727 469.59057617 C-53.44446655 469.33570435 -53.44446655 469.33570435 -54.94775391 469.07568359 C-115.5176165 458.15309083 -173.16945602 426.42036597 -209.97094727 376.34057617 C-210.83011719 375.19979669 -211.68949274 374.05917205 -212.54907227 372.91870117 C-218.82325235 364.48134077 -224.04968715 355.62176165 -228.97094727 346.34057617 C-229.31367676 345.7042627 -229.65640625 345.06794922 -230.00952148 344.41235352 C-245.72387646 315.08240136 -254.91843916 281.59180912 -255.20922852 248.25073242 C-255.21902237 247.31669083 -255.22881622 246.38264923 -255.23890686 245.42030334 C-255.40848978 225.05674012 -255.30380096 205.33146667 -250.97094727 185.34057617 C-250.76195801 184.33559082 -250.55296875 183.33060547 -250.33764648 182.29516602 C-241.34426586 139.96901587 -220.74280891 103.37797923 -190.97094727 72.34057617 C-190.18848633 71.51686523 -189.40602539 70.6931543 -188.59985352 69.84448242 C-174.80048129 55.65154521 -158.18719383 44.01332298 -140.97094727 34.34057617 C-140.26518555 33.93983887 -139.55942383 33.53910156 -138.83227539 33.1262207 C-115.43756051 19.9525477 -89.86526444 10.99982035 -63.59594727 5.59057617 C-62.70214355 5.40398437 -61.80833984 5.21739258 -60.88745117 5.02514648 C-40.6884836 1.1219982 -20.53124608 -0.1001824 0 0 Z M-62.39672852 188.33276367 C-77.10101875 205.51380082 -80.32575261 225.40635336 -78.97094727 247.34057617 C-76.94232325 263.97389886 -67.39428532 279.06725865 -54.97094727 289.96557617 C-39.61372567 301.94548347 -22.34690553 306.73824905 -2.97094727 305.34057617 C15.58395843 302.81569976 31.80440827 294.61310979 44.02905273 280.34057617 C56.68011149 263.29987129 61.26784177 244.40049574 58.52514648 223.50073242 C56.03888107 210.64318842 51.11829271 200.56911928 43.02905273 190.34057617 C42.28655273 189.30932617 41.54405273 188.27807617 40.77905273 187.21557617 C27.06279973 172.87585712 8.77712583 165.91307174 -10.81469727 165.27807617 C-30.62486548 165.2034616 -48.87012441 174.16938648 -62.39672852 188.33276367 Z " fill="#51227E" transform="translate(254.970947265625,218.659423828125)"/>
<path d="M0 0 C0.83128418 0.20963379 1.66256836 0.41926758 2.51904297 0.63525391 C39.33911683 10.18392149 73.60944064 29.48591735 101.29296875 55.48046875 C103.52433044 57.55727725 105.7917236 59.54079597 108.125 61.5 C145.08888252 93.73860269 166.2455729 143.01504976 176 190 C176.18224121 190.87027832 176.36448242 191.74055664 176.55224609 192.63720703 C181.99200801 220.25820709 181.7230449 253.45945329 176 281 C175.70198486 282.47243164 175.70198486 282.47243164 175.39794922 283.97460938 C166.47490986 326.8854054 147.26639257 367.96756037 117 400 C115.82770322 401.34929564 114.66084179 402.70333672 113.5 404.0625 C106.34099174 412.23953237 98.49294182 419.23956985 90 426 C89.20980469 426.65742187 88.41960938 427.31484375 87.60546875 427.9921875 C75.72824758 437.80123583 62.61266751 445.8448568 49 453 C48.25105469 453.39687012 47.50210938 453.79374023 46.73046875 454.20263672 C23.69352736 466.24163532 -1.32822524 474.0900785 -27 478 C-28.155 478.18256348 -29.31 478.36512695 -30.5 478.55322266 C-42.07634898 480.20803935 -53.56883972 480.39973101 -65.25 480.375 C-66.26267944 480.37412384 -67.27535889 480.37324768 -68.31872559 480.37234497 C-134.58439058 480.18371197 -194.96709818 453.96109828 -241.8125 407.4375 C-247.94989562 401.25069113 -253.76616511 394.98151263 -259 388 C-259.47324707 387.38141113 -259.94649414 386.76282227 -260.43408203 386.12548828 C-291.90991994 344.83976248 -309.35702327 294.85645302 -311 243 C-311.04125 241.84242188 -311.0825 240.68484375 -311.125 239.4921875 C-312.01206142 189.92763066 -298.18735855 137.46429254 -269 97 C-268.35546875 96.08347656 -267.7109375 95.16695313 -267.046875 94.22265625 C-253.96405694 75.86035452 -238.7110657 58.97495304 -221 45 C-220.02417969 44.20722656 -219.04835938 43.41445313 -218.04296875 42.59765625 C-157.28953821 -5.77582995 -74.26239172 -18.85404169 0 0 Z M-109 180 C-109.69867187 180.53367187 -110.39734375 181.06734375 -111.1171875 181.6171875 C-124.87086608 192.80208564 -132.59685352 209.71420956 -135 227 C-136.20399776 247.0139955 -132.36275032 265.335288 -119.07104492 280.90673828 C-106.49986289 294.81556329 -89.88155999 304.05973754 -71 305.31640625 C-51.26211558 306.12755218 -33.26785179 300.0033012 -18.19921875 287.1015625 C-4.78730193 274.28520149 2.83657317 257.15491947 3.3984375 238.72485352 C3.65768931 218.56640498 -1.74171593 200.80508164 -15.7890625 186.01074219 C-29.13826787 172.63395581 -46.99948587 165.37842215 -65.84765625 164.90234375 C-81.90773907 164.99010377 -96.37229112 170.11186186 -109 180 Z " fill="#51227E" transform="translate(2381,219)"/>
<path d="M0 0 C8.29326909 7.58431643 15.72285513 15.63959785 22.64501953 24.50439453 C23.42232422 25.46474609 24.19962891 26.42509766 25.00048828 27.41455078 C51.0298608 60.14783164 67.28701941 99.27223685 73.64501953 140.50439453 C73.82307129 141.63699707 74.00112305 142.76959961 74.18457031 143.93652344 C75.81005329 155.37591439 76.04398356 166.71172179 76.02001953 178.25439453 C76.0192038 179.7364035 76.0192038 179.7364035 76.01837158 181.24835205 C75.956442 205.79575354 72.7965233 228.96746965 65.64501953 252.50439453 C65.39413574 253.3380957 65.14325195 254.17179687 64.88476562 255.03076172 C53.25538513 292.79820318 31.57028875 325.05052932 4.64501953 353.50439453 C4.00693359 354.18501953 3.36884766 354.86564453 2.71142578 355.56689453 C-2.23680926 360.69312363 -7.80238882 365.05614309 -13.35498047 369.50439453 C-14.14775391 370.16439453 -14.94052734 370.82439453 -15.75732422 371.50439453 C-46.7171171 397.05523857 -85.21541422 412.97272687 -124.35498047 420.50439453 C-125.23605469 420.68228516 -126.11712891 420.86017578 -127.02490234 421.04345703 C-154.43783809 426.36964038 -187.02369946 426.14917385 -214.35498047 420.50439453 C-215.8295874 420.20637939 -215.8295874 420.20637939 -217.33398438 419.90234375 C-254.52699239 412.1670788 -290.93215223 396.88330936 -320.35498047 372.50439453 C-320.88639648 372.06772461 -321.4178125 371.63105469 -321.96533203 371.18115234 C-332.73569014 362.31332341 -343.42134991 353.25925878 -352.35498047 342.50439453 C-353.16193359 341.58529297 -353.96888672 340.66619141 -354.80029297 339.71923828 C-399.24391395 288.91961488 -416.95860061 223.32583735 -413.14404297 156.82714844 C-408.32208671 94.46135438 -377.54041554 34.78131329 -330.40576172 -6.18994141 C-326.4947147 -9.43889818 -322.45108943 -12.48479033 -318.35498047 -15.49560547 C-317.41267578 -16.20974609 -316.47037109 -16.92388672 -315.49951172 -17.65966797 C-238.43491182 -75.26351032 -127.92867913 -80.21222847 0 0 Z M-219.67529297 130.38330078 C-226.72405849 139.28441631 -231.97540506 148.62727367 -235.35498047 159.50439453 C-235.72236328 160.67615234 -235.72236328 160.67615234 -236.09716797 161.87158203 C-240.61515268 179.75785028 -236.99267896 199.14479351 -228.47216797 215.18017578 C-224.77926479 220.97844259 -220.25659518 225.71710319 -215.35498047 230.50439453 C-214.69755859 231.18244141 -214.04013672 231.86048828 -213.36279297 232.55908203 C-201.97120113 243.55954625 -184.82559579 248.80227736 -169.22998047 248.94189453 C-149.88738446 248.37410796 -132.8663103 241.3266527 -118.60498047 228.31689453 C-105.02212403 213.68660389 -98.78458031 195.08499204 -99.10498047 175.34033203 C-100.42141789 155.14124533 -109.57397898 137.17458852 -124.6796875 123.86621094 C-152.42027444 101.31637212 -195.32869407 104.15922784 -219.67529297 130.38330078 Z " fill="#51227E" transform="translate(1474.35498046875,275.49560546875)"/>
<path d="M0 0 C62.37 0 124.74 0 189 0 C189.01981934 19.65675293 189.03963867 39.31350586 189.06005859 59.56591797 C189.07358452 72.69261699 189.08714383 85.81931591 189.10116577 98.9460144 C189.10205564 99.7799767 189.1029455 100.61393899 189.10386233 101.47317286 C189.13386127 129.55439415 189.16657554 157.63561159 189.20132446 185.71682739 C189.20245809 186.63349124 189.20359171 187.55015509 189.20475969 188.49459664 C189.22941286 208.41761976 189.25450582 228.3406423 189.28005161 248.2636643 C189.29257713 258.03433729 189.30500551 267.80501041 189.31738281 277.57568359 C189.3192328 279.03410925 189.3192328 279.03410925 189.32112016 280.52199806 C189.36102848 312.01935725 189.39452545 343.51671928 189.42468691 375.01408919 C189.45572348 407.38989233 189.49324964 439.76568165 189.53890612 472.14146763 C189.54535623 476.71749206 189.55173239 481.29351658 189.55806351 485.86954117 C189.55931181 486.77014167 189.56056012 487.67074217 189.56184625 488.59863359 C189.58172604 503.0781569 189.59479322 517.55767867 189.60529328 532.03721148 C189.61600322 546.60471425 189.63393678 561.1721941 189.65916704 575.73967908 C189.67392731 584.38753234 189.68322583 593.03535052 189.68456683 601.68321649 C189.68601167 607.4706215 189.69471872 613.25798714 189.70915592 619.04537422 C189.7171623 622.33612856 189.72106643 625.62679166 189.71827881 628.91755687 C189.55198698 660.35890518 189.55198698 660.35890518 199 690 C199 690.66 199 691.32 199 692 C181.33519948 692.0704192 163.67044343 692.12314802 146.00553417 692.15543652 C137.80141159 692.17083433 129.59737676 692.19178634 121.39331055 692.22631836 C114.2336161 692.25643984 107.07398528 692.27562632 99.91422921 692.28226548 C96.13137536 692.2861397 92.34870336 692.29509203 88.56590843 692.31719017 C36.51310853 692.6090813 36.51310853 692.6090813 17.3125 674.75 C-0.72914587 655.66668867 -0.4526298 628.41219744 -0.36076355 603.91818237 C-0.36207375 601.30402219 -0.36470409 598.6898624 -0.36853105 596.07570469 C-0.37470863 590.41969826 -0.36989637 584.76378717 -0.35761642 579.1077919 C-0.33940817 570.69773492 -0.33861852 562.28773723 -0.34124239 553.87766413 C-0.34517185 539.72623378 -0.33520658 525.57484565 -0.31719017 511.42342758 C-0.29940992 497.4214647 -0.28788645 483.41951941 -0.28463173 469.41754532 C-0.28442551 468.54538416 -0.28421929 467.673223 -0.28400682 466.77463272 C-0.28299176 462.3449657 -0.28208763 457.91529866 -0.2812262 453.4856316 C-0.27493299 422.14942604 -0.25474339 390.81324343 -0.22631836 359.47705078 C-0.19874403 329.04345827 -0.1775035 298.60987204 -0.16479492 268.17626953 C-0.16440034 267.23738178 -0.16400576 266.29849402 -0.16359923 265.33115513 C-0.15964351 255.90204638 -0.15581609 246.47293758 -0.15208265 237.04382874 C-0.14447499 217.83741585 -0.13601124 198.63100336 -0.12702942 179.42459106 C-0.12661755 178.54160426 -0.12620568 177.65861746 -0.12578133 176.74887348 C-0.11311769 149.6965017 -0.09682717 122.6441338 -0.07695007 95.59176636 C-0.0763874 94.82405455 -0.07582473 94.05634274 -0.075245 93.26536694 C-0.05240449 62.17690951 -0.0257191 31.08845514 0 0 Z " fill="#52227F" transform="translate(1591,0)"/>
<path d="M0 0 C62.37 0 124.74 0 189 0 C189.02505615 19.28800049 189.0501123 38.57600098 189.07592773 58.44848633 C189.09280358 71.32924918 189.10969586 84.210012 189.1268158 97.09077454 C189.12790299 97.90912512 189.12899019 98.72747571 189.13011033 99.57062479 C189.16673819 127.12787005 189.2047024 154.6851133 189.2436676 182.24235535 C189.24493928 183.14196429 189.24621096 184.04157323 189.24752118 184.96844305 C189.2751679 204.52109959 189.30303102 224.07375581 189.33111694 243.62641172 C189.34488969 253.2155407 189.35861463 262.80466975 189.37231445 272.39379883 C189.37436058 273.82512118 189.37436058 273.82512118 189.37644804 275.28535914 C189.42061022 306.19370813 189.46161823 337.10206034 189.50098413 368.01041579 C189.54146684 399.7825223 189.5851445 431.55462287 189.63282111 463.32671944 C189.6395593 467.81809558 189.64626111 472.30947178 189.65294075 476.80084801 C189.65425648 477.68478328 189.65557221 478.56871855 189.6569278 479.47943974 C189.67798252 493.68725417 189.6956863 507.89507088 189.71212531 522.10289132 C189.72873877 536.3993138 189.74891027 550.69572779 189.77266841 564.99214021 C189.78666285 573.47758483 189.79797446 581.96302291 189.80536438 590.4484759 C189.81058117 596.12889388 189.81937849 601.80929931 189.83098774 607.4897078 C189.83748701 610.71852039 189.84197594 613.94731211 189.84316199 617.17613158 C189.56691387 642.90224099 189.56691387 642.90224099 192.25 668.4375 C192.3742334 669.168479 192.4984668 669.89945801 192.62646484 670.65258789 C193.83884999 677.18296776 196.15341685 683.00988799 199 689 C199.33 689.99 199.66 690.98 200 692 C182.11845136 692.04686265 164.23691881 692.08205841 146.35532188 692.10362434 C138.05131341 692.11390697 129.74734325 692.1279092 121.44335938 692.15087891 C114.19984587 692.17090557 106.95636012 692.1837383 99.7128197 692.18817699 C95.88266282 692.19076877 92.05258533 692.19679662 88.22245407 692.21146011 C84.606043 692.22519119 80.98974285 692.22919184 77.37330818 692.22621536 C75.43652545 692.22701471 73.49975436 692.2376941 71.56300354 692.24884033 C52.4800881 692.20470789 33.63898546 688.97955032 18.828125 676.11328125 C10.30192426 667.43836771 5.25376356 655.78339022 2.5625 644.0625 C2.33481934 643.08228882 2.33481934 643.08228882 2.10253906 642.08227539 C-1.13116361 625.98097083 -0.14104783 608.82303485 -0.12025452 592.4940033 C-0.1206912 589.93020462 -0.1215679 587.36640599 -0.12284368 584.8026076 C-0.12490366 579.25356848 -0.12329738 573.70454017 -0.11920547 568.15550232 C-0.11313812 559.90445382 -0.11287266 551.65341204 -0.11374746 543.40236172 C-0.11505753 529.51874199 -0.11173458 515.63512705 -0.10573006 501.75150871 C-0.09980396 488.01387445 -0.09596228 474.27624218 -0.09487724 460.53860664 C-0.0948085 459.68301291 -0.09473976 458.82741917 -0.09466894 457.94589835 C-0.09433059 453.60040289 -0.09402921 449.25490744 -0.09374207 444.90941197 C-0.09164415 414.16608775 -0.08491378 383.42276612 -0.07543945 352.67944336 C-0.06624849 322.82104506 -0.05916808 292.96264748 -0.05493164 263.10424805 C-0.05480011 262.18315744 -0.05466859 261.26206683 -0.05453308 260.31306438 C-0.05321451 251.06271677 -0.0519387 241.81236916 -0.05069422 232.56202153 C-0.04815831 213.71961608 -0.04533706 194.87721068 -0.04234314 176.0348053 C-0.04220585 175.16854707 -0.04206856 174.30228885 -0.04192711 173.40978037 C-0.03770577 146.86912878 -0.03227553 120.32847764 -0.02565002 93.78782654 C-0.02546247 93.03461456 -0.02527491 92.28140258 -0.02508167 91.50536599 C-0.01746804 61.00357713 -0.00857299 30.50178861 0 0 Z " fill="#52227E" transform="translate(1841,0)"/>
</svg>
