<?xml version="1.0" encoding="UTF-8"?>
<svg version="1.1" xmlns="http://www.w3.org/2000/svg" width="1200" height="414">
<path d="M0 0 C396 0 792 0 1200 0 C1200 136.62 1200 273.24 1200 414 C804 414 408 414 0 414 C0 277.38 0 140.76 0 0 Z " fill="#203F99" transform="translate(0,0)"/>
<path d="M0 0 C2.46995813 0.01615952 4.93829206 -0.00001363 7.40820312 -0.01904297 C46.34793366 -0.07457182 84.73618944 15.05185288 114.83789062 39.39111328 C115.38364746 39.83003906 115.9294043 40.26896484 116.49169922 40.72119141 C123.44703471 46.3575805 129.95295669 52.30459697 136.08789062 58.82861328 C136.91148071 59.69715942 136.91148071 59.69715942 137.75170898 60.58325195 C140.5905909 63.67968192 142.58164154 66.29298365 143.83789062 70.39111328 C131.23543161 83.16647189 131.23543161 83.16647189 126.83789062 86.89111328 C122.51764423 90.55233904 118.60428255 94.59886037 114.6262207 98.62231445 C111.1045823 102.16859047 107.50011702 105.53430008 103.68164062 108.76220703 C100.82960057 111.28191191 98.22208425 114.03409037 95.59960938 116.78955078 C93.83789063 118.39111328 93.83789063 118.39111328 90.83789062 119.39111328 C90.40669922 118.93897461 89.97550781 118.48683594 89.53125 118.02099609 C65.5711452 93.06149939 39.13251296 74.8652182 3.27880859 74.03759766 C-20.84859867 73.86500687 -41.63869793 80.70519516 -60.16210938 96.39111328 C-60.77699219 96.86033203 -61.391875 97.32955078 -62.02539062 97.81298828 C-78.10514388 110.38107128 -87.24209885 133.10294273 -89.84179688 152.76611328 C-92.08594885 178.16334539 -86.9210939 204.14884153 -70.69335938 224.48486328 C-55.04905096 242.69742658 -32.99581619 253.81170778 -9.16210938 256.39111328 C22.66637408 258.32619257 48.79863859 249.21015398 72.83789062 228.39111328 C79.02055527 222.91607867 85.07755865 217.31145448 90.83789062 211.39111328 C94.81876227 212.9928911 97.49282236 215.77341922 100.45117188 218.77392578 C100.98381149 219.30702362 101.51645111 219.84012146 102.06523132 220.38937378 C103.19128984 221.51844846 104.31492182 222.64994769 105.4362793 223.78369141 C107.12897807 225.49447199 108.82936551 227.1972882 110.53125 228.89892578 C115.5937132 233.97861173 120.533923 239.08605259 125.19018555 244.54492188 C129.04524672 248.86437255 133.3581638 252.78555051 137.58007812 256.74267578 C138.62035156 257.75201172 138.62035156 257.75201172 139.68164062 258.78173828 C140.31263672 259.38018555 140.94363281 259.97863281 141.59375 260.59521484 C142.83789062 262.39111328 142.83789062 262.39111328 142.66040039 264.47094727 C139.46641105 271.92738127 130.0309714 278.22192869 123.83789062 283.39111328 C123.28891113 283.85388672 122.73993164 284.31666016 122.17431641 284.79345703 C112.80397493 292.6687663 103.24107806 299.93328561 92.83789062 306.39111328 C92.25297852 306.75575684 91.66806641 307.12040039 91.06542969 307.49609375 C49.37880076 333.17533616 -3.50434808 335.19015509 -50.11083984 324.18896484 C-89.6819751 313.8418317 -124.44096326 286.3181692 -145.10351562 251.265625 C-151.37243862 240.16488913 -155.85473809 228.47522874 -159.57324219 216.30810547 C-160.05871544 214.72770085 -160.57160468 213.1557451 -161.09179688 211.58642578 C-169.03217254 185.96438884 -169.08751988 153.43286308 -163.16210938 127.39111328 C-162.87207031 126.0869043 -162.87207031 126.0869043 -162.57617188 124.75634766 C-156.88200514 99.95860303 -146.04239506 77.5088865 -129.16210938 58.39111328 C-128.33195312 57.42818359 -127.50179687 56.46525391 -126.64648438 55.47314453 C-111.17607369 37.81766379 -92.36260751 25.22073755 -71.16210938 15.39111328 C-70.04835938 14.85873047 -68.93460937 14.32634766 -67.78710938 13.77783203 C-60.99997025 10.68039944 -54.12253304 8.31348316 -46.97460938 6.20361328 C-45.79282104 5.84662354 -45.79282104 5.84662354 -44.5871582 5.48242188 C-29.96747443 1.35495353 -15.14254714 -0.11726754 0 0 Z " fill="#FEFEFE" transform="translate(200.162109375,45.60888671875)"/>
<path d="M0 0 C25.74 0 51.48 0 78 0 C80.24167969 5.76855469 82.48335937 11.53710938 84.79296875 17.48046875 C93.29794596 39.30550834 101.98203307 61.05713323 110.70031738 82.79766846 C115.28547511 94.23168117 119.86327056 105.66864307 124.44140625 117.10546875 C125.14999849 118.87541702 125.14999849 118.87541702 125.87290573 120.68112183 C136.86840531 148.14789864 147.81247665 175.63509588 158.75 203.125 C162.31751131 212.09122424 165.8851137 221.05741221 169.453125 230.0234375 C169.87354254 231.07993185 170.29396008 232.1364262 170.72711754 233.22493553 C175.96887469 246.39641628 181.21768626 259.56502951 186.484375 272.7265625 C186.75625389 273.40600544 187.02813278 274.08544838 187.30825043 274.7854805 C189.90427319 281.27230535 192.50293626 287.75806789 195.10449219 294.24267578 C195.69547699 295.71696548 195.69547699 295.71696548 196.29840088 297.22103882 C196.99921719 298.96910273 197.70074538 300.71688155 198.40325928 302.46426392 C199.27553653 304.64026459 200.13994706 306.81914239 201 309 C201.29285889 309.73480591 201.58571777 310.46961182 201.88745117 311.22668457 C203.07930303 314.28660519 204 316.68604129 204 320 C176.61 320 149.22 320 121 320 C117.143125 310.3475 113.28625 300.695 109.3125 290.75 C96.34617685 258.31810099 83.32412405 225.90875447 70.28130054 193.5075531 C68.77978211 189.77734896 67.27851379 186.04704418 65.77727699 182.31672668 C65.04474267 180.4967167 64.31207698 178.67675958 63.57927513 176.8568573 C59.49225361 166.70654298 55.41825982 156.55124179 51.36914062 146.38574219 C50.61957452 144.50543965 49.87000188 142.62513972 49.12042236 140.74484253 C47.70174779 137.18572207 46.28653277 133.62525179 44.87322998 130.06399536 C44.2401473 128.47474612 43.60695469 126.88554066 42.97363281 125.29638672 C42.68522774 124.56683651 42.39682266 123.8372863 42.09967804 123.08562851 C40.95569477 119.79765156 40.95569477 119.79765156 39 117 C32.79219727 131.33906153 26.84973563 145.7743375 21.06744385 160.28916168 C19.09934741 165.22893012 17.12629616 170.16672004 15.15380859 175.10473633 C14.73706249 176.14830732 14.32031639 177.19187832 13.89094162 178.26707268 C9.00727548 190.4923615 4.09790298 202.70730641 -0.8125 214.921875 C-1.73735651 217.22276267 -2.66221206 219.52365074 -3.58706665 221.82453918 C-5.91984157 227.62774879 -8.25298395 233.43081059 -10.58624268 239.23382568 C-14.36069596 248.62131777 -18.13464431 258.00901282 -21.90829468 267.3968277 C-23.55380997 271.49011482 -25.19973287 275.58323798 -26.84577942 279.67631149 C-32.24534729 293.11172381 -37.62229051 306.55572626 -43 320 C-70.39 320 -97.78 320 -126 320 C-125.20221377 316.01106884 -124.2806949 312.84292222 -122.82421875 309.09765625 C-122.59276154 308.50033188 -122.36130432 307.90300751 -122.12283325 307.2875824 C-121.31582514 305.21066264 -120.50191357 303.13652645 -119.6875 301.0625 C-119.38935394 300.29953613 -119.09120789 299.53657227 -118.7840271 298.75048828 C-111.35917457 279.75186015 -103.75147037 260.8252431 -96.164464 241.89095783 C-88.38346881 222.47239476 -80.6223459 203.04606105 -72.88671875 183.609375 C-72.44699612 182.50452696 -72.00727348 181.39967892 -71.55422592 180.26135063 C-67.90970688 171.10366563 -64.26605316 161.94563636 -60.62245178 152.78758621 C-50.22961526 126.6661052 -39.82846234 100.54807091 -29.37890625 74.44921875 C-28.95770885 73.39710079 -28.53651146 72.34498283 -28.10255051 71.26098251 C-24.10017483 61.26361399 -20.09625655 51.26686852 -16.0868845 41.27230358 C-14.64445856 37.67577817 -13.20336845 34.07871848 -11.76255608 30.4815464 C-11.10283758 28.8354694 -10.44248954 27.18964454 -9.78143501 25.54410362 C-8.87816543 23.2955824 -7.97706514 21.04620274 -7.07641602 18.79663086 C-6.82161972 18.16401966 -6.56682343 17.53140846 -6.30430603 16.87962723 C-4.07152827 11.29177958 -2.060187 5.66551426 0 0 Z " fill="#FEFEFE" transform="translate(748,51)"/>
<path d="M0 0 C82.5 0 165 0 250 0 C250 25.08 250 50.16 250 76 C221.62 76 193.24 76 164 76 C164 155.86 164 235.72 164 318 C138.59 318 113.18 318 87 318 C87 238.14 87 158.28 87 76 C58.29 76 29.58 76 0 76 C0 50.92 0 25.84 0 0 Z " fill="#FEFEFE" transform="translate(905,51)"/>
<path d="M0 0 C75.9 0 151.8 0 230 0 C230 24.09 230 48.18 230 73 C154.43 73 78.86 73 1 73 C-1.20324318 48.76432502 0 24.33561633 0 0 Z " fill="#EF4E23" transform="translate(372,298)"/>
<path d="M0 0 C75.57 0 151.14 0 229 0 C229 23.76 229 47.52 229 72 C153.1 72 77.2 72 -1 72 C-1 5 -1 5 0 0 Z " fill="#EF4E23" transform="translate(373,51)"/>
<path d="M0 0 C75.9 0 151.8 0 230 0 C230 23.76 230 47.52 230 72 C154.43 72 78.86 72 1 72 C-2.3944399 48.23892071 0 24.0023147 0 0 Z " fill="#EF4E23" transform="translate(372,173)"/>
</svg>
