<?xml version="1.0" encoding="UTF-8"?>
<svg version="1.1" xmlns="http://www.w3.org/2000/svg" width="1400" height="200">
<path d="M0 0 C12.21 0 24.42 0 37 0 C41.50026196 10.12558941 41.50026196 10.12558941 43.2355957 14.71118164 C43.62783325 15.74392212 44.0200708 16.7766626 44.42419434 17.84069824 C45.04372986 19.48382996 45.04372986 19.48382996 45.67578125 21.16015625 C46.1183728 22.32800659 46.56096436 23.49585693 47.01696777 24.69909668 C48.20611637 27.83863583 49.39294007 30.97903412 50.57867813 34.1198616 C51.56114484 36.7207347 52.54580351 39.32077545 53.53049755 41.92080593 C58.29456241 54.5006309 63.04077031 67.08702731 67.75 79.6875 C68.10362106 80.63322372 68.45724213 81.57894745 68.82157898 82.55332947 C70.45033749 86.91095701 72.07554512 91.26985379 73.69458008 95.63110352 C74.26118081 97.15122294 74.82782804 98.67132503 75.39453125 100.19140625 C75.64763062 100.87706665 75.90072998 101.56272705 76.16149902 102.26916504 C77.17196906 105.37470173 77.17196906 105.37470173 79 108 C79.30939011 107.17347931 79.61878021 106.34695862 79.93754578 105.49539185 C82.91969154 97.52938837 85.90301918 89.5638286 88.88753033 81.59871101 C90.42017221 77.50825342 91.9524267 73.41765179 93.48364258 69.32666016 C100.05151603 51.78004093 106.64591976 34.24414752 113.33203125 16.7421875 C113.61447882 16.00201511 113.89692638 15.26184273 114.18793297 14.49924088 C114.97798859 12.42985052 115.76955829 10.36104716 116.56176758 8.29248047 C117.01006424 7.12119598 117.4583609 5.9499115 117.92024231 4.74313354 C119 2 119 2 120 0 C132.54 0 145.08 0 158 0 C158 50.49 158 100.98 158 153 C148.1 153 138.2 153 128 153 C127.67 123.3 127.34 93.6 127 63 C118.80327689 84.76192149 118.80327689 84.76192149 110.60742188 106.52416992 C104.76765781 122.02743522 98.91227166 137.5241899 93 153 C83.43 153 73.86 153 64 153 C63.13761719 150.62039062 62.27523438 148.24078125 61.38671875 145.7890625 C51.20156604 117.75124084 40.63586267 89.87061825 30 62 C29.67 92.03 29.34 122.06 29 153 C19.43 153 9.86 153 0 153 C0 102.51 0 52.02 0 0 Z " fill="#000000" transform="translate(1098,26)"/>
<path d="M0 0 C14.13639771 15.01307354 21.30014546 33.69933446 21.265625 54.140625 C21.26401367 55.14440186 21.26240234 56.14817871 21.26074219 57.18237305 C21.12207003 65.65836859 19.75486233 72.93723858 16.890625 80.953125 C16.601875 81.84773438 16.313125 82.74234375 16.015625 83.6640625 C9.34098948 102.55566481 -5.80814902 116.39052052 -23.27734375 125.19140625 C-40.48195851 133.40795016 -62.3754378 135.16071704 -80.59375 129.33984375 C-103.20914522 120.41932675 -119.80080703 105.93208736 -129.6484375 83.4375 C-137.63522699 62.6064584 -136.53264028 41.27407731 -127.796875 20.890625 C-120.76058583 5.9002698 -109.44061724 -5.88972 -95.109375 -14.046875 C-94.31917969 -14.50964844 -93.52898437 -14.97242188 -92.71484375 -15.44921875 C-61.86434366 -32.28141532 -24.41469124 -23.69129298 0 0 Z M-78.109375 9.953125 C-78.955 10.365625 -79.800625 10.778125 -80.671875 11.203125 C-92.77410734 17.69700577 -99.85805502 28.4906627 -104.2421875 41.25 C-107.47716751 55.06423895 -105.46473487 68.76233001 -98.34765625 80.9765625 C-90.8261406 92.11389805 -80.78513986 99.18664773 -67.7578125 102.5625 C-52.47605524 104.8164465 -38.71373707 102.15090273 -26.109375 92.953125 C-15.33931176 84.02935832 -9.07061403 71.90881497 -7.7265625 57.98828125 C-7.11241685 44.02981863 -11.37549435 32.05783135 -20.296875 21.3203125 C-28.61386343 12.39021274 -39.38423214 6.21270476 -51.78125 5.6171875 C-61.21185723 5.44934372 -69.5762419 5.46200231 -78.109375 9.953125 Z " fill="#000000" transform="translate(572.109375,48.046875)"/>
<path d="M0 0 C8.07307367 7.28997129 14.97499954 14.40049539 20.21484375 24 C20.67503906 24.83789062 21.13523437 25.67578125 21.609375 26.5390625 C30.63280057 44.58591365 31.89068702 65.75060984 26.21484375 85 C19.24857638 105.45129029 5.19485925 122.08568004 -14.17114258 131.82543945 C-31.89479816 140.33126681 -53.34097627 142.42272403 -72.265625 136.390625 C-83.22013988 132.06231501 -93.03047166 127.01061556 -101.78515625 119 C-102.80802734 118.11441406 -102.80802734 118.11441406 -103.8515625 117.2109375 C-117.88791348 104.3007908 -125.96949531 84.90434996 -127 66.07421875 C-127.72272303 42.9629657 -120.31130238 23.37476403 -104.70849609 6.42504883 C-77.74327445 -21.70544611 -30.24557181 -25.23280478 0 0 Z M-88 31.625 C-95.2969961 41.33303857 -99.10039193 53.87460802 -97.78515625 66 C-95.46652761 80.54085713 -89.88346066 91.76836899 -78.21484375 101.04296875 C-66.4760038 109.06850218 -53.75447018 111.57512373 -39.78515625 110 C-26.52661406 107.39756837 -15.78499336 99.72558806 -7.78515625 89 C-0.90927913 78.25644201 1.8194511 65.56545002 -0.2890625 52.99609375 C-3.58874529 38.23237017 -11.34761046 26.74449522 -24.15625 18.47265625 C-46.4302396 5.99525048 -72.01167277 12.80772421 -88 31.625 Z " fill="#000000" transform="translate(805.78515625,41)"/>
<path d="M0 0 C7.21800579 -1.87993077 13.89565745 -2.72021537 21 0 C31.43993794 6.94541141 39.85430195 17.5889238 48 27 C52.05396774 25.44313518 54.34940755 22.55345766 57.0859375 19.3359375 C74.49594195 -0.31087385 74.49594195 -0.31087385 83.54296875 -1.65234375 C88.82429675 -1.82595577 93.86322135 -1.18240073 99 0 C94.69372744 5.14829744 90.17688069 9.95752072 85.4140625 14.68359375 C84.71227875 15.38396255 84.010495 16.08433136 83.28744507 16.80592346 C81.06898864 19.01883027 78.84706185 21.22821416 76.625 23.4375 C75.11044534 24.94703314 73.59612015 26.45679657 72.08203125 27.96679688 C68.39066901 31.64719702 64.69645931 35.32471957 61 39 C62.32 40.32 63.64 41.64 65 43 C65.49207443 42.46129272 65.98414886 41.92258545 66.49113464 41.36755371 C71.18269396 36.25180662 75.92666389 31.18986991 80.7314558 26.18048859 C83.19937146 23.60381842 85.64438983 21.01193954 88.04418945 18.37158203 C104.84772952 -0.07203832 104.84772952 -0.07203832 114.11181641 -1.34375 C119.21721983 -1.55206396 123.99770097 -0.99717454 129 0 C126.81685669 3.98887832 124.28802224 6.95524235 121.06958008 10.1574707 C120.58146347 10.64587936 120.09334686 11.13428802 119.59043884 11.63749695 C117.98816805 13.23838292 116.37894777 14.83208201 114.76953125 16.42578125 C113.65236991 17.53920944 112.53565155 18.65308226 111.4193573 19.76737976 C108.48927847 22.68984588 105.55324205 25.60625412 102.61590576 28.52142334 C99.61595257 31.50086716 96.62169828 34.48602619 93.62695312 37.47070312 C87.75685108 43.31939694 81.88044012 49.16170056 76 55 C76.99 55.99 77.98 56.98 79 58 C82.21549219 56.62193192 83.97220001 55.11390261 86.125 52.375 C87.6328125 50.4609375 87.6328125 50.4609375 89 49 C89.66 49 90.32 49 91 49 C91.24731873 48.43456482 91.49463745 47.86912964 91.74945068 47.28656006 C93.21078716 44.61458737 94.94396408 42.65532423 97.00878906 40.41503906 C97.83856262 39.51440735 98.66833618 38.61377563 99.52325439 37.68585205 C102.86073149 34.11838368 106.23245152 30.58360087 109.62620926 27.06966019 C112.19271623 24.41121905 114.73378023 21.73643896 117.22412109 19.00634766 C134.66031483 -0.06704314 134.66031483 -0.06704314 144.39257812 -1.38867188 C149.71657114 -1.60476021 154.79008732 -1.05410781 160 0 C156.0682924 4.70745077 151.97742714 9.1641171 147.62744141 13.48608398 C147.02184387 14.09182755 146.41624634 14.69757111 145.79229736 15.32167053 C143.81441659 17.29886146 141.83303086 19.27249876 139.8515625 21.24609375 C138.46986361 22.62592516 137.08838712 24.0059793 135.7071228 25.38624573 C132.08935087 29.0002185 128.46858481 32.61117673 124.84716797 36.22149658 C121.14498223 39.91341203 117.44566229 43.60819663 113.74609375 47.30273438 C106.50018369 54.53795303 99.25110445 61.76998741 92 69 C92.66 70.32 93.32 71.64 94 73 C96.42520029 73.23152231 96.42520029 73.23152231 98.87055969 70.2286377 C100.11706369 68.92349017 101.35807736 67.61308729 102.5949707 66.29882812 C104.00225461 64.82219299 105.40993251 63.34593327 106.81794739 61.86999512 C107.5673591 61.08152695 108.31677082 60.29305878 109.08889198 59.48069763 C113.90170929 54.43606667 118.77193554 49.44668845 123.63026142 44.44594574 C127.89277853 40.05186401 132.13475195 35.64108728 136.33666992 31.18896484 C140.40339769 26.88235047 144.52084086 22.63040896 148.67616844 18.4092865 C150.24399833 16.79793072 151.79304708 15.16805916 153.32149696 13.51930237 C165.9244925 -0.04130818 165.9244925 -0.04130818 174.7906189 -0.98022461 C179.91630091 -1.15020367 184.93455426 -0.78132551 190 0 C187.36440245 5.18352458 183.39906001 8.86781563 179.31567383 12.91137695 C178.5349501 13.69239273 177.75422638 14.47340851 176.94984436 15.27809143 C174.37361993 17.85292491 171.79038841 20.42060583 169.20703125 22.98828125 C167.41726334 24.7743182 165.62793711 26.56079785 163.83903503 28.34770203 C159.61414518 32.5657414 155.38483386 36.77929707 151.15333527 40.99070281 C146.33440644 45.78724687 141.52118166 50.58949751 136.70841944 55.39222777 C126.81193148 65.26783247 116.90832822 75.13627586 107 85 C108.32 86.32 109.64 87.64 111 89 C111.43932452 88.54131783 111.87864904 88.08263565 112.33128643 87.61005402 C123.06747237 76.40834783 133.86225782 65.26697838 144.7244215 54.18752289 C149.97622295 48.8278211 155.2068953 43.45030334 160.39086914 38.02490234 C164.91399305 33.29123263 169.47392585 28.59677194 174.0802086 23.94393301 C176.51454876 21.48240669 178.92757173 19.00642311 181.29723167 16.48243713 C197.61575729 -0.85817769 197.61575729 -0.85817769 208.97070026 -1.31389618 C213.06981191 -1.17541899 216.96103695 -0.72043633 221 0 C218.61396874 3.72434291 216.22327309 7.02640781 213.09277344 10.15014648 C211.96074493 11.28678993 211.96074493 11.28678993 210.80584717 12.44639587 C209.99851135 13.24654617 209.19117554 14.04669647 208.359375 14.87109375 C207.51836243 15.7116481 206.67734985 16.55220245 205.81085205 17.41822815 C204.03463511 19.19143145 202.2559958 20.96221116 200.47509766 22.73071289 C197.76802136 25.41959973 195.06896592 28.11633475 192.37109375 30.81445312 C190.63849047 32.54213777 188.90543217 34.26936624 187.171875 35.99609375 C186.37263611 36.79421982 185.57339722 37.59234589 184.74993896 38.41465759 C183.5989975 39.55602928 183.5989975 39.55602928 182.42480469 40.72045898 C181.76180359 41.37964828 181.09880249 42.03883759 180.41571045 42.71800232 C178.46205451 44.56352082 176.47829695 46.31302228 174.438797 48.06021118 C168.89380815 52.88793207 163.74483342 58.11523642 158.55444336 63.31616211 C157.42198445 64.44726346 156.28931347 65.57815252 155.15644836 66.70884705 C152.10049847 69.76026485 149.04768806 72.81480511 145.99559474 75.87007976 C142.78930261 79.07891741 139.58055564 82.28529884 136.37220764 85.49208069 C130.98649235 90.87598067 125.60287974 96.26197645 120.22045898 101.64916992 C114.01253454 107.86253575 107.80101605 114.07229113 101.58761877 120.28018373 C96.23692389 125.62632929 90.8881944 130.97443532 85.54107958 136.32416159 C82.3545226 139.51227134 79.16730874 142.6997165 75.97831535 145.88538933 C72.97926277 148.88153671 69.98269856 151.88015146 66.98797417 154.88062477 C65.89362349 155.9762889 64.79843735 157.07111935 63.7023201 158.16501617 C57.92269328 163.93402048 52.26303226 169.74996729 47 176 C27.41120044 199.13322572 27.41120044 199.13322572 17.6015625 200.49609375 C12.2878738 200.67514517 7.19353958 200.07964787 2 199 C6.70403732 193.34611634 11.73255519 188.13107473 16.94287109 182.94360352 C17.8215686 182.06475998 18.70026611 181.18591644 19.60559082 180.28044128 C21.99592117 177.89068489 24.38843608 175.5031572 26.78198195 173.11662412 C29.29018525 170.61470654 31.79552389 168.10992361 34.30117798 165.60545349 C39.03762814 160.87210134 43.77661977 156.14130232 48.5165478 151.41143316 C53.91639542 146.02279439 59.31337627 140.63128826 64.71012759 135.2395488 C75.80358268 124.15652342 86.9006019 113.07707378 98 102 C96.54279339 98.64559798 94.70128789 96.45796949 92.11495972 93.88790894 C91.3044516 93.07754181 90.49394348 92.26717468 89.65887451 91.43225098 C88.76839417 90.55210327 87.87791382 89.67195557 86.96044922 88.76513672 C86.01390946 87.82243654 85.06782496 86.87927906 84.12216187 85.93569946 C82.08753003 83.90738338 80.04983412 81.88221477 78.00973129 79.8594017 C74.78642592 76.66313994 71.57076195 73.45926447 68.35623169 70.25418091 C61.53504748 63.45519053 54.70544463 56.66468513 47.875 49.875 C40.494413 42.53842304 33.11527242 35.20042641 25.74582303 27.85265934 C22.54728807 24.6641132 19.34393362 21.48051232 16.13685966 18.30055594 C14.62552625 16.80051942 13.11647132 15.29823589 11.60842896 13.79489136 C9.76610929 11.95833783 7.92016133 10.12541457 6.07006836 8.29669189 C5.26519989 7.49196442 4.46033142 6.68723694 3.631073 5.85812378 C2.92573362 5.15722563 2.22039425 4.45632748 1.49368095 3.73418999 C0 2 0 2 0 0 Z " fill="#D70514" transform="translate(123,1)"/>
<path d="M0 0 C10.23 0 20.46 0 31 0 C31 20.79 31 41.58 31 63 C47.17 63 63.34 63 80 63 C80 42.21 80 21.42 80 0 C90.56 0 101.12 0 112 0 C112 50.49 112 100.98 112 153 C101.44 153 90.88 153 80 153 C80 133.53 80 114.06 80 94 C55.745 93.505 55.745 93.505 31 93 C31 112.8 31 132.6 31 153 C20.77 153 10.54 153 0 153 C0 102.51 0 52.02 0 0 Z " fill="#000000" transform="translate(839,26)"/>
<path d="M0 0 C9.57 0 19.14 0 29 0 C32.23455438 7.76293051 35.36815881 15.48387361 38.265625 23.3671875 C38.65635193 24.42401733 39.04707886 25.48084717 39.449646 26.56970215 C40.71873418 30.00395578 41.98436409 33.43947278 43.25 36.875 C44.14038352 39.28605924 45.03101191 41.69702807 45.921875 44.10791016 C48.18430369 50.23213906 50.44403719 56.35735819 52.70288086 62.48291016 C55.42304277 69.85852705 58.14607352 77.23308394 60.87036133 84.60717773 C62.27914485 88.42080611 63.68497611 92.23550365 65.08862305 96.05102539 C68.24038 104.60870609 71.42542419 113.14954821 74.72265625 121.65234375 C75.29645966 123.14199907 75.87003443 124.63174249 76.44335938 126.12158203 C77.47914938 128.81292668 78.5331102 131.49599469 79.59960938 134.17529297 C80.05271484 135.3510791 80.50582031 136.52686523 80.97265625 137.73828125 C81.36718994 138.73899658 81.76172363 139.73971191 82.16821289 140.77075195 C83 144 83 144 83 153 C73.43 153 63.86 153 54 153 C52.68 149.37 51.36 145.74 50 142 C48.45105838 138.49001256 48.45105838 138.49001256 46.875 134.9921875 C45.72820802 132.38118791 44.84672158 129.72160508 44 127 C43.649375 125.948125 43.29875 124.89625 42.9375 123.8125 C42.29166667 121.875 41.64583333 119.9375 41 118 C23.84 118 6.68 118 -11 118 C-15.29 129.55 -19.58 141.1 -24 153 C-34.56 153 -45.12 153 -56 153 C-51.39112446 138.97091631 -46.53849284 125.08269339 -41.375 111.25 C-40.26699278 108.26960084 -39.1602502 105.28873388 -38.05355835 102.30784607 C-37.2723983 100.20399041 -36.4908372 98.10028363 -35.70889282 95.99671936 C-32.65913697 87.78904434 -29.63034623 79.57377803 -26.609375 71.35546875 C-26.15625443 70.12290848 -25.70313385 68.89034821 -25.23628235 67.62043762 C-24.32113967 65.1310247 -23.40600396 62.64160922 -22.49087524 60.15219116 C-15.10253271 40.05854729 -7.65476663 19.99379343 0 0 Z M14 47 C11.85966804 52.80090681 9.72352867 58.60333318 7.59130859 64.40722656 C6.86492928 66.38258831 6.13739367 68.35752525 5.40869141 70.33203125 C4.36318595 73.16556439 3.32180983 76.00058506 2.28125 78.8359375 C1.95314331 79.72243988 1.62503662 80.60894226 1.2869873 81.52230835 C0.83652039 82.753358 0.83652039 82.753358 0.37695312 84.00927734 C0.11047974 84.73319672 -0.15599365 85.45711609 -0.43054199 86.20297241 C-1.10069473 88.00357759 -1.10069473 88.00357759 -1 90 C9.56 90 20.12 90 31 90 C30.67 88.02 30.34 86.04 30 84 C29.34 84 28.68 84 28 84 C27.67 81.36 27.34 78.72 27 76 C26.34 76 25.68 76 25 76 C24.7421875 74.72125 24.484375 73.4425 24.21875 72.125 C23.05934068 66.91582291 21.36217667 61.9943734 19.5 57 C19.19191406 56.14277344 18.88382813 55.28554687 18.56640625 54.40234375 C18.26605469 53.58894531 17.96570312 52.77554688 17.65625 51.9375 C17.38619141 51.20402344 17.11613281 50.47054687 16.83789062 49.71484375 C16.12090842 47.8074137 16.12090842 47.8074137 14 47 Z " fill="#000000" transform="translate(1317,26)"/>
<path d="M0 0 C9.57 0 19.14 0 29 0 C31.70473363 6.08565068 34.23329761 12.08692459 36.51171875 18.32421875 C36.83690994 19.20672806 37.16210114 20.08923737 37.49714661 20.99848938 C38.56335406 23.89382055 39.62539683 26.79066102 40.6875 29.6875 C41.4436921 31.74295568 42.20020852 33.79829207 42.95703125 35.85351562 C44.52778487 40.11981962 46.0971472 44.38663152 47.66552734 48.65380859 C50.91729569 57.49783076 54.18624002 66.33549085 57.45498657 75.17324829 C58.49981957 77.99951195 59.54343207 80.82622336 60.58666992 83.65307617 C63.91040617 92.65737102 67.24222089 101.65847682 70.59802246 110.65087891 C72.18598191 114.90735721 73.7700249 119.16528816 75.35375977 123.42333984 C76.11140113 125.4569493 76.87097067 127.48984155 77.63256836 129.52197266 C78.68698614 132.33578187 79.734795 135.15197159 80.78125 137.96875 C81.25026733 139.21235291 81.25026733 139.21235291 81.72875977 140.4810791 C82.01485107 141.25495972 82.30094238 142.02884033 82.59570312 142.82617188 C82.84421021 143.49128784 83.09271729 144.15640381 83.34875488 144.8416748 C84.15025629 147.49797214 84.54386109 150.26316655 85 153 C74.77 153 64.54 153 54 153 C52.22625 148.33875 50.4525 143.6775 48.625 138.875 C48.06893066 137.41562012 47.51286133 135.95624023 46.93994141 134.45263672 C46.27744385 132.70877686 46.27744385 132.70877686 45.6015625 130.9296875 C45.15119629 129.74616699 44.70083008 128.56264648 44.23681641 127.34326172 C43.0932243 124.25199636 42.04229192 121.12687576 41 118 C23.84 118 6.68 118 -11 118 C-15.29 129.55 -19.58 141.1 -24 153 C-34.56 153 -45.12 153 -56 153 C-51.79258406 140.08966479 -47.23355423 127.35686755 -42.45635986 114.64746094 C-40.35182575 109.04757943 -38.25837027 103.44355613 -36.1640625 97.83984375 C-35.73471405 96.69168182 -35.3053656 95.5435199 -34.86300659 94.36056519 C-30.40339471 82.42424637 -26.00956033 70.46404958 -21.625 58.5 C-14.46910903 38.98032613 -7.25907945 19.48152241 0 0 Z M14 47 C11.85966804 52.80090681 9.72352867 58.60333318 7.59130859 64.40722656 C6.86492928 66.38258831 6.13739367 68.35752525 5.40869141 70.33203125 C4.36318595 73.16556439 3.32180983 76.00058506 2.28125 78.8359375 C1.95314331 79.72243988 1.62503662 80.60894226 1.2869873 81.52230835 C0.83652039 82.753358 0.83652039 82.753358 0.37695312 84.00927734 C0.11047974 84.73319672 -0.15599365 85.45711609 -0.43054199 86.20297241 C-1.10069473 88.00357759 -1.10069473 88.00357759 -1 90 C9.56 90 20.12 90 31 90 C28.67950567 83.32857881 26.34715482 76.66201681 24 70 C23.64212402 68.98019043 23.28424805 67.96038086 22.91552734 66.90966797 C21.84738476 63.87442253 20.76881316 60.84307501 19.6875 57.8125 C19.35041016 56.85069824 19.01332031 55.88889648 18.66601562 54.89794922 C18.18745117 53.56594482 18.18745117 53.56594482 17.69921875 52.20703125 C17.41908936 51.4178833 17.13895996 50.62873535 16.8503418 49.81567383 C16.14081558 47.81194026 16.14081558 47.81194026 14 47 Z " fill="#000000" transform="translate(1009,26)"/>
<path d="M0 0 C9.9 0 19.8 0 30 0 C30.33 20.13 30.66 40.26 31 61 C34.63 55.72 38.26 50.44 42 45 C44.15388386 41.98837478 46.31245988 38.98637932 48.5 36 C53.12064781 29.6494613 57.64226021 23.24261665 62.046875 16.74023438 C62.87668357 15.51938183 63.72531011 14.31115087 64.59033203 13.11499023 C66.10931635 10.92949633 66.10931635 10.92949633 67.45263672 8.10571289 C71.63228589 0.70953041 71.63228589 0.70953041 75.88980103 -0.5663147 C81.41617524 -1.37731517 86.94624612 -1.00173122 92.5 -0.6875 C94.19775804 -0.63225806 95.89568882 -0.58207922 97.59375 -0.53710938 C101.73346485 -0.41650786 105.86481904 -0.22715538 110 0 C108.17982689 3.82752471 106.26822547 7.20526943 103.6640625 10.546875 C102.69629883 11.79984375 102.69629883 11.79984375 101.70898438 13.078125 C101.02126953 13.95984375 100.33355469 14.8415625 99.625 15.75 C94.47398948 22.42637728 89.39725714 29.13516407 84.5 36 C77.79750267 45.37507868 70.79603162 54.5136795 63.78710938 63.66064453 C60.15599116 68.4138378 56.57453476 73.20416587 53 78 C57.21936838 84.52352066 61.75196011 90.72846134 66.5 96.875 C71.81821423 103.80552074 77.0831608 110.76832752 82.25 117.8125 C87.54986126 125.03746677 92.89529928 132.22572083 98.28125 139.38671875 C98.71824219 139.97114746 99.15523437 140.55557617 99.60546875 141.15771484 C100.61510198 142.49151953 101.64065356 143.81332388 102.67578125 145.12744141 C103.22621094 145.83433105 103.77664063 146.5412207 104.34375 147.26953125 C104.85099609 147.91124268 105.35824219 148.5529541 105.88085938 149.21411133 C107 151 107 151 107 154 C97.88130359 154.68995258 88.77138674 155.12632975 79.625 154.91796875 C78.85878326 154.9220726 78.09256653 154.92617645 77.3031311 154.93040466 C72.98673302 154.7707372 70.57782413 154.06950388 67.38452148 151.07666016 C65.28033732 148.7286283 63.78406216 146.65020331 62.84765625 143.60546875 C60.82038624 138.1045793 57.50920893 133.76066832 54.0625 129.0625 C52.86319377 127.36479342 51.66784363 125.66428489 50.4765625 123.9609375 C49.60306152 122.71715332 49.60306152 122.71715332 48.71191406 121.44824219 C45.65839852 117.08134916 42.64546511 112.68667136 39.63891602 108.28735352 C36.80876471 104.15192413 33.91415179 100.0798125 31 96 C30.67 115.14 30.34 134.28 30 154 C20.1 154 10.2 154 0 154 C0 103.18 0 52.36 0 0 Z " fill="#000000" transform="translate(597,24)"/>
<path d="M0 0 C10.56 0 21.12 0 32 0 C39.39017125 15.26760654 46.70960626 30.55054757 53.7722168 45.97167969 C54.28308838 47.08188477 54.79395996 48.19208984 55.3203125 49.3359375 C55.76648926 50.31095215 56.21266602 51.2859668 56.67236328 52.29052734 C57.98048982 54.96018315 59.43242755 57.47545588 61 60 C63.23336106 55.41869877 65.46211387 50.83517901 67.6875 46.25 C68.02203186 45.56081482 68.35656372 44.87162964 68.70123291 44.16156006 C74.2797815 32.6576153 79.72153049 21.09563341 85.04956055 9.47363281 C85.81006714 7.81992676 85.81006714 7.81992676 86.5859375 6.1328125 C87.0298584 5.16230957 87.4737793 4.19180664 87.93115234 3.19189453 C89 1 89 1 90 0 C92.3756852 -0.0883967 94.72208674 -0.11530305 97.09765625 -0.09765625 C98.16094398 -0.09553383 98.16094398 -0.09553383 99.24571228 -0.09336853 C101.51801712 -0.08775443 103.79022475 -0.07519963 106.0625 -0.0625 C107.59960796 -0.05748681 109.13671745 -0.05292359 110.67382812 -0.04882812 C114.44925642 -0.03778042 118.22461171 -0.02050641 122 0 C120.50946395 4.92020678 118.46463697 9.33276625 116.1484375 13.8984375 C115.58184921 15.02736923 115.58184921 15.02736923 115.0038147 16.17910767 C113.7979778 18.57965562 112.58663146 20.97737241 111.375 23.375 C110.58426155 24.94642651 109.79389388 26.51803965 109.00390625 28.08984375 C107.4345769 31.21102979 105.86374309 34.33145061 104.29150391 37.45117188 C98.72165425 48.50576363 93.19779024 59.57357521 87.875 70.75 C86.89424047 72.80777397 85.91247149 74.86506713 84.9296875 76.921875 C84.50929199 77.80456055 84.08889648 78.68724609 83.65576172 79.59667969 C82.67197754 81.6187899 81.63951083 83.62007946 80.50930786 85.56414795 C76.09408061 93.49463753 75.12749924 99.86071359 75.1953125 108.859375 C75.18160614 110.12976624 75.16789978 111.40015747 75.15377808 112.70904541 C75.12298908 116.04355314 75.11731495 119.37607343 75.12445068 122.71057129 C75.12537173 126.13012269 75.09271106 129.54935533 75.0625 132.96875 C75.00590846 139.64655138 75.00425405 146.32114567 75 153 C65.43 153 55.86 153 46 153 C46.20625 149.2978125 46.4125 145.595625 46.625 141.78125 C47.94508295 107.98616615 43.52916921 83.63388287 25.70143127 54.03607178 C20.21762796 44.91023942 15.76627456 35.36172733 11.28733826 25.71502686 C7.94400967 18.66386772 4.32328558 11.74479783 0.7434082 4.81152344 C0 3 0 3 0 0 Z " fill="#000000" transform="translate(338,26)"/>
<path d="M0 0 C7.82860574 -1.25474404 16.32251337 -2.48623574 23.5846138 1.373806 C30.04761879 6.05967419 35.40145272 11.96505964 40.84765625 17.76171875 C42.64193645 19.5927038 44.44089051 21.41911919 46.24424744 23.24116516 C50.47272662 27.536168 54.65079171 31.87468121 58.80760521 36.23866349 C63.53105818 41.19171677 68.31806948 46.0813284 73.11001599 50.96799409 C80.56490711 58.57426448 87.98535883 66.21305679 95.35180664 73.9050293 C96.43088791 75.02820557 96.43088791 75.02820557 97.5317688 76.17407227 C100.86662304 79.66798517 104.02737363 83.18674629 107 87 C108.25981796 88.18076056 109.55116547 89.32898796 110.875 90.4375 C114.43022757 93.48674013 117.80795196 96.56854835 121 100 C121 100.66 121 101.32 121 102 C119.52652073 103.4545908 119.52652073 103.4545908 117.49159241 105.14149475 C113.16807748 108.82083268 109.14133799 112.71734428 105.13452148 116.73608398 C104.39357239 117.47528076 103.65262329 118.21447754 102.88922119 118.97607422 C100.4640072 121.39692148 98.04242906 123.82136749 95.62109375 126.24609375 C93.92308393 127.94342905 92.22492575 129.64061595 90.52662659 131.33766174 C86.97714251 134.88567586 83.42946221 138.43548112 79.88305664 141.98657227 C75.35183724 146.5234885 70.81614284 151.05590014 66.2790823 155.58697414 C62.77443585 159.08799603 59.27218827 162.59140985 55.77064705 166.09553719 C54.09973474 167.76711352 52.42808773 169.4379558 50.75567436 171.10803032 C48.4133735 173.44777347 46.07433276 175.79072972 43.73608398 178.13452148 C43.05381241 178.81476883 42.37154083 179.49501617 41.66859436 180.19587708 C36.37465929 185.5129222 31.26927386 190.96767784 26.76953125 196.98046875 C22.37311542 200.18631781 17.96920475 199.53214863 12.6875 199.3125 C11.14739258 199.27866211 11.14739258 199.27866211 9.57617188 199.24414062 C7.04920508 199.18537396 4.52561638 199.09893333 2 199 C7.15734799 191.60343779 13.30810023 185.41706358 19.6796875 179.08984375 C20.81816591 177.9525605 21.95627153 176.81490397 23.09402466 175.67689514 C25.46959231 173.30288365 27.84845451 170.93224299 30.22998047 168.56420898 C33.26312672 165.54804119 36.2896597 162.52534371 39.31394768 159.50029659 C41.66098859 157.15352929 44.01063977 154.80939006 46.36114883 152.46609688 C47.47714741 151.35325185 48.59256653 150.23982539 49.70736313 149.12577629 C55.06101568 143.77964311 60.4325591 138.51811397 66.18289185 133.59373474 C69.37816718 130.79124811 72.35222333 127.77054195 75.34375 124.75390625 C75.99831177 124.09792953 76.65287354 123.44195282 77.32727051 122.76609802 C79.38723823 120.70059855 81.44367366 118.63162405 83.5 116.5625 C84.9086205 115.14885566 86.31747267 113.73544214 87.7265625 112.32226562 C91.15372133 108.88416851 94.57772019 105.44295344 98 102 C96.54279339 98.64559798 94.70128789 96.45796949 92.11495972 93.88790894 C91.3044516 93.07754181 90.49394348 92.26717468 89.65887451 91.43225098 C88.76839417 90.55210327 87.87791382 89.67195557 86.96044922 88.76513672 C86.01390946 87.82243654 85.06782496 86.87927906 84.12216187 85.93569946 C82.08753003 83.90738338 80.04983412 81.88221477 78.00973129 79.8594017 C74.78642592 76.66313994 71.57076195 73.45926447 68.35623169 70.25418091 C61.53504748 63.45519053 54.70544463 56.66468513 47.875 49.875 C40.494413 42.53842304 33.11527242 35.20042641 25.74582303 27.85265934 C22.54728807 24.6641132 19.34393362 21.48051232 16.13685966 18.30055594 C14.62552625 16.80051942 13.11647132 15.29823589 11.60842896 13.79489136 C9.76610929 11.95833783 7.92016133 10.12541457 6.07006836 8.29669189 C5.26519989 7.49196442 4.46033142 6.68723694 3.631073 5.85812378 C2.92573362 5.15722563 2.22039425 4.45632748 1.49368095 3.73418999 C0 2 0 2 0 0 Z " fill="#D70514" transform="translate(62,1)"/>
<path d="M0 0 C3.34902593 -0.47731766 6.68936632 -0.75194289 10.0625 -1 C11.44791992 -1.20109375 11.44791992 -1.20109375 12.86132812 -1.40625 C16.9269012 -1.62826082 20.3409249 -1.36314942 23.60157394 1.31590462 C25.36213174 3.11937375 27.02791534 4.98128173 28.68408203 6.88110352 C30.0148797 8.35248714 31.3486206 9.82121271 32.68489075 11.28762817 C33.3868841 12.06117268 34.08887745 12.83471718 34.81214333 13.63170242 C38.5065027 17.63074974 42.34985842 21.47797441 46.19848633 25.32788086 C47.40956653 26.5419705 47.40956653 26.5419705 48.64511299 27.7805872 C51.20520616 30.34422873 53.76846088 32.9046797 56.33203125 35.46484375 C58.14440721 37.27789511 59.95663485 39.09109473 61.76872253 40.9044342 C65.52949981 44.66667208 69.29199615 48.42717851 73.0559082 52.1862793 C77.40415359 56.52903062 81.7487103 60.87544734 86.09147817 65.22367567 C90.29718499 69.43445733 94.50568669 73.64243686 98.71539879 77.84921455 C100.49799728 79.63114551 102.27985198 81.41382086 104.06095314 83.19724846 C106.53277836 85.67159904 109.00776092 88.14274641 111.48364258 90.61303711 C112.58764908 91.72007996 112.58764908 91.72007996 113.71395874 92.8494873 C114.72050758 93.85180641 114.72050758 93.85180641 115.74739075 94.87437439 C116.33076108 95.4573677 116.91413141 96.040361 117.51517963 96.64102077 C118.97485914 98.10158766 118.97485914 98.10158766 121 99 C121 102 121 102 119.51490784 103.5639801 C118.50314735 104.38611244 118.50314735 104.38611244 117.47094727 105.22485352 C113.25400662 108.76100181 109.34839305 112.50644788 105.46484375 116.40234375 C104.78249161 117.08373917 104.10013947 117.76513458 103.39710999 118.46717834 C101.96655563 119.89705741 100.53724233 121.32817911 99.10913086 122.76049805 C96.94300926 124.93197711 94.77159826 127.09806325 92.59960938 129.26367188 C91.20020013 130.66374202 89.80110116 132.06412238 88.40234375 133.46484375 C87.44424049 134.41991066 87.44424049 134.41991066 86.46678162 135.39427185 C82.81503952 139.06475173 79.35619003 142.844392 75.96931458 146.7592926 C69.20256041 154.45857859 62.08078725 161.84821657 54.9555645 169.2146225 C52.12691623 172.14157744 49.32177844 175.08503619 46.56201172 178.07714844 C26.18001755 200.13067368 26.18001755 200.13067368 14.72268677 200.66662598 C10.67371573 200.47361271 6.9493098 199.92333764 3 199 C4.44197958 195.69972125 6.22819177 193.52444486 8.77114868 190.98834229 C9.55641434 190.2003273 10.34167999 189.41231232 11.15074158 188.60041809 C12.44438377 187.31756172 12.44438377 187.31756172 13.76416016 186.00878906 C14.67153427 185.10112289 15.57890839 184.19345673 16.51377869 183.25828552 C18.99879203 180.77269862 21.48992124 178.29332422 23.98219347 175.81501865 C26.58695014 173.22276884 29.18603998 170.62484996 31.78573608 168.02752686 C36.70803215 163.11144568 41.63540403 158.20048477 46.56461942 153.2913425 C52.17672601 147.7015946 57.78315115 142.10616312 63.38910604 136.51024675 C74.91976028 125.00049472 86.45752914 113.49790204 98 102 C96.54904769 98.66693826 94.73069501 96.48727165 92.15965271 93.93260193 C91.35900391 93.13209412 90.5583551 92.3315863 89.73344421 91.50682068 C88.85388565 90.63759476 87.97432709 89.76836884 87.06811523 88.87280273 C85.64786281 87.45703319 84.22761065 86.04126338 82.8073684 84.62548363 C81.28195453 83.10680664 79.7540835 81.5906416 78.22549248 80.07516289 C75.03971378 76.91643634 71.86158412 73.75008877 68.68458557 70.58253479 C61.94144983 63.86159294 55.18990275 57.14912946 48.4375 50.4375 C41.14442572 43.18844739 33.85279886 35.9379747 26.57087857 28.67771488 C23.41109651 25.52790963 20.24649852 22.38304816 17.07815731 19.24185359 C15.58392226 17.75893004 14.09197815 16.27374749 12.6010437 14.7875061 C10.78151131 12.97372778 8.95836199 11.16356814 7.13102722 9.35765076 C6.33319824 8.55996277 5.53536926 7.76227478 4.71336365 6.94041443 C4.01632041 6.24781241 3.31927717 5.5552104 2.60111141 4.84162045 C1 3 1 3 0 0 Z " fill="#D60514" transform="translate(31,1)"/>
<path d="M0 0 C19.79118662 -2.2517238 19.79118662 -2.2517238 26.109375 2.61328125 C28.85848719 5.20549908 31.2454427 8.03993838 33.50965595 11.06083584 C38.44392223 17.48106635 44.10618432 23.25233321 49.83129883 28.96069336 C50.58013336 29.71128021 51.3289679 30.46186707 52.10049438 31.23519897 C54.55018204 33.68925067 57.00346456 36.1396708 59.45703125 38.58984375 C61.1687405 40.30222718 62.88030133 42.01475899 64.59172058 43.72743225 C68.16491206 47.30209294 71.73989356 50.87495105 75.31616211 54.4465332 C79.90749073 59.03213901 84.49428065 63.62225444 89.07976246 68.21370602 C92.6062861 71.74383415 96.13517676 75.27158831 99.66480064 78.79861641 C101.35808471 80.49123224 103.05062307 82.1845944 104.74241066 83.87870598 C107.0977598 86.23658257 109.4562695 88.59125055 111.81567383 90.94506836 C112.51749283 91.64891159 113.21931183 92.35275482 113.94239807 93.07792664 C114.58292114 93.71562988 115.22344421 94.35333313 115.88337708 95.01036072 C116.44026624 95.56687285 116.9971554 96.12338499 117.57091999 96.69676113 C118.9870512 98.10696148 118.9870512 98.10696148 121 99 C120.41954364 102.69697397 118.9483067 104.46103619 116.37652588 107.12554932 C115.59774078 107.93880676 114.81895569 108.75206421 114.01657104 109.58996582 C112.72494553 110.91490051 112.72494553 110.91490051 111.40722656 112.26660156 C110.50446991 113.20352844 109.60171326 114.14045532 108.67160034 115.10577393 C105.67388555 118.21307885 102.6591715 121.30356806 99.640625 124.390625 C99.1258192 124.9172684 98.61101339 125.4439118 98.08060741 125.98651409 C93.21571991 130.96072531 88.34326448 135.92743508 83.45538712 140.87906265 C77.22398139 147.19297078 71.02979223 153.53896607 64.88175988 159.93411279 C60.54574664 164.43831588 56.16943283 168.90084007 51.76235175 173.33551764 C49.13676804 175.97976363 46.53149402 178.63830731 43.96857452 181.34345245 C26.32872078 199.91841035 26.32872078 199.91841035 14.92837143 200.40758896 C10.84821857 200.25974777 7.00964976 199.7769436 3 199 C4.44741117 195.68148114 6.25302334 193.49965138 8.80911255 190.95037842 C9.60279236 190.15394928 10.39647217 189.35752014 11.21420288 188.53695679 C12.08598175 187.67236847 12.95776062 186.80778015 13.85595703 185.91699219 C15.23164856 184.54086258 15.23164856 184.54086258 16.63513184 183.13693237 C19.1470036 180.62448703 21.66499203 178.11825394 24.18412256 175.61308956 C26.8169062 172.99281223 29.44402353 170.36686638 32.07174683 167.74151611 C37.04716681 162.77231118 42.02766287 157.80822631 47.01000202 152.8459599 C52.68256673 147.19575337 58.34945043 141.53986372 64.01586366 135.88348913 C75.67093207 124.2493233 87.33311532 112.62231655 99 101 C95.6195488 96.99221604 92.20650271 93.08116914 88.49853516 89.36914062 C87.24660873 88.11248596 87.24660873 88.11248596 85.96939087 86.83044434 C85.08488251 85.94796021 84.20037415 85.06547607 83.2890625 84.15625 C82.36209564 83.22832642 81.43512878 82.30040283 80.48007202 81.34436035 C78.52674475 79.38956748 76.57164326 77.43657184 74.61523438 75.48486328 C72.12860367 73.00392118 69.64648041 70.51852579 67.16568947 68.03174591 C64.77175941 65.63329754 62.37398713 63.23870533 59.9765625 60.84375 C59.0961026 59.96126587 58.2156427 59.07878174 57.3085022 58.16955566 C52.99990418 53.87710825 48.62629639 49.75203644 44.0161438 45.78707886 C40.0340195 42.25738512 36.30312738 38.46603351 32.5390625 34.70703125 C31.66728363 33.83858078 30.79550476 32.97013031 29.89730835 32.07536316 C28.06906638 30.25215414 26.24215036 28.42761463 24.41650391 26.60180664 C21.61771653 23.80522226 18.81100708 21.01675219 16.00390625 18.22851562 C14.22346956 16.45101028 12.44350481 14.67303206 10.6640625 12.89453125 C9.82453033 12.0621846 8.98499817 11.22983795 8.12002563 10.37226868 C7.34516815 9.59433456 6.57031067 8.81640045 5.77197266 8.01489258 C5.08994781 7.33429276 4.40792297 6.65369293 3.70523071 5.95246887 C2.04172053 4.04776951 1.00823371 2.30744729 0 0 Z " fill="#D70514" transform="translate(92,1)"/>
<path d="M0 0 C3.35296826 -0.23431575 6.70381917 -0.37502583 10.0625 -0.5 C11.00544922 -0.56703125 11.94839844 -0.6340625 12.91992188 -0.703125 C13.84482422 -0.72890625 14.76972656 -0.7546875 15.72265625 -0.78125 C16.56578369 -0.82314453 17.40891113 -0.86503906 18.27758789 -0.90820312 C21.38129148 0.12719974 22.05557862 1.00406379 24.10037231 3.47889709 C28.21217723 8.30627176 32.62885556 12.76929294 37.11645508 17.24584961 C38.0018396 18.13298645 38.88722412 19.02012329 39.79943848 19.93414307 C42.20423997 22.34256615 44.61123644 24.74875071 47.01944184 27.15376735 C49.54642389 29.67820066 52.0709461 32.20509207 54.59587097 34.73158264 C58.82798851 38.96551257 63.06219517 43.19734463 67.29760742 47.42797852 C72.19552944 52.32043857 77.08981025 57.21651908 81.98225671 62.11445421 C86.19117147 66.32790152 90.40202485 70.53940396 94.61451644 74.74927527 C97.12727099 77.26047055 99.6393442 79.77233739 102.14966774 82.28596306 C104.94043053 85.08014152 107.73525386 87.87023596 110.53051758 90.65991211 C111.77961159 91.91204247 111.77961159 91.91204247 113.05393982 93.18946838 C114.19142166 94.32272049 114.19142166 94.32272049 115.35188293 95.47886658 C116.01201291 96.13861953 116.67214289 96.79837248 117.3522768 97.47811794 C118.93940102 99.08567693 118.93940102 99.08567693 121 100 C121 100.66 121 101.32 121 102 C119.5540123 103.42709923 119.5540123 103.42709923 117.54046631 105.09262085 C112.91975722 109.02522497 108.63560927 113.2235849 104.35253906 117.51806641 C103.52874252 118.34011063 102.70494598 119.16215485 101.85618591 120.0091095 C99.15682584 122.70409839 96.46110454 125.40269279 93.765625 128.1015625 C91.8810663 129.985447 89.99636037 131.86918329 88.11151123 133.7527771 C84.17264049 137.68983567 80.23586695 141.62898203 76.30029297 145.56933594 C71.75893442 150.11614663 67.21396955 154.65932858 62.66713738 159.20066512 C58.74917594 163.11408177 54.83317498 167.02945219 50.91879249 170.94644868 C48.58690965 173.27988531 46.25417165 175.61245401 43.92005157 177.94365311 C41.32090058 180.54026364 38.72497824 183.14005976 36.12988281 185.74072266 C35.3620195 186.50656174 34.59415619 187.27240082 33.80302429 188.06144714 C30.92257161 190.95335365 28.17866888 193.77371582 25.64648438 196.98072815 C24 199 24 199 21.52636719 199.56762695 C20.62563477 199.54144287 19.72490234 199.51525879 18.796875 199.48828125 C17.8171875 199.47216797 16.8375 199.45605469 15.828125 199.43945312 C14.81234375 199.39755859 13.7965625 199.35566406 12.75 199.3125 C11.203125 199.27866211 11.203125 199.27866211 9.625 199.24414062 C7.08185935 199.18527163 4.54166887 199.10310065 2 199 C3.90126797 195.63053177 5.85462909 192.89678647 8.5920105 190.16748047 C9.31252594 189.4442157 10.03304138 188.72095093 10.77539062 187.97576904 C11.95367432 186.80827118 11.95367432 186.80827118 13.15576172 185.6171875 C13.9869754 184.78568176 14.81818909 183.95417603 15.67459106 183.09747314 C17.94794565 180.82527087 20.22566987 178.55756233 22.50542593 176.29178619 C24.89564994 173.91410751 27.28017075 171.5307229 29.66531372 169.14794922 C34.18496016 164.63451384 38.70967634 160.12619672 43.236251 155.61971092 C48.37007976 150.5081805 53.49828582 145.39102521 58.6259954 140.27335739 C67.39746814 131.51925059 76.17312343 122.76935611 84.95355225 114.02423096 C85.67970734 113.30096619 86.40586243 112.57770142 87.15402222 111.83251953 C88.15942865 110.83481537 88.15942865 110.83481537 89.18514633 109.81695557 C90.30941017 108.69138965 91.42449508 107.55647113 92.52447891 106.40716553 C94.71021739 104.13049819 95.93732466 103.02089178 99 102 C93.85810794 95.9380166 88.40167945 90.2743769 82.76000977 84.67822266 C81.38120828 83.30412777 80.00240784 81.93003181 78.62364757 80.55589557 C77.1573182 79.09541244 75.68975997 77.63617434 74.2218647 76.17726517 C71.1558302 73.12965559 68.0942611 70.07758611 65.03343201 67.02474976 C56.33505697 58.35043409 47.630648 49.68218764 38.92211914 41.01806641 C34.0998654 36.22032466 29.28118444 31.41902339 24.46633953 26.61384618 C21.42214905 23.57620517 18.37350403 20.5431287 15.32150757 17.51333165 C12.98842933 15.19468504 10.66182666 12.86955601 8.33422852 10.54541016 C7.48495789 9.70490112 6.63568726 8.86439209 5.76068115 7.99841309 C4.9966951 7.23312286 4.23270905 6.46783264 3.4455719 5.67935181 C2.77622399 5.01314631 2.10687609 4.3469408 1.41724491 3.66054726 C0 2 0 2 0 0 Z " fill="#DA0514" transform="translate(1,1)"/>
</svg>
