<?xml version="1.0" encoding="UTF-8"?>
<svg version="1.1" xmlns="http://www.w3.org/2000/svg" width="3840" height="2160">
<path d="M0 0 C212.85 0 425.7 0 645 0 C648.96 9.405 648.96 9.405 653 19 C655.59360715 24.60503488 655.59360715 24.60503488 658.21875 30.1953125 C662.5906082 39.47087326 666.65087533 48.89588997 670.74633789 58.29589844 C674.47889444 66.86242167 678.35378336 75.35525977 682.3203125 83.81640625 C685.80286875 91.28897694 689.12924094 98.8238541 692.4375 106.375 C695.45463397 113.26112295 698.47769319 120.13870849 701.6875 126.9375 C706.5565986 137.26275163 711.12601956 147.72027684 715.70703125 158.17578125 C720.21079435 168.44974891 724.72800798 178.70637405 729.515625 188.8515625 C731.72823371 193.54462203 733.86320399 198.27207262 736 203 C736.81189178 204.79194237 737.62440257 206.58360438 738.4375 208.375 C739.06205078 209.75171875 739.06205078 209.75171875 739.69921875 211.15625 C740.56821756 213.05604319 741.44587563 214.95189871 742.33203125 216.84375 C745.95739864 224.59384667 749.35337251 232.42492393 752.66503906 240.31396484 C756.30236741 250.312863 756.30236741 250.312863 762 259 C765.34727515 251.82364495 768.61882596 244.62063315 771.8125 237.375 C774.59284882 231.07795427 777.47100644 224.83643752 780.4375 218.625 C784.71879801 209.65663299 788.81354792 200.61168507 792.86621094 191.53808594 C797.85687253 180.36605367 802.87747331 169.21246478 808.0703125 158.1328125 C814.98119556 143.35960144 821.72217206 128.51425392 828.20800781 113.54931641 C830.59677539 108.0660503 833.11888148 102.69148722 835.82568359 97.35839844 C837.63239902 93.72994293 839.2548328 90.02707041 840.875 86.3125 C843.60420565 80.11274353 846.39943781 73.95426697 849.28466797 67.82543945 C851.74813407 62.57619106 854.12917164 57.29164505 856.5 52 C859.65815567 44.95228444 862.88137296 37.94195164 866.16796875 30.953125 C868.84984915 25.20816799 871.41433943 19.40872062 873.98046875 13.61132812 C874.34398437 12.79599609 874.7075 11.98066406 875.08203125 11.140625 C875.40405518 10.41391602 875.7260791 9.68720703 876.05786133 8.93847656 C877 7 877 7 879 4 C882.0168483 3.700575 884.82897646 3.60006314 887.84890431 3.62510318 C888.78290734 3.62102046 889.71691037 3.61693773 890.67921653 3.6127313 C893.85093821 3.60260256 897.02222875 3.61410163 900.19394207 3.62526989 C902.48383085 3.62244735 904.77371832 3.61830907 907.0636026 3.61296466 C913.4123847 3.60202581 919.7610291 3.60999099 926.10980636 3.6207987 C932.2866439 3.62985444 938.4634717 3.62189167 944.64030901 3.61576103 C957.43658196 3.60356946 970.23281747 3.60568446 983.02909088 3.61546707 C996.00451866 3.62533373 1008.9799237 3.62870984 1021.95535469 3.62409019 C1022.77366536 3.62380316 1023.59197602 3.62351612 1024.43508398 3.62322038 C1027.76774015 3.62202899 1031.1003963 3.62078985 1034.43305243 3.61949047 C1065.50747472 3.6073764 1096.58187969 3.60993941 1127.6563015 3.62167931 C1157.61696744 3.63298169 1187.57762567 3.63896862 1217.53829384 3.63749123 C1219.41802689 3.63740582 1221.29775994 3.63732094 1223.177493 3.63723659 C1230.73103897 3.63688876 1238.28458495 3.63650367 1245.83813092 3.63607101 C1266.95618851 3.63487618 1288.07424604 3.63469459 1309.19230366 3.63527393 C1310.6350101 3.63531297 1310.6350101 3.63531297 1312.10686212 3.6353528 C1342.76944252 3.63625191 1373.43202051 3.64155335 1404.09459972 3.6499815 C1405.08956486 3.65025469 1406.08453 3.65052788 1407.1096456 3.65080934 C1423.26824099 3.65526327 1439.42683631 3.65997793 1455.58543163 3.66470823 C1519.64346468 3.68344421 1583.70148594 3.68987509 1647.75952148 3.68432617 C1651.8054968 3.68397919 1655.85147211 3.68363357 1659.89744743 3.68328788 C1660.89779804 3.68320228 1661.89814866 3.68311667 1662.92881293 3.68302848 C1674.00725329 3.68208236 1685.08569366 3.68117064 1696.16413403 3.68030071 C1697.15759601 3.68022179 1698.151058 3.68014288 1699.17462489 3.68006157 C1752.81299109 3.67583867 1806.45135596 3.68114501 1860.0897215 3.689812 C1861.98092423 3.69011529 1863.87212696 3.69041819 1865.76332969 3.6907207 C1866.69821062 3.69087029 1867.63309154 3.69101989 1868.5963022 3.69117401 C1870.48241163 3.69147543 1872.36852106 3.69177642 1874.2546305 3.69207697 C1878.95353478 3.69282584 1883.65243906 3.69358183 1888.35134333 3.69435314 C1908.95164708 3.69770193 1929.55194985 3.69977049 1950.15225387 3.69841743 C1951.08059484 3.69835689 1952.00893581 3.69829635 1952.96540832 3.69823397 C1957.63957546 3.69792199 1962.31374259 3.69758857 1966.98790972 3.69724765 C2000.7748464 3.69479653 2034.56177161 3.69885687 2068.34870514 3.71445765 C2071.67794725 3.71596759 2075.00718937 3.71744763 2078.3364315 3.7189045 C2079.15348865 3.71926524 2079.97054579 3.71962598 2080.81236224 3.71999765 C2093.74709091 3.72553302 2106.68180999 3.72439949 2119.6165389 3.72049966 C2132.33724912 3.71680905 2145.05794077 3.72028215 2157.77864688 3.73136387 C2164.58271982 3.73709993 2171.38675137 3.73947963 2178.19082513 3.73319729 C2184.38225458 3.72754947 2190.57360812 3.73111701 2196.76502997 3.74199607 C2198.98947175 3.74430102 2201.21392016 3.74327252 2203.43835795 3.73847352 C2215.15979739 3.71509614 2226.42541625 4.07926494 2238 6 C2240.3626649 6.33767435 2242.72588438 6.67151031 2245.08984375 7 C2247.37255815 7.33221995 2249.65511187 7.66554587 2251.9375 8 C2253.09056641 8.165 2254.24363281 8.33 2255.43164062 8.5 C2261.40892891 9.37689731 2267.16122436 10.46316779 2273 12 C2274.66599167 12.35701035 2276.33416514 12.70392709 2278.00390625 13.04296875 C2294.30637379 16.3821699 2310.05314601 20.98020461 2325.8203125 26.27197266 C2328.00811908 27.00271182 2330.20046649 27.71798044 2332.39453125 28.4296875 C2341.10481261 31.26889673 2349.60736487 34.30932567 2358 38 C2359.3080969 38.54546387 2360.61672909 39.08964513 2361.92578125 39.6328125 C2374.85176364 45.08614476 2386.90823167 51.91429396 2399 59 C2400.44052734 59.82322754 2400.44052734 59.82322754 2401.91015625 60.66308594 C2402.82667969 61.19450195 2403.74320313 61.72591797 2404.6875 62.2734375 C2405.51636719 62.74958496 2406.34523438 63.22573242 2407.19921875 63.71630859 C2407.79347656 64.13992676 2408.38773438 64.56354492 2409 65 C2409 65.66 2409 66.32 2409 67 C2409.72574219 67.268125 2410.45148437 67.53625 2411.19921875 67.8125 C2413.96864024 68.98670381 2416.30919434 70.3394324 2418.8125 72 C2419.60269531 72.515625 2420.39289062 73.03125 2421.20703125 73.5625 C2422.09455078 74.2740625 2422.09455078 74.2740625 2423 75 C2423 75.66 2423 76.32 2423 77 C2423.57234375 77.268125 2424.1446875 77.53625 2424.734375 77.8125 C2427.07884634 79.04132636 2429.12404938 80.42522176 2431.25 82 C2431.95640625 82.515625 2432.6628125 83.03125 2433.390625 83.5625 C2433.92171875 84.036875 2434.4528125 84.51125 2435 85 C2435 85.66 2435 86.32 2435 87 C2435.58773193 87.26393555 2436.17546387 87.52787109 2436.78100586 87.79980469 C2440.65264611 89.89387262 2443.48315175 93.1457163 2446.5625 96.25 C2447.27414307 96.96655762 2447.98578613 97.68311523 2448.71899414 98.42138672 C2459.02515328 108.95429763 2467.29473572 120.4808378 2475 133 C2475.54269531 133.84949219 2476.08539062 134.69898438 2476.64453125 135.57421875 C2483.39944667 146.35713122 2488.2576864 157.87278565 2492 170 C2492.49724394 171.43845567 2492.99709594 172.8760134 2493.5 174.3125 C2494.00963845 175.87188286 2494.50856657 177.43478454 2495 179 C2495.3196875 180.01707031 2495.639375 181.03414062 2495.96875 182.08203125 C2499.06248591 192.7108891 2500.45632818 203.41735486 2501.7019043 214.39501953 C2501.88634862 216.00683024 2502.08107071 217.61754615 2502.29223633 219.22607422 C2504.60620539 237.49117059 2503.30960879 256.21939158 2501.1875 274.4375 C2501.10472809 275.15822693 2501.02195618 275.87895386 2500.93667603 276.621521 C2497.3240234 307.49648826 2488.40007943 338.17813105 2472.96972656 365.27636719 C2471.64522078 367.63059951 2470.42723509 370.03777887 2469.1875 372.4375 C2462.44721386 384.71979919 2454.24218055 397.43158726 2445 408 C2444.34 408 2443.68 408 2443 408 C2442.75636719 408.56203125 2442.51273438 409.1240625 2442.26171875 409.703125 C2440.75819064 412.44019785 2438.93300252 414.45795941 2436.8125 416.75 C2433.96113296 419.85188651 2431.15862827 422.97105114 2428.4375 426.1875 C2425.53909932 429.51331461 2422.42422901 432.41047195 2419.05859375 435.2578125 C2416.20050608 437.67661155 2413.43815841 440.20047395 2410.6640625 442.71484375 C2409 444 2409 444 2407 444 C2406.67 444.99 2406.34 445.98 2406 447 C2403.62890625 449.015625 2403.62890625 449.015625 2400.5625 451.25 C2400.01754883 451.64840088 2399.47259766 452.04680176 2398.91113281 452.45727539 C2397.2795515 453.64571998 2395.63986696 454.82301467 2394 456 C2393.18917969 456.59167969 2392.37835937 457.18335938 2391.54296875 457.79296875 C2384.518924 462.83065672 2377.17180256 467.35642501 2369.8125 471.88232422 C2368.30738981 472.81044847 2366.80904795 473.74953814 2365.3125 474.69140625 C2357.82420804 479.3336413 2349.907538 483.13452857 2342 487 C2342.589021 487.62660522 2342.589021 487.62660522 2343.18994141 488.26586914 C2345.00319511 490.19661401 2346.81410505 492.12954272 2348.625 494.0625 C2349.24246094 494.71927734 2349.85992188 495.37605469 2350.49609375 496.05273438 C2353.52522432 499.28912125 2356.52858594 502.54655525 2359.4609375 505.87109375 C2359.95126465 506.42595459 2360.4415918 506.98081543 2360.94677734 507.55249023 C2362 509 2362 509 2362 511 C2362.66 511 2363.32 511 2364 511 C2365.7265625 512.6796875 2365.7265625 512.6796875 2367.625 514.875 C2368.25664062 515.59429688 2368.88828125 516.31359375 2369.5390625 517.0546875 C2371 519 2371 519 2371 521 C2371.66 521 2372.32 521 2373 521 C2374.4453125 522.3984375 2374.4453125 522.3984375 2376.125 524.375 C2377.053125 525.46361328 2377.053125 525.46361328 2378 526.57421875 C2380.07283669 529.08834294 2382.10259201 531.63267779 2384.125 534.1875 C2386.90317827 537.68972087 2389.7444172 540.92528291 2393 544 C2394.36984198 545.29579647 2395.7151049 546.61992749 2397 548 C2397 548.66 2397 549.32 2397 550 C2397.66 550 2398.32 550 2399 550 C2400.49629179 551.6785513 2401.92292661 553.41958898 2403.3125 555.1875 C2405.70097259 558.2166834 2408.0359822 561.03527765 2410.79296875 563.73828125 C2413 566 2413 566 2413 568 C2501.11 568 2589.22 568 2680 568 C2680 441.61 2680 315.22 2680 185 C2632.48 185 2584.96 185 2536 185 C2535 184 2535 184 2534.87695217 181.08144283 C2534.87787396 179.76235707 2534.87879576 178.44327131 2534.87974548 177.08421326 C2534.87889106 176.35240296 2534.87803663 175.62059266 2534.87715632 174.8666063 C2534.87549934 172.39599121 2534.88102641 169.9254429 2534.88647461 167.45483398 C2534.88675646 165.69116213 2534.88659879 163.92749015 2534.8860321 162.16381836 C2534.88574405 157.36030157 2534.89164208 152.55680953 2534.89860606 147.75329852 C2534.90483826 142.73910315 2534.90544329 137.72490727 2534.90663147 132.71070862 C2534.90974518 123.2086324 2534.91795911 113.70656762 2534.92798096 104.20449644 C2534.93914086 93.38968661 2534.94465224 82.57487625 2534.94967639 71.7600621 C2534.96014169 49.50670167 2534.9777419 27.25335155 2535 5 C2538.10341338 3.44829331 2541.38450518 3.86313211 2544.79039001 3.87301636 C2545.60585613 3.87145637 2546.42132225 3.86989638 2547.26149946 3.86828911 C2550.01411336 3.86427921 2552.76667273 3.86746984 2555.51928711 3.87060547 C2557.49013298 3.86925049 2559.46097859 3.86747001 2561.43182373 3.86529541 C2566.82814543 3.86070609 2572.22444815 3.86252366 2577.62077022 3.8656745 C2583.35578761 3.86822166 2589.09080346 3.86585117 2594.82582092 3.86428833 C2604.55388676 3.86246046 2614.28194507 3.86487548 2624.01000977 3.86962891 C2634.99408734 3.87493681 2645.97814597 3.87341367 2656.96222299 3.8678025 C2666.5338843 3.86312093 2676.10554019 3.86269458 2685.67720228 3.86524117 C2691.32566191 3.86674266 2696.974113 3.86718352 2702.62257195 3.86370468 C2725.34271635 3.85167164 2748.05987813 3.9342645 2770.77828979 4.21269226 C2771.61450196 4.22291559 2772.45071413 4.23313892 2773.31226606 4.24367205 C2776.82418043 4.28668957 2780.33609243 4.3298976 2783.84800384 4.3731564 C2825.51700382 4.88550706 2867.18479083 5.15339077 2908.85644531 5.29711914 C2909.59324338 5.29966821 2910.33004144 5.30221727 2911.08916672 5.30484358 C2930.58318213 5.37213273 2950.07721734 5.43247176 2969.57126187 5.49062459 C2981.17794256 5.52530502 2992.78461691 5.56171957 3004.39128876 5.59924126 C3005.64642037 5.60329719 3005.64642037 5.60329719 3006.92690817 5.60743506 C3011.18093387 5.62118806 3015.43495949 5.63496433 3019.68898508 5.64874845 C3049.52100083 5.74535998 3079.35302614 5.83863664 3109.18505859 5.92993164 C3137.97380234 6.01803761 3166.7625391 6.10808078 3195.55126953 6.20043945 C3196.44185295 6.20329604 3197.33243636 6.20615262 3198.25000716 6.20909577 C3205.41943084 6.23209271 3212.5888545 6.25509578 3219.75827813 6.27811037 C3250.85269253 6.37792064 3281.94711193 6.47615328 3313.04153227 6.5740948 C3318.84392959 6.59237593 3324.64632672 6.61071383 3330.44872379 6.62907338 C3347.85355288 6.68412203 3365.25838331 6.73867757 3382.66321823 6.79185278 C3389.83911866 6.81378428 3397.01501832 6.83590963 3404.19091606 6.85870743 C3412.02345414 6.88355859 3419.8559944 6.90761211 3427.6885376 6.93080139 C3428.91180093 6.93442602 3430.13506426 6.93805065 3431.39539617 6.94178511 C3450.18086989 6.99613386 3468.96617876 7.01526249 3487.75172257 6.99243838 C3503.77828474 6.97663402 3519.79885553 7.14760927 3535.82318115 7.40527344 C3537.8850291 7.43765752 3539.94689683 7.46789272 3542.00878906 7.49731445 C3565.67824936 7.83525093 3589.33344268 8.42276689 3613 9 C3613 117.57 3613 226.14 3613 338 C3605.12495457 339.12500649 3605.12495457 339.12500649 3601.52381516 339.12584114 C3600.70358014 339.12844889 3599.88334512 339.13105664 3599.0382545 339.13374341 C3598.15799074 339.13151268 3597.27772699 339.12928196 3596.37078857 339.12698364 C3595.41954015 339.12854363 3594.46829173 339.13010362 3593.48821759 339.13171089 C3590.31081405 339.13568953 3587.13345856 339.13254343 3583.95605469 339.12939453 C3581.67420422 339.13074992 3579.39235398 339.13253064 3577.11050415 339.13470459 C3570.92082654 339.13926144 3564.7311656 339.1374968 3558.54148769 339.1343255 C3552.06731051 339.13179412 3545.59313476 339.1341415 3539.11895752 339.13571167 C3527.55513916 339.13764706 3515.99132934 339.13454036 3504.42751232 339.12945233 C3493.93930133 339.12498055 3483.45110141 339.12576443 3472.96289062 339.13037109 C3460.77966423 339.13571974 3448.59644652 339.13771647 3436.41321874 339.13475883 C3429.96503893 339.13319756 3423.51686676 339.13299833 3417.06868744 339.13629532 C3411.01125196 339.13917629 3404.95383747 339.13719415 3398.89640427 339.13140106 C3396.66910461 339.13007492 3394.4418032 339.13046512 3392.21450424 339.13266373 C3389.18340432 339.13538077 3386.1523724 339.13198728 3383.12127686 339.12698364 C3382.23209021 339.12921436 3381.34290357 339.13144509 3380.42677188 339.13374341 C3377.03628121 339.12282528 3374.23902478 339.07967493 3371 338 C3371 287.51 3371 237.02 3371 185 C3231.41 185 3091.82 185 2948 185 C2948.495 244.4 2948.495 244.4 2949 305 C3108.885 305.495 3108.885 305.495 3272 306 C3272 368.37 3272 430.74 3272 495 C3267.65157291 496.73937083 3265.88450375 497.24989457 3261.47646236 497.24888897 C3260.37170431 497.25348777 3259.26694626 497.25808656 3258.12871069 497.26282471 C3256.92035466 497.25768115 3255.71199863 497.25253759 3254.46702576 497.24723816 C3253.1792569 497.24965257 3251.89148805 497.25206699 3250.56469589 497.25455457 C3246.9921791 497.26096757 3243.41977566 497.25490033 3239.84726632 497.24679029 C3235.99379561 497.24021265 3232.14033756 497.2451619 3228.28686523 497.24867249 C3220.73895253 497.25371493 3213.19108363 497.24807237 3205.64317637 497.23882218 C3196.85672494 497.22844091 3188.070283 497.2285083 3179.2838266 497.22899476 C3163.60921173 497.22949545 3147.93461727 497.22033188 3132.26000977 497.20581055 C3117.04320911 497.1917206 3101.82642641 497.18463988 3086.60961914 497.18530273 C3085.67229076 497.18534269 3084.73496239 497.18538265 3083.76923012 497.18542381 C3082.83353666 497.18546417 3081.8978432 497.18550452 3080.93379539 497.1855461 C3063.61914513 497.18623564 3046.30450252 497.1803479 3028.98985473 497.17139288 C3022.86217278 497.16837441 3016.73449223 497.16731307 3010.60680962 497.16686058 C3003.14218539 497.16617899 2995.67757405 497.16172181 2988.21295529 497.15252777 C2984.40289417 497.14790564 2980.59284953 497.14486582 2976.78278542 497.14612198 C2972.65716873 497.14741625 2968.53160108 497.14097971 2964.4059906 497.13371277 C2963.19540385 497.13526137 2961.9848171 497.13680997 2960.73754591 497.1384055 C2959.08432045 497.13356883 2959.08432045 497.13356883 2957.3976965 497.12863445 C2956.44503051 497.12793003 2955.49236452 497.1272256 2954.51082987 497.12649983 C2952 497 2952 497 2948 496 C2948.495 531.145 2948.495 531.145 2949 567 C3000.48 567.33 3051.96 567.66 3105 568 C3105 629.38 3105 690.76 3105 754 C3003.0914792 754.12078469 3003.0914792 754.12078469 2971.56819153 754.15390015 C2970.44392893 754.15508415 2969.31966632 754.15626815 2968.16133516 754.15748803 C2930.32966344 754.19722267 2892.49798955 754.22873343 2854.66630554 754.25405884 C2853.43206574 754.25488718 2852.19782594 754.25571552 2850.92618493 754.25656897 C2824.10534336 754.27452478 2797.28450112 754.29114611 2770.46365787 754.30639198 C2757.31146513 754.31387625 2744.15927256 754.32165554 2731.00708008 754.32958984 C2729.69825167 754.3303744 2728.38942327 754.33115895 2727.0409334 754.33196728 C2684.58827164 754.35755315 2642.13565768 754.40263423 2599.6830249 754.45778332 C2556.07160346 754.51433512 2512.46020849 754.55130248 2468.84875101 754.56348994 C2462.69444201 754.56521897 2456.54013309 754.56717279 2450.3858242 754.56926346 C2449.1745215 754.569668 2447.96321879 754.57007253 2446.71520994 754.57048933 C2427.185944 754.57759039 2407.65675969 754.60544763 2388.12752709 754.6409922 C2368.5125911 754.67625252 2348.89773637 754.68982377 2329.28276978 754.68100826 C2317.61711165 754.67643128 2305.95175002 754.68873094 2294.28614522 754.72478526 C2286.50378045 754.74720291 2278.72161091 754.74804004 2270.93923291 754.73099088 C2266.49822886 754.72188966 2262.0577874 754.72249203 2257.61684255 754.74929909 C2253.58115932 754.77347596 2249.54648067 754.77032319 2245.51081392 754.74483985 C2244.05563226 754.74053436 2242.60037808 754.74641363 2241.14528933 754.76341147 C2230.25275444 754.88264353 2230.25275444 754.88264353 2227.08409616 752.65012641 C2225.73149651 751.01635706 2225.73149651 751.01635706 2224 748 C2223.34 747.67 2222.68 747.34 2222 747 C2222 746.34 2222 745.68 2222 745 C2221.41347656 744.7421875 2220.82695312 744.484375 2220.22265625 744.21875 C2217.82662877 742.90493528 2216.31088448 741.4781599 2214.4375 739.5 C2212.32475777 737.27903267 2210.58386374 735.72257583 2208 734 C2208 733.34 2208 732.68 2208 732 C2207.41476563 731.74347656 2206.82953125 731.48695313 2206.2265625 731.22265625 C2203.80765392 729.89437838 2202.26801128 728.43475199 2200.375 726.4375 C2197.95478041 723.85984611 2197.95478041 723.85984611 2195 722 C2195 721.34 2195 720.68 2195 720 C2194.443125 719.773125 2193.88625 719.54625 2193.3125 719.3125 C2190.36703501 717.6407496 2188.35675815 715.41718785 2186 713 C2185.01 712.34 2184.02 711.68 2183 711 C2183 710.34 2183 709.68 2183 709 C2182.46375 708.773125 2181.9275 708.54625 2181.375 708.3125 C2177.15009434 705.97768371 2173.15106871 702.67624683 2170 699 C2170 698.34 2170 697.68 2170 697 C2169.01 696.67 2168.02 696.34 2167 696 C2167 695.34 2167 694.68 2167 694 C2166.41089844 693.72800781 2165.82179688 693.45601562 2165.21484375 693.17578125 C2159.69846576 690.24733367 2155.37231057 685.37231057 2151 681 C2150.01 680.175 2149.02 679.35 2148 678.5 C2145.15767113 676.13139261 2142.61399777 673.61399777 2140 671 C2138.989375 670.175 2137.97875 669.35 2136.9375 668.5 C2134.20391592 666.17354547 2132.20311163 663.81086656 2130 661 C2129.01 660.34 2128.02 659.68 2127 659 C2127 658.34 2127 657.68 2127 657 C2126.46375 656.773125 2125.9275 656.54625 2125.375 656.3125 C2122.17539839 654.54429911 2119.70962777 652.46329797 2117 650 C2117 649.34 2117 648.68 2117 648 C2116.01 647.67 2115.02 647.34 2114 647 C2114 646.34 2114 645.68 2114 645 C2113.42185547 644.74404053 2112.84371094 644.48808105 2112.24804688 644.22436523 C2109.77736983 642.8787478 2108.05658446 641.35927108 2106.03125 639.41015625 C2105.29519531 638.70826172 2104.55914063 638.00636719 2103.80078125 637.28320312 C2103.04152344 636.55037109 2102.28226563 635.81753906 2101.5 635.0625 C2099.99135038 633.61404269 2098.48099139 632.16736322 2096.96875 630.72265625 C2096.30294922 630.08078369 2095.63714844 629.43891113 2094.95117188 628.77758789 C2093.01732382 626.94568505 2093.01732382 626.94568505 2090.75195312 625.39233398 C2090.17380859 624.93286377 2089.59566406 624.47339355 2089 624 C2089 623.34 2089 622.68 2089 622 C2088.443125 621.773125 2087.88625 621.54625 2087.3125 621.3125 C2084.35812928 619.63569499 2082.36897657 617.42675648 2080 615 C2078.34106818 613.65705519 2076.67523395 612.32255312 2075 611 C2073.1875 609.375 2073.1875 609.375 2072 608 C2072 607.34 2072 606.68 2072 606 C2071.278125 605.773125 2070.55625 605.54625 2069.8125 605.3125 C2066.40840933 603.72392436 2064.60699739 601.70580487 2062 599 C2055.66524233 592.50396137 2049.45625332 586.25490873 2042.15625 580.81640625 C2039.72624194 578.76938859 2037.95859676 576.49525228 2036 574 C2034.78306657 572.8393114 2033.53318543 571.71199593 2032.25 570.625 C2031.56421875 570.03589844 2030.8784375 569.44679688 2030.171875 568.83984375 C2028.68428565 567.57967364 2027.19459527 566.32198071 2025.703125 565.06640625 C2024.97609375 564.44636719 2024.2490625 563.82632813 2023.5 563.1875 C2022.49453125 562.34251953 2022.49453125 562.34251953 2021.46875 561.48046875 C2020 560 2020 560 2020 558 C2019.41089844 557.72800781 2018.82179688 557.45601562 2018.21484375 557.17578125 C2012.73006978 554.26411112 2008.2932087 549.40618788 2004 545 C2000.52884699 541.44342397 2000.52884699 541.44342397 1996.6875 538.3125 C1996.130625 537.879375 1995.57375 537.44625 1995 537 C1995 536.34 1995 535.68 1995 535 C1994.01 534.67 1993.02 534.34 1992 534 C1992 533.34 1992 532.68 1992 532 C1991.41089844 531.72800781 1990.82179688 531.45601562 1990.21484375 531.17578125 C1984.73006978 528.26411112 1980.2932087 523.40618788 1976 519 C1972.44543118 515.39665494 1968.79756579 511.91464401 1965.0625 508.5 C1964.56298828 508.03980469 1964.06347656 507.57960938 1963.54882812 507.10546875 C1961.00726206 504.77706629 1958.43450365 502.50849992 1955.77734375 500.3125 C1953.0132888 498.01106466 1950.54178543 495.54178543 1948 493 C1946.90279531 492.09565314 1945.79855154 491.19978004 1944.6875 490.3125 C1943.800625 489.549375 1942.91375 488.78625 1942 488 C1942 487.34 1942 486.68 1942 486 C1935.06275515 481.66422197 1925.27745946 482.86213796 1917.43359375 482.88647461 C1916.19372208 482.88632858 1914.9538504 482.88618256 1913.67640686 482.8860321 C1910.29886478 482.88660678 1906.92138485 482.89160013 1903.54385376 482.89860606 C1900.00580023 482.90488428 1896.46774574 482.90544692 1892.9296875 482.90663147 C1886.2398698 482.90973166 1879.55006857 482.91792727 1872.8602581 482.92798096 C1863.81324973 482.94128015 1854.76623681 482.94665261 1845.71922112 482.95248318 C1831.47946843 482.96186811 1817.23975047 482.98179577 1803 483 C1803 509.73 1803 536.46 1803 564 C1844.58 564 1886.16 564 1929 564 C1930.47103987 566.94207974 1930.14083774 569.91141006 1930.13371277 573.13647461 C1930.13597833 573.87997886 1930.13824388 574.6234831 1930.14057809 575.38951778 C1930.14693451 577.89380867 1930.14608768 580.39804566 1930.14526367 582.90234375 C1930.1482541 584.69247508 1930.15165636 586.48260577 1930.15544128 588.2727356 C1930.16429636 593.14450034 1930.16662 598.01624754 1930.16725707 602.88801956 C1930.1682048 606.94895966 1930.17188145 611.00989564 1930.17542917 615.07083416 C1930.18357912 624.64715978 1930.18601287 634.223476 1930.18530273 643.79980469 C1930.18470149 653.69390187 1930.19526133 663.58794461 1930.2110464 673.48202801 C1930.22409934 681.96440991 1930.22948759 690.44677396 1930.22884732 698.92916584 C1930.22859171 704.00080082 1930.23147756 709.07238743 1930.24202538 714.14401245 C1930.25166889 718.91114178 1930.25181146 723.67817611 1930.24450874 728.44530869 C1930.24345828 730.19893405 1930.24585293 731.95256521 1930.2518692 733.70618057 C1930.25952716 736.09207584 1930.25498596 738.47763788 1930.24723816 740.86352539 C1930.25238172 741.56448806 1930.25752529 742.26545073 1930.26282471 742.98765469 C1930.22827146 747.77172854 1930.22827146 747.77172854 1928 750 C1925.26082096 750.251233 1925.26082096 750.251233 1921.6828633 750.25299966 C1921.02305714 750.25605276 1920.36325099 750.25910585 1919.68345071 750.26225147 C1917.44642414 750.2701181 1915.20966268 750.26359296 1912.97263432 750.25726891 C1911.35616926 750.25995919 1909.73970547 750.26352524 1908.12324408 750.26789337 C1903.64435138 750.27741031 1899.16553937 750.27433182 1894.68664254 750.26933783 C1889.82794527 750.26608772 1884.96926587 750.27433988 1880.11057419 750.28115618 C1871.58285998 750.29149301 1863.0551685 750.29429362 1854.52744865 750.29224396 C1841.84675509 750.2892035 1829.16608681 750.29749663 1816.48539814 750.30799321 C1792.52442477 750.32737201 1768.56345993 750.33296286 1744.60247964 750.33410732 C1726.10521848 750.33502506 1707.60796068 750.33913468 1689.11070061 750.34550858 C1683.79367557 750.34730355 1678.47665052 750.34908318 1673.15962547 750.35085833 C1672.16881068 750.3511901 1672.16881068 750.3511901 1671.15797943 750.35152857 C1633.29557705 750.36418021 1595.43317581 750.37242642 1557.57077122 750.37151146 C1556.15323488 750.3714799 1554.73569853 750.37144843 1553.31816219 750.37141704 C1546.91780844 750.37127027 1540.51745468 750.37109393 1534.11710093 750.37090927 C1531.2628989 750.37082703 1528.40869687 750.37074673 1525.55449484 750.37066665 C1524.1259139 750.37062586 1522.69733296 750.37058382 1521.26875201 750.37054053 C1476.08532325 750.36917973 1430.90192583 750.38381855 1385.71850586 750.41162109 C1374.33339478 750.41862281 1362.94828367 750.42556158 1351.56317234 750.43214989 C1350.86220027 750.43255564 1350.1612282 750.43296138 1349.43901456 750.43337943 C1327.84445195 750.44580374 1306.24989192 750.45333945 1284.65532589 750.45586586 C1283.97763157 750.45594576 1283.29993724 750.45602566 1282.60170673 750.45610799 C1267.72677219 750.4578143 1252.85183782 750.45833701 1237.97690321 750.45776723 C1231.99230719 750.45755023 1226.00771118 750.45745575 1220.02311516 750.45738602 C1218.71376692 750.45736271 1217.40441869 750.4573394 1216.05539323 750.45731538 C1194.93957382 750.45725371 1173.82378077 750.47005211 1152.70796921 750.48725055 C1131.5048627 750.50416351 1110.30179496 750.506215 1089.09868545 750.4930319 C1076.48618952 750.48561382 1063.87381097 750.48938551 1051.26132736 750.50891658 C1042.8504326 750.52084595 1034.43962357 750.5184047 1026.02873287 750.50397559 C1021.22724437 750.49615255 1016.42598429 750.49483127 1011.62451119 750.51089029 C1007.26417703 750.52534718 1002.90426348 750.52169629 998.54394868 750.50304256 C996.96894267 750.49957426 995.39390454 750.50293923 993.81893109 750.51364497 C991.69292728 750.5271386 989.56842908 750.51633159 987.44248587 750.49909532 C986.26169208 750.49927176 985.08089829 750.49944821 983.86432287 750.49963 C981 750 981 750 979.1196146 748.17979518 C977.49120094 745.00941114 977.6116673 741.98798504 977.67047119 738.50912476 C977.6712859 737.751661 977.67210062 736.99419725 977.67294002 736.21378005 C977.67937152 733.67397412 977.70740949 731.13486848 977.73535156 728.59521484 C977.74442229 726.7752389 977.7521772 724.95525598 977.75871277 723.13526917 C977.78033962 718.19115853 977.82078146 713.24736058 977.86481571 708.30340528 C977.90794709 703.13540565 977.93476782 697.96732061 977.96356201 692.79922485 C978.01426895 684.12191792 978.07632325 675.44475254 978.14599609 666.76757812 C978.23545858 655.61846266 978.30632607 644.46931031 978.37128067 633.32002831 C978.4271924 623.74706508 978.49156024 614.17416148 978.55733013 604.60126162 C978.57816403 601.51766078 978.59784356 598.43405411 978.61737823 595.35044479 C978.64856929 590.51268723 978.68501879 585.67499642 978.72561073 580.83730888 C978.73979915 579.05789513 978.75230572 577.27846708 978.76304436 575.49902916 C978.77797015 573.07825855 978.7989556 570.6576169 978.82159424 568.23690796 C978.8246187 567.52563669 978.82764317 566.81436541 978.83075929 566.08154047 C978.88579023 561.22841953 978.88579023 561.22841953 980 559 C1019.6 558.67 1059.2 558.34 1100 558 C1095.97741526 547.52251643 1095.97741526 547.52251643 1091.25390625 537.6015625 C1089.28306973 533.5125372 1087.76864075 529.26044157 1086.1796875 525.01171875 C1085.24706444 522.63075061 1084.26374991 520.43612071 1083.0625 518.1875 C1080.64382889 513.59496255 1078.99395772 508.71533701 1077.21337891 503.85107422 C1075.69878803 499.7518115 1074.03355635 495.87883575 1071.984375 492.015625 C1070.19606513 488.35384764 1068.85599685 484.50888705 1067.41796875 480.69921875 C1065.83408063 476.56714699 1064.18142656 472.46813276 1062.5 468.375 C1062.22760498 467.70734619 1061.95520996 467.03969238 1061.67456055 466.35180664 C1060.05221658 462.41536993 1058.34078457 458.53055973 1056.56640625 454.66015625 C1054.0593584 449.17888527 1051.73141507 443.63568067 1049.4375 438.0625 C1045.10766675 427.60309856 1040.67601951 417.19020794 1036.19897461 406.79321289 C1031.76360797 396.48571314 1027.45377252 386.12843779 1023.1875 375.75 C1022.72053711 374.61498047 1022.72053711 374.61498047 1022.24414062 373.45703125 C1021.49585411 371.6381194 1020.74788984 369.81907499 1020 368 C1016.82859361 372.70786415 1015.06956615 377.83406853 1013.125 383.125 C1010.66895934 389.69985616 1008.12559291 396.15168028 1005.1328125 402.50390625 C1003.38509412 406.35491329 1001.9258594 410.30755015 1000.4296875 414.26171875 C997.77308318 421.25567492 994.93909062 428.18143235 992.15185547 435.12402344 C990.92070203 438.1979928 989.69612823 441.27452815 988.47265625 444.3515625 C984.52538717 454.26950319 980.55238604 464.15915262 976.296875 473.94921875 C973.62483831 480.23494362 971.26168406 486.64271057 968.859375 493.03515625 C966.39829974 499.52419134 963.78020834 505.92799167 961.0625 512.3125 C958.01444727 519.47478206 955.17756121 526.68048862 952.51953125 533.99609375 C950.913195 538.32855706 949.10572709 542.57461367 947.31811523 546.8347168 C945.19650836 551.92948122 943.16397637 557.05923875 941.125 562.1875 C938.22844983 569.45494383 935.31327781 576.71244385 932.3125 583.9375 C929.63311809 590.39151992 927.06933353 596.88540366 924.5715332 603.41186523 C922.57642338 608.60256851 920.45106753 613.73206008 918.30273438 618.86108398 C916.16589552 624.00976036 914.11867004 629.19370919 912.0625 634.375 C909.35348305 641.18439463 906.62297402 647.97241307 903.6875 654.6875 C901.25166185 660.27076947 899.21904017 665.94525375 897.21484375 671.6953125 C895.75705649 675.66086883 894.02257814 679.44476342 892.234375 683.26953125 C890.22219115 687.72053287 888.54298198 692.2934724 886.81445312 696.86035156 C885.06474478 701.45700742 883.282721 706.04107025 881.5 710.625 C880.94844238 712.05537598 880.94844238 712.05537598 880.38574219 713.51464844 C878.13705679 719.29044956 875.69393586 724.93537137 873.09765625 730.56298828 C871.83269383 733.37145244 870.75185158 736.21283821 869.75 739.125 C868.0995671 743.9004329 868.0995671 743.9004329 867 745 C865.49871603 745.09681167 863.9928731 745.12371734 862.48847103 745.12304783 C861.01723322 745.1260344 861.01723322 745.1260344 859.51627344 745.12908131 C858.42582981 745.12616847 857.33538618 745.12325563 856.2118988 745.12025452 C854.48939985 745.12153615 854.48939985 745.12153615 852.73210293 745.12284368 C849.53050515 745.12421182 846.32894731 745.12106452 843.12735426 745.11606562 C839.68016852 745.11176429 836.23298479 745.11320732 832.78579712 745.1139679 C826.80859875 745.11449333 820.83141126 745.11134447 814.85421562 745.10573006 C806.21209674 745.09761773 797.56998314 745.09500011 788.92786086 745.09374207 C774.90804032 745.09155112 760.88822559 745.0848899 746.8684082 745.07543945 C733.24601267 745.06626642 719.6236187 745.05918506 706.0012207 745.05493164 C705.16213767 745.05466892 704.32305464 745.05440619 703.45854484 745.05413551 C699.24929146 745.05283051 695.04003808 745.05156679 690.83078468 745.05032361 C655.88718565 745.03994968 620.94359336 745.02233022 586 745 C582.68808789 737.35033083 582.68808789 737.35033083 581.60546875 733.42578125 C581.37520996 732.60311768 581.14495117 731.7804541 580.90771484 730.93286133 C580.67004395 730.06814209 580.43237305 729.20342285 580.1875 728.3125 C579.66373591 726.44764241 579.13896987 724.58306599 578.61328125 722.71875 C578.34725098 721.77257813 578.0812207 720.82640625 577.80712891 719.8515625 C573.46556257 704.29777939 573.46556257 704.29777939 567.85546875 689.17578125 C566.59180207 685.96179795 565.76637372 682.6663026 564.89453125 679.328125 C561.42075409 666.40385364 557.27681077 653.66049644 553.17749023 640.92456055 C547.67589574 623.80863328 542.35541594 606.63514485 537.23999023 589.39990234 C535.23088195 582.67426875 533.09043287 575.9932917 530.9375 569.3125 C528.59062343 562.01641282 526.25525619 554.71912394 524.0625 547.375 C523.86325928 546.71927002 523.66401855 546.06354004 523.45874023 545.38793945 C522.54210589 542.27252489 521.91336485 539.32975284 521.49609375 536.1015625 C521.33238281 535.07804687 521.16867187 534.05453125 521 533 C520.34 532.67 519.68 532.34 519 532 C518.2890625 529.6640625 518.2890625 529.6640625 517.625 526.625 C516.6905662 522.65016964 515.66031306 518.86981344 514.1875 515.0625 C511.47756121 507.91243072 509.52523577 500.54016585 507.46484375 493.18359375 C505.46805888 486.06946096 503.36343342 479.00144937 501 472 C496.43459389 457.96411085 492.00559348 443.88703154 487.70263672 429.76855469 C486.07140713 424.42706081 484.39663259 419.11558687 482.54492188 413.84594727 C481.85767734 411.5178756 481.76677823 409.40995827 482 407 C481.34 406.67 480.68 406.34 480 406 C479.11553385 403.43986158 478.34376605 400.9195021 477.625 398.3125 C477.40730957 397.54953613 477.18961914 396.78657227 476.96533203 396.00048828 C476.10640147 392.98325155 475.26665897 389.9608369 474.42773438 386.93798828 C473.91258511 385.08298263 473.39387154 383.22896792 472.875 381.375 C472.58367188 380.31023437 472.29234375 379.24546875 471.9921875 378.1484375 C470.88336784 374.62989952 469.50158082 371.36795246 468 368 C467.69296143 368.70495605 467.38592285 369.40991211 467.06958008 370.13623047 C465.65330299 373.38369398 464.23292775 376.62934995 462.8125 379.875 C462.32974609 380.98359375 461.84699219 382.0921875 461.34960938 383.234375 C458.77452137 389.11041474 456.09744837 394.89569669 453.19018555 400.61425781 C451.1690262 404.66569763 449.33936224 408.80115058 447.5 412.9375 C446.71110706 414.70189874 445.92204618 416.4662224 445.1328125 418.23046875 C444.76188477 419.0611084 444.39095703 419.89174805 444.00878906 420.74755859 C442.81127426 423.42139006 441.5955503 426.08661376 440.375 428.75 C438.40770036 433.06188963 436.51395121 437.40345316 434.625 441.75 C431.72929263 448.40680764 428.70083758 454.99288071 425.61328125 461.5625 C422.71611558 467.7356375 419.8998183 473.94290717 417.16015625 480.1875 C414.04574576 487.27170327 410.90506159 494.29919398 407.375 501.1875 C404.98062824 505.8841523 402.89817552 510.59070807 401 515.5 C398.66490457 521.53930723 395.93670806 527.26642515 392.96875 533.02734375 C390.74809093 537.4327008 388.75960277 541.93444046 386.7734375 546.44921875 C386.40822998 547.2753064 386.04302246 548.10139404 385.66674805 548.95251465 C384.7761681 550.96761575 383.88728849 552.98344799 383 555 C384.23805893 554.99777939 385.47611786 554.99555878 386.75169373 554.99327087 C398.39185222 554.97304146 410.03200717 554.95802883 421.67217922 554.94818783 C427.65719266 554.94295849 433.64219196 554.93585992 439.62719727 554.92456055 C445.39783429 554.91373347 451.16845768 554.90772355 456.93910408 554.90512276 C459.14602943 554.90326818 461.352954 554.89964696 463.55987358 554.89426994 C466.63946041 554.8870619 469.71899014 554.88600896 472.79858398 554.88647461 C473.72071182 554.88287933 474.64283966 554.87928406 475.59291077 554.87557983 C481.88594784 554.88594784 481.88594784 554.88594784 483 556 C483.09772312 558.4915272 483.12995818 560.95530508 483.12025452 563.44728088 C483.12110894 564.23626091 483.12196337 565.02524094 483.12284368 565.83812946 C483.12450089 568.50221627 483.11897321 571.16624118 483.11352539 573.83032227 C483.11324354 575.73192341 483.1134012 577.63352466 483.1139679 579.53512573 C483.11425597 584.71466284 483.10835763 589.89417701 483.10139394 595.07370877 C483.09516206 600.48028527 483.09455673 605.88686224 483.09336853 611.29344177 C483.09025472 621.53925291 483.08204067 631.78505343 483.07201904 642.03085989 C483.06085943 653.69208663 483.05534784 665.35331386 483.05032361 677.01454461 C483.0398581 701.0097023 483.0222577 725.00485056 483 749 C478.17860533 750.24404651 473.45847942 750.1387265 468.51688766 750.12584114 C467.55242179 750.12729458 466.58795591 750.12874802 465.59426379 750.13024551 C462.34348686 750.13391195 459.09275662 750.13041608 455.84197998 750.12698364 C453.49549054 750.1281352 451.14900129 750.12972296 448.80251241 750.13171089 C443.01796129 750.13545973 437.23342392 750.13453505 431.44887261 750.13166012 C424.52138479 750.12847562 417.59390226 750.13108333 410.6664147 750.13387203 C397.09406272 750.13914217 383.52171545 750.1386797 369.94936302 750.13579312 C358.07463232 750.1332799 346.19990334 750.13261978 334.32517242 750.13381577 C333.53821628 750.13389215 332.75126013 750.13396854 331.94045682 750.13404724 C328.74617858 750.13435856 325.55190033 750.13467696 322.35762208 750.135007 C292.38297829 750.13806719 262.40833749 750.13529042 232.43369416 750.1299101 C205.78131533 750.12516251 179.12894128 750.12559054 152.4765625 750.13037109 C122.55152604 750.13572068 92.62649223 750.13785204 62.70145535 750.13475883 C59.51415841 750.1344381 56.32686146 750.13412526 53.13956451 750.13381577 C51.96232019 750.13369715 51.96232019 750.13369715 50.76129316 750.13357614 C38.88892402 750.13243676 27.0165568 750.13377244 15.14418793 750.13629532 C1.6532879 750.1391478 -11.83760668 750.13845419 -25.32850602 750.13301457 C-32.21862425 750.13032839 -39.10873361 750.12924613 -45.99885178 750.13266373 C-52.29508373 750.13562399 -58.59129686 750.13403844 -64.88752708 750.12868617 C-67.17607458 750.12756085 -69.46462365 750.12815569 -71.75317016 750.13056196 C-74.84222077 750.13356302 -77.9312052 750.13052454 -81.02025223 750.12584114 C-82.38107017 750.12935289 -82.38107017 750.12935289 -83.76937938 750.13293558 C-89.88584961 750.11415039 -89.88584961 750.11415039 -91 749 C-91.09780042 746.38237266 -91.12994511 743.79114693 -91.12025452 741.17308044 C-91.12153615 739.92835711 -91.12153615 739.92835711 -91.12284368 738.65848786 C-91.12450103 735.85620681 -91.11897297 733.05398459 -91.11352539 730.25170898 C-91.11324355 728.25158693 -91.1134012 726.25146477 -91.1139679 724.25134277 C-91.11425598 718.80321965 -91.10835745 713.35511834 -91.10139394 707.9070003 C-91.09516226 702.22015158 -91.09455675 696.53330242 -91.09336853 690.84645081 C-91.09025466 680.06940041 -91.08204053 669.2923601 -91.07201904 658.51531416 C-91.05877488 643.95807162 -91.05335844 629.40082634 -91.04751682 614.84357929 C-91.03810068 591.89571196 -91.01818213 568.94786593 -91 546 C-41.83 546 7.34 546 58 546 C58.33 544.02 58.66 542.04 59 540 C59.78100586 537.77197266 59.78100586 537.77197266 60.71484375 535.6640625 C61.06635498 534.85912354 61.41786621 534.05418457 61.7800293 533.22485352 C62.35297729 531.93792603 62.35297729 531.93792603 62.9375 530.625 C63.75643653 528.75183857 64.57409426 526.87811764 65.390625 525.00390625 C65.81794922 524.02566895 66.24527344 523.04743164 66.68554688 522.03955078 C68.9068367 516.90302434 71.04537229 511.73242328 73.1875 506.5625 C75.76195255 500.36180418 78.34079305 494.16486569 81 488 C84.03385954 480.96619156 86.95984684 473.88858558 89.89526367 466.81323242 C92.27661703 461.08920885 94.68574389 455.37815379 97.13671875 449.68359375 C97.40125854 449.0686908 97.66579834 448.45378784 97.93835449 447.82025146 C99.22205635 444.83857017 100.50941966 441.85853204 101.80126953 438.88037109 C104.64988117 432.28007115 107.33633935 425.64367933 109.86206055 418.9128418 C110.97827773 416.05560359 112.20486096 413.28010366 113.5 410.5 C115.78134734 405.59510322 117.72406406 400.60611185 119.59375 395.53125 C121.1619425 391.5933444 122.91719709 387.76544872 124.68408203 383.91357422 C126.78783804 379.25564765 128.73659092 374.53602503 130.6875 369.8125 C131.56243627 367.70309857 132.4374382 365.59372436 133.3125 363.484375 C133.7559375 362.41380859 134.199375 361.34324219 134.65625 360.24023438 C136.824929 355.01081802 139.00718044 349.78707088 141.1875 344.5625 C143.78775843 338.33013456 146.3758096 332.09334756 148.93139648 325.8425293 C151.43382393 319.72201751 154.03864226 313.6715559 156.8203125 307.671875 C158.6337146 303.56469938 160.17544824 299.3591076 161.76171875 295.16015625 C162.85735694 292.3640323 164.04024866 289.65645856 165.3125 286.9375 C167.74898948 281.70327496 169.87777103 276.36689003 172 271 C174.40187142 264.92852582 176.88632475 258.94541472 179.65625 253.03125 C181.56035852 248.73593543 183.2716694 244.36847021 185 240 C187.42547413 233.87157184 189.92272794 227.81994465 192.71484375 221.84765625 C195.34033481 216.0300788 197.69647046 210.09420592 200.09619141 204.18066406 C201.36951619 201.10844986 202.68850464 198.05608003 204 195 C202.95471414 194.99576806 201.90942827 194.99153612 200.83246708 194.98717594 C175.43764234 194.88413566 150.04284686 194.77540728 124.64807224 194.66066074 C112.36752349 194.60530365 100.08697184 194.55181764 87.80639648 194.50268555 C77.1068388 194.4598741 66.40730273 194.4136039 55.70777839 194.36312145 C50.03869325 194.33649595 44.36961247 194.31164235 38.7005024 194.29092598 C33.37117586 194.27139673 28.04189056 194.24726431 22.71260071 194.21950912 C20.75054609 194.21011895 18.78848241 194.20245081 16.82641411 194.19658089 C14.15987021 194.18835297 11.49342727 194.17408595 8.82691956 194.15821838 C8.03996989 194.15724028 7.25302023 194.15626217 6.44222361 194.15525442 C1.11412121 194.11412121 1.11412121 194.11412121 0 193 C0 129.31 0 65.62 0 0 Z M1270 198 C1273.99533602 209.32722118 1273.99533602 209.32722118 1278.59375 220.34765625 C1278.90775757 221.05168076 1279.22176514 221.75570526 1279.54528809 222.48106384 C1280.52531698 224.67709906 1281.51197197 226.8700536 1282.5 229.0625 C1286.50994883 237.98240841 1290.40275722 246.88010074 1293.84741211 256.0378418 C1295.28828237 259.74088752 1296.92736258 263.3278142 1298.59814453 266.93164062 C1301.32247134 272.89460462 1303.87605034 278.93309454 1306.45629883 284.95947266 C1307.43024062 287.23305362 1308.40739114 289.5052367 1309.38476562 291.77734375 C1312.94933503 300.08356287 1316.41009533 308.41951699 1319.72143555 316.83007812 C1321.22776738 320.56469958 1322.89127956 324.20766046 1324.5859375 327.859375 C1326.8439588 332.87442784 1328.93789836 337.95796485 1331.05810547 343.0324707 C1332.80523684 347.2017802 1334.58479911 351.34181701 1336.5 355.4375 C1339.26889527 361.41494622 1341.63414082 367.55070156 1344.05859375 373.67333984 C1346.12234249 378.86483609 1348.2893863 383.97358624 1350.65625 389.03515625 C1352.87123507 393.922289 1354.91347263 398.88287913 1356.97070312 403.83813477 C1358.72670375 408.04854535 1360.54344142 412.22041211 1362.4453125 416.3671875 C1365.05320664 422.06709974 1367.48006494 427.8329402 1369.875 433.625 C1370.30772217 434.6668042 1370.74044434 435.7086084 1371.1862793 436.78198242 C1373.45289034 442.24377168 1375.70332149 447.71197372 1377.94189453 453.18530273 C1380.41890225 459.2375092 1382.96791117 465.2404951 1385.70703125 471.1796875 C1392.91884678 486.91059631 1399.5139872 502.93180439 1406.01953125 518.96484375 C1408.72048421 525.61384039 1411.48249145 532.14234288 1414.8046875 538.51171875 C1416.81586876 542.69839346 1418.3785815 547.05520362 1419.984375 551.41015625 C1420.75820577 553.8915863 1420.75820577 553.8915863 1422 555 C1455 555 1488 555 1522 555 C1522 437.19 1522 319.38 1522 198 C1438.84 198 1355.68 198 1270 198 Z M2119.47973633 202.64404297 C2111.65796063 202.93888756 2103.86408606 203.05018835 2096.03791809 202.98022461 C2090.64743956 202.95175372 2085.28933797 203.09196766 2079.90568542 203.35571289 C2068.85532311 203.89359234 2057.82282393 204.08674585 2046.76171875 204.0625 C2046.06646969 204.06105988 2045.37122063 204.05961975 2044.65490341 204.05813599 C2039.66573352 204.04596919 2034.6766253 204.02392393 2029.6875 204 C2024.64396886 203.97609568 2019.60046933 203.95588614 2014.5568943 203.94406128 C2012.58077338 203.93772154 2010.60467547 203.92515032 2008.62858582 203.91235352 C2003.16097889 203.89754661 1997.77788209 203.96421701 1992.3347168 204.5 C1984.53844514 205.22777633 1976.74375792 205.11113996 1968.92123795 205.07516479 C1966.06620794 205.06219749 1963.21122543 205.05583314 1960.35617065 205.05102539 C1953.26014754 205.03777456 1946.16416947 205.01371042 1939.06817627 204.98962402 C1933.06686511 204.96964092 1927.06557196 204.95410195 1921.06423569 204.94406128 C1918.29418373 204.93772612 1915.52420893 204.92521833 1912.75418091 204.91235352 C1902.65152895 204.88367517 1892.59417495 205.11382333 1882.50432014 205.64195251 C1874.49490844 206.06037789 1866.52067419 206.08085357 1858.5 206 C1851.18877871 205.92803916 1843.94456905 205.86350473 1836.65625 206.5 C1825.46011181 207.23117637 1814.21998794 207 1803 207 C1803 228.12 1803 249.24 1803 271 C1848.18206136 271.09043405 1893.364101 271.16204308 1938.54623493 271.20426132 C1943.88092109 271.20926412 1949.21560708 271.21444141 1954.55029297 271.21972656 C1956.1433466 271.22130043 1956.1433466 271.22130043 1957.76858313 271.22290608 C1974.96281627 271.24030926 1992.15699589 271.27184649 2009.35119729 271.30861118 C2026.99525586 271.346023 2044.63928641 271.36823637 2062.28338301 271.37635398 C2073.16992538 271.38184124 2084.05631648 271.39916966 2094.94281228 271.43166587 C2102.40903561 271.4528167 2109.87518079 271.45919874 2117.3414319 271.45400551 C2121.64849123 271.45144463 2125.95528629 271.45535841 2130.26229858 271.4768219 C2134.20929722 271.49634728 2138.15585491 271.49723149 2142.10287423 271.48359558 C2143.52700857 271.48191133 2144.95117089 271.48693492 2146.3752505 271.49953273 C2157.32744705 271.59074641 2165.27086732 269.54687093 2174.625 263.875 C2175.46289062 263.37742187 2176.30078125 262.87984375 2177.1640625 262.3671875 C2177.76992187 261.91601562 2178.37578125 261.46484375 2179 261 C2179 260.34 2179 259.68 2179 259 C2180.485 258.505 2180.485 258.505 2182 258 C2189.65881813 248.17800423 2190.73473413 238.11561585 2190 226 C2189.04724159 218.72049753 2187.19154627 213.59517346 2181.375 208.875 C2177.18990362 205.87130537 2172.95303496 204.29412004 2168 203 C2167.40147217 202.82654053 2166.80294434 202.65308105 2166.1862793 202.47436523 C2163.71299483 201.93772741 2161.47256155 201.87041807 2158.94140625 201.8671875 C2157.4248645 201.86428711 2157.4248645 201.86428711 2155.87768555 201.86132812 C2154.78367432 201.86583984 2153.68966309 201.87035156 2152.5625 201.875 C2151.41885986 201.87693359 2150.27521973 201.87886719 2149.09692383 201.88085938 C2139.21570483 201.92904412 2129.35276379 202.26048557 2119.47973633 202.64404297 Z " fill="#EF3F22" transform="translate(159,703)"/>
</svg>
