<?xml version="1.0" encoding="UTF-8"?>
<svg version="1.1" xmlns="http://www.w3.org/2000/svg" width="2560" height="316">
<path d="M0 0 C17.42803366 0.24727879 33.75896345 5.80330404 46.44702148 18.13891602 C47.14311523 18.85692383 47.83920898 19.57493164 48.55639648 20.31469727 C49.12874023 20.87801758 49.70108398 21.44133789 50.29077148 22.02172852 C61.64629205 34.05038561 63.14369373 48.73292388 62.86499023 64.40844727 C62.15506008 82.76647523 55.1438693 100.14447448 43.55639648 114.31469727 C42.7790918 115.35303711 42.7790918 115.35303711 41.98608398 116.41235352 C28.64757854 133.26981141 6.75787768 140.06175386 -13.44360352 144.31469727 C-13.77360352 144.64469727 -14.10360352 144.97469727 -14.44360352 145.31469727 C-13.02821289 145.73428711 -13.02821289 145.73428711 -11.58422852 146.16235352 C5.2022413 151.32184077 19.87621093 159.84149863 29.05639648 175.37719727 C38.96314313 194.77790945 39.16931245 216.76131158 32.55639648 237.31469727 C32.23493652 238.32886719 32.23493652 238.32886719 31.90698242 239.36352539 C27.11760899 254.07324583 19.93571113 266.7464793 9.55639648 278.31469727 C8.97116211 278.97083008 8.38592773 279.62696289 7.78295898 280.30297852 C-7.23861106 296.2060961 -29.02307184 303.98865605 -49.88110352 308.56469727 C-50.55818359 308.71583984 -51.23526367 308.86698242 -51.93286133 309.02270508 C-67.63950682 312.21008206 -83.54929977 312.60508407 -99.51074219 312.54174805 C-101.5430755 312.54118221 -103.57540923 312.54150385 -105.60774231 312.54263306 C-111.06102562 312.54320085 -116.51421879 312.5315407 -121.96748137 312.51748514 C-127.69025561 312.50488092 -133.4130325 312.50379971 -139.13581848 312.50143433 C-149.94415861 312.49524779 -160.75245771 312.47887569 -171.56077987 312.45873535 C-183.87778812 312.43628777 -196.19479845 312.42536076 -208.5118221 312.41534448 C-233.82243855 312.39450659 -259.13301872 312.35938627 -284.44360352 312.31469727 C-284.55727574 308.35916257 -284.40581342 306.64540055 -281.80297852 303.59985352 C-281.23305176 302.92092041 -280.663125 302.2419873 -280.07592773 301.54248047 C-279.45476074 300.82793701 -278.83359375 300.11339355 -278.19360352 299.37719727 C-277.2405835 298.25220825 -277.2405835 298.25220825 -276.26831055 297.10449219 C-274.33809676 294.83123092 -272.3920781 292.57230968 -270.44360352 290.31469727 C-269.38268603 289.07077623 -268.32271476 287.82604723 -267.26391602 286.58032227 C-265.30855665 284.28409099 -263.34488129 281.99544348 -261.37329102 279.71313477 C-259.38820589 277.41510368 -257.41511999 275.10758722 -255.45141602 272.79125977 C-249.49098805 265.77085629 -243.38071409 258.92828347 -237.10375977 252.18969727 C-235.04938858 249.9694077 -233.04023702 247.7325242 -231.06860352 245.43969727 C-226.66452361 240.35643395 -222.04018796 235.47600375 -217.4362793 230.57446289 C-214.98856019 227.96655415 -212.54875409 225.35182706 -210.11914062 222.72705078 C-198.66804325 210.40189423 -186.79274618 198.50949115 -174.88647461 186.62719727 C-171.99429507 183.74077556 -169.10671503 180.8498002 -166.22038269 177.95753288 C-163.9623858 175.69590541 -161.70199201 173.43668557 -159.44088745 171.17816544 C-158.37497937 170.11291654 -157.30979154 169.04694637 -156.24539185 167.98019028 C-151.02032009 162.74606476 -145.78248581 157.57618455 -140.13549805 152.79251099 C-138.32044857 151.20712551 -136.63057376 149.53504892 -134.94360352 147.81469727 C-131.99760137 144.82235351 -128.91377344 142.06145554 -125.73266602 139.32250977 C-123.50704985 137.37034814 -121.33030757 135.37135393 -119.16015625 133.35791016 C-113.11443065 127.75043451 -106.89403876 122.45726867 -100.44360352 117.31469727 C-99.12360352 117.97469727 -97.80360352 118.63469727 -96.44360352 119.31469727 C-97.76616175 126.55318672 -99.54379636 133.57614409 -101.58886719 140.64160156 C-101.89978302 141.72777771 -102.21069885 142.81395386 -102.53103638 143.93304443 C-103.55397563 147.50280236 -104.58266257 151.07087479 -105.61157227 154.63891602 C-106.33211117 157.14776683 -107.05234621 159.65670494 -107.77229309 162.16572571 C-109.28182845 167.4242593 -110.79443396 172.68190175 -112.30908203 177.93896484 C-114.04154717 183.95210423 -115.77002995 189.96637606 -117.49610537 195.98135251 C-119.17402684 201.82841758 -120.85414384 207.67484894 -122.53533363 213.52097511 C-123.24168997 215.97753999 -123.9476448 218.43422035 -124.65315819 220.89102745 C-129.11162977 236.40907184 -133.68914904 251.88463273 -138.44360352 267.31469727 C-134.21111465 267.26614833 -129.97999213 267.19979394 -125.74829102 267.10717773 C-124.31318622 267.07920862 -122.87793427 267.05787623 -121.44262695 267.04370117 C-110.34845599 266.92765336 -100.70766332 266.0022946 -92.13110352 258.18969727 C-91.3512207 257.50649414 -90.57133789 256.82329102 -89.76782227 256.11938477 C-82.17168476 246.95295328 -79.76684727 234.94801565 -76.61865234 223.73291016 C-76.05372195 221.74859662 -75.48791212 219.76453328 -74.92129517 217.78070068 C-73.38933263 212.4076469 -71.86964097 207.0311918 -70.35213304 201.65404058 C-68.75048025 195.98691128 -67.13739507 190.32303768 -65.52555847 184.65879822 C-62.46618957 173.90120702 -59.41692952 163.14077807 -56.37135381 152.37927479 C-52.94364027 140.2692191 -49.50518 128.16222455 -46.06554759 116.05554974 C-41.25679589 99.12963263 -36.45214265 82.20256433 -31.65586376 65.27310848 C-29.7018556 58.37636502 -27.74563273 51.48025042 -25.78879684 44.5843088 C-24.23783916 39.11786691 -22.68996788 33.65056344 -21.14446503 28.18257695 C-20.2012195 24.84783202 -19.25530054 21.51385002 -18.3086046 18.18008316 C-17.87348106 16.64563388 -17.4395087 15.11085764 -17.00675929 13.57573712 C-16.4231379 11.50591781 -15.83553838 9.43727032 -15.24687195 7.36888123 C-14.92040523 6.21553 -14.5939385 5.06217878 -14.25757885 3.87387753 C-12.38858377 -2.00233902 -5.29240882 0.00403624 0 0 Z " fill="#221714" transform="translate(284.443603515625,-0.314697265625)"/>
<path d="M0 0 C13.50201373 -0.04674691 27.00400758 -0.0820811 40.50608635 -0.10362434 C46.77850112 -0.11397424 53.05085973 -0.12796854 59.32324219 -0.15087891 C65.39873923 -0.17292624 71.47418293 -0.18463432 77.54971695 -0.18975449 C79.84483808 -0.19339398 82.13995695 -0.2004967 84.43505478 -0.21146011 C156.90378276 -0.54323979 156.90378276 -0.54323979 179.4375 20.9375 C192.72194244 35.40217184 194.68943454 54.35868664 194.13623047 73.23291016 C191.61838574 124.37493901 175.47205657 197.09364302 143 238 C142.35675781 238.82371094 141.71351563 239.64742187 141.05078125 240.49609375 C122.62551069 262.65874171 93.58037107 268.4850541 66.39207458 271.26683044 C53.37931266 272.37333231 40.31918513 272.20414071 27.26953125 272.23828125 C25.29199639 272.24439454 25.29199639 272.24439454 23.27451134 272.25063133 C17.03231151 272.26957495 10.79012292 272.28384586 4.54790002 272.2922433 C-2.63556101 272.30207236 -9.8187186 272.32858258 -17.00207251 272.36874419 C-22.57942819 272.39885304 -28.15669624 272.41370586 -33.73413163 272.41702431 C-37.05691801 272.41937426 -40.37930063 272.43030729 -43.70201683 272.45348549 C-47.39298805 272.47767064 -51.0831448 272.47695162 -54.77416992 272.4699707 C-55.87282883 272.48278076 -56.97148773 272.49559082 -58.10343933 272.50878906 C-59.60644592 272.49837334 -59.60644592 272.49837334 -61.13981628 272.48774719 C-62.01116305 272.49013555 -62.88250982 272.4925239 -63.78026104 272.49498463 C-66 272 -66 272 -67.81662083 270.20721054 C-70.47532669 265.24825594 -67.61911049 258.0057042 -66.29199219 252.84985352 C-66.12026898 252.17713567 -65.94854578 251.50441782 -65.77161884 250.81131458 C-65.20141083 248.58260763 -64.6241846 246.35578327 -64.046875 244.12890625 C-63.63520502 242.52619779 -63.22395604 240.92338114 -62.81309509 239.32046509 C-61.69835257 234.97686137 -60.57736515 230.63489137 -59.45516586 226.29320908 C-58.50437455 222.61133135 -57.55730002 218.92850194 -56.61028194 215.2456522 C-53.41710649 202.82778317 -50.21082721 190.4133152 -47 178 C-46.77347496 177.12418777 -46.54694992 176.24837555 -46.31356049 175.34602356 C-42.26129651 159.68025027 -38.20294948 144.01605667 -34.13256836 128.35498047 C-29.48302676 110.46241514 -24.85452159 92.56467253 -20.25727654 74.65859032 C-19.41968339 71.39688853 -18.58148919 68.13534186 -17.74305725 64.87385559 C-17.46866035 63.80643725 -17.19426344 62.73901892 -16.91155148 61.63925457 C-16.36053412 59.49584154 -15.80949167 57.35243496 -15.25842381 55.20903492 C-13.6410029 48.9164191 -12.02763537 42.62278083 -10.41710663 36.32839775 C-9.41889555 32.43097983 -8.41696215 28.53452587 -7.41402817 24.63832092 C-6.94675916 22.81972965 -6.48109544 21.00072508 -6.01712418 19.18128967 C-5.38121868 16.68837237 -4.73975853 14.19694854 -4.09692383 11.70581055 C-3.82049309 10.61353543 -3.82049309 10.61353543 -3.5384779 9.49919415 C-2.65659427 6.10523292 -1.62771759 3.09842179 0 0 Z M62 44 C61.78354324 44.84743271 61.56708649 45.69486542 61.34407043 46.56797791 C50.99571716 87.07661007 40.61777084 127.57733076 30.12200546 168.04805374 C29.44119161 170.67326519 28.76057883 173.2985287 28.07998657 175.92379761 C27.00346679 180.0757931 25.92622934 184.22760174 24.8483696 188.37924957 C24.45633951 189.88935118 24.06443873 191.39948636 23.67268753 192.90966034 C23.13183498 194.99418838 22.59030761 197.07853998 22.04858398 199.1628418 C21.87942097 199.81504511 21.71025795 200.46724842 21.53596878 201.13921547 C20.65875515 204.51104514 19.76489579 207.87749182 18.84768677 211.23867798 C18.66107263 211.92573979 18.47445848 212.61280161 18.28218937 213.32068348 C17.76649303 215.21426154 17.24625706 217.1066016 16.72572327 218.99885559 C15.88247942 221.97138547 15.88247942 221.97138547 16 225 C20.15849515 225.07546125 24.31660338 225.12920345 28.47558594 225.16479492 C29.88353435 225.17966762 31.2914383 225.19997219 32.69921875 225.22631836 C48.3414114 225.51122973 63.84739566 224.04174569 75.75 212.8125 C80.01238835 208.25847455 83.13737981 203.52462549 86 198 C86.52980469 197.01515625 87.05960938 196.0303125 87.60546875 195.015625 C103.48757627 163.46947094 130.01029031 91.49544535 118.9375 56.375 C115.18786378 49.84337561 110.5023722 46.63032882 103.31958008 44.58666992 C95.76798611 43.2520755 88.01629018 43.6999407 80.375 43.8125 C78.58985503 43.8275734 76.80469776 43.84125711 75.01953125 43.85351562 C70.67937971 43.88631255 66.33982783 43.93794791 62 44 Z " fill="#221714" transform="translate(777,40)"/>
<path d="M0 0 C3.13666745 0.01618103 6.27206071 -0.00002126 9.40869141 -0.01904297 C35.39805456 -0.04665171 62.30140976 3.07426177 81.92822266 21.75048828 C94.30437441 35.11515055 96.82571286 52.12529253 96.81103516 69.64111328 C96.8106424 70.72306473 96.8106424 70.72306473 96.8102417 71.82687378 C96.74431178 87.35422123 94.72664464 102.22112025 91.37353516 117.39111328 C91.2085553 118.13854797 91.04357544 118.88598267 90.87359619 119.65606689 C86.56628352 138.99214985 81.4597471 158.0357882 75.18603516 176.82861328 C74.94617889 177.54889709 74.70632263 178.26918091 74.459198 179.0112915 C63.22929838 212.47779039 47.94128515 249.61084613 14.74853516 266.64111328 C-8.25718903 277.84896015 -34.02234191 279.57885635 -59.22607422 279.57641602 C-61.7269014 279.57859191 -64.22727822 279.59679249 -66.72802734 279.61572266 C-91.56074713 279.70289939 -120.93534584 278.07693904 -139.73974609 259.55908203 C-154.84789385 242.19878803 -155.55723806 220.32600177 -154.62646484 198.39111328 C-153.46083727 182.51823852 -150.23568887 166.86445744 -146.62646484 151.39111328 C-146.35737305 150.23675781 -146.08828125 149.08240234 -145.81103516 147.89306641 C-134.89740381 101.89550152 -120.56535993 43.20152646 -78.18896484 16.07861328 C-54.35421761 2.12588139 -27.07663626 -0.16554144 0 0 Z M-29.62646484 53.39111328 C-30.20912109 53.88095703 -30.79177734 54.37080078 -31.39208984 54.87548828 C-45.03241203 67.28695261 -51.7257285 87.45526399 -57.37646484 104.57861328 C-57.62703644 105.33157684 -57.87760803 106.08454041 -58.13577271 106.86032104 C-79.11863568 164.02535697 -79.11863568 164.02535697 -78.62646484 222.39111328 C-76.07330382 226.80629302 -72.69003561 230.15752871 -67.79052734 231.89501953 C-56.30052025 234.52901033 -43.89113803 234.20557658 -33.70458984 227.84814453 C2.61671028 202.38227057 10.50596517 140.89299194 19.37353516 100.39111328 C19.58268555 99.4454248 19.79183594 98.49973633 20.00732422 97.52539062 C21.95498136 88.46681214 22.6643782 79.59366663 22.81103516 70.32861328 C22.83359375 69.37575439 22.85615234 68.42289551 22.87939453 67.44116211 C22.85315051 59.98982925 21.33414138 53.60548575 16.18603516 48.01611328 C1.0573279 39.27508242 -16.76282112 42.06670897 -29.62646484 53.39111328 Z " fill="#221714" transform="translate(1987.62646484375,36.60888671875)"/>
<path d="M0 0 C14.24028482 -0.0470605 28.48055729 -0.08201983 42.72090435 -0.10362434 C49.33536692 -0.11400057 55.94977675 -0.12804534 62.56420898 -0.15087891 C68.96387554 -0.17282937 75.3634918 -0.18461477 81.76319313 -0.18975449 C84.18804527 -0.19341083 86.6128951 -0.20054883 89.03772545 -0.21146011 C120.48432849 -0.34715879 155.33295718 0.2884991 179.8125 23.0625 C190.62640923 34.39210144 194.82506627 48.54221923 195 64 C193.89318943 86.72651035 183.89254476 109.44379833 166.984375 124.80859375 C156.69698193 133.65254414 144.56455147 139.12080798 132 144 C132.36351562 144.47824219 132.72703125 144.95648438 133.1015625 145.44921875 C137.0051007 151.18441718 139.04463982 156.8274746 140.87353516 163.47192383 C141.13054514 164.38993428 141.38755512 165.30794474 141.65235329 166.25377369 C144.53086715 176.68642306 146.98069542 187.2147229 149.3984375 197.76171875 C149.88269657 199.85693197 150.36737506 201.9520483 150.85244751 204.04707336 C151.85564179 208.384871 152.85531132 212.72345886 153.85205078 217.06274414 C155.13121924 222.63120412 156.41723427 228.19805523 157.70554161 233.76440716 C158.70077376 238.06606192 159.69362835 242.36826235 160.68562698 246.67066383 C161.15963151 248.7261526 161.63411385 250.78153124 162.10908127 252.83679771 C162.76687727 255.68584992 163.42174049 258.53555937 164.07568359 261.38549805 C164.27197357 262.23363571 164.46826355 263.08177338 164.67050171 263.95561218 C166 269.77080128 166 269.77080128 166 272 C157.40248188 272.06971046 148.80508315 272.12291754 140.20735168 272.15543652 C136.21446706 272.17104913 132.22177674 272.1922061 128.22900391 272.22631836 C124.37105415 272.25907005 120.51329053 272.27688609 116.6552124 272.28463173 C115.18810092 272.29014702 113.72099888 272.30091673 112.25396729 272.31719017 C95.40530068 272.49654514 95.40530068 272.49654514 89.01171875 267.421875 C88.57472656 266.87015625 88.13773438 266.3184375 87.6875 265.75 C87.23761719 265.20859375 86.78773438 264.6671875 86.32421875 264.109375 C82.06329311 257.32205982 80.74754335 249.96846743 79.1809082 242.21166992 C78.91712372 240.93614258 78.65333923 239.66061523 78.38156128 238.34643555 C77.66218416 234.86678614 76.95205354 231.38530893 76.24373269 227.90339446 C75.50016402 224.2557723 74.7483891 220.60984171 73.99760437 216.96369934 C72.73944729 210.84765955 71.4868274 204.73050771 70.23803711 198.61254883 C68.63402624 190.75443698 67.0212846 182.89814431 65.40565205 175.04241467 C64.01641243 168.28736443 62.63067211 161.53159718 61.245754 154.7756598 C60.80029737 152.60310882 60.35445235 150.43063777 59.90859413 148.25816917 C59.0801131 144.21975771 58.25525874 140.18061405 57.4309082 136.14135742 C57.1831514 134.93459854 56.93539459 133.72783966 56.68013 132.48451233 C56.45728333 131.38962494 56.23443665 130.29473755 56.00483704 129.16667175 C55.80962621 128.21156802 55.61441538 127.25646429 55.41328907 126.27241802 C55 124 55 124 55 122 C56.16015625 121.96261719 57.3203125 121.92523438 58.515625 121.88671875 C75.50420864 121.22321613 91.38212573 118.41899359 104 106 C114.33137349 93.52118882 120.23275715 79.38716839 119 63 C118.27318103 60.07856529 117.28048048 57.75795795 116 55 C115.690625 54.21625 115.38125 53.4325 115.0625 52.625 C113.67263062 50.49931741 112.29669183 50.06385857 110 49 C109.29383545 48.65549805 108.5876709 48.31099609 107.86010742 47.95605469 C98.85667325 44.14334379 89.92086314 44.33145089 80.3125 44.25 C78.62822528 44.22178552 76.94397846 44.19185062 75.25976562 44.16015625 C71.17322805 44.0869463 67.08701943 44.03697795 63 44 C62.90688034 44.59203217 62.81376068 45.18406433 62.71781921 45.79403687 C61.19771667 54.80248369 58.88818409 63.5840429 56.58203125 72.4140625 C56.13179493 74.15018127 55.68192507 75.8863951 55.23239136 77.62269592 C54.01704499 82.3130376 52.79691854 87.00212377 51.57595444 91.69100571 C50.28902127 96.63675544 49.00658236 101.58366998 47.72387695 106.53051758 C46.12020132 112.71418841 44.51612613 118.89775432 42.91014099 125.08082581 C39.16506554 139.50001317 35.43334704 153.92260175 31.7109375 168.34765625 C31.19751241 170.33689571 30.68407962 172.32613319 30.17063904 174.31536865 C28.20430928 181.93395782 26.23819268 189.55260191 24.27285767 197.17144775 C21.19111166 209.11669308 18.10111212 221.05976738 15 233 C14.76851509 233.89189278 14.53703018 234.78378555 14.29853058 235.70270538 C12.89185424 241.12115469 11.48109279 246.53851263 10.06464577 251.95441628 C9.62082483 253.65330757 9.17816051 255.35250148 8.73670006 257.05200768 C8.13089358 259.38295781 7.52076262 261.71273204 6.90942383 264.04223633 C6.72981676 264.73696611 6.55020969 265.4316959 6.36515999 266.1474781 C5.11425277 270.88574723 5.11425277 270.88574723 4 272 C1.86886295 272.11005434 -0.26595924 272.14913572 -2.39990234 272.16113281 C-3.06822586 272.16609772 -3.73654938 272.17106262 -4.42512512 272.17617798 C-6.64540623 272.19083351 -8.86561588 272.19760741 -11.0859375 272.203125 C-12.62431847 272.20887397 -14.16269941 272.21463173 -15.70108032 272.22039795 C-18.93093196 272.2309178 -22.16075863 272.23675391 -25.390625 272.24023438 C-29.53255045 272.24571916 -33.67414715 272.2697424 -37.81596947 272.29820633 C-40.99523893 272.31681663 -44.17442899 272.32203745 -47.35374832 272.32357025 C-48.88080262 272.32660131 -50.40785538 272.33464511 -51.93485641 272.34775543 C-54.07059571 272.36478201 -56.20552925 272.36294449 -58.34130859 272.35644531 C-59.55740814 272.36009094 -60.77350769 272.36373657 -62.02645874 272.36749268 C-65 272 -65 272 -66.91616821 270.91522217 C-69.78467723 265.84632482 -67.63973092 259.61436669 -66.22192383 254.32080078 C-66.03084801 253.57998512 -65.83977219 252.83916946 -65.64290619 252.07590485 C-65.00564413 249.61354237 -64.3563521 247.15452012 -63.70703125 244.6953125 C-63.2486146 242.93381918 -62.7909662 241.17212578 -62.33403015 239.4102478 C-61.09550856 234.64310188 -59.84667055 229.87871256 -58.59609985 225.11471558 C-57.27516546 220.07487528 -55.96415211 215.03245624 -54.65234375 209.99023438 C-52.48963372 201.6814523 -50.32197617 193.37397699 -48.15087891 185.06738281 C-45.28968299 174.11852314 -42.44327115 163.16588166 -39.60546875 152.2109375 C-39.39228563 151.38801964 -39.17910252 150.56510178 -38.9594593 149.71724701 C-38.10591707 146.42224855 -37.25246228 143.12722747 -36.39919758 139.83215714 C-34.92201794 134.12794744 -33.44305574 128.42420217 -31.96313477 122.72070312 C-27.16719259 104.23599827 -22.38299064 85.74829624 -17.609375 67.2578125 C-17.07162144 65.17514878 -16.53386106 63.09248683 -15.99609375 61.00982666 C-13.64387113 51.89970413 -11.2921879 42.78944392 -8.94297409 33.678545 C-7.98486592 29.96354347 -7.02592457 26.24875737 -6.06678009 22.53402328 C-5.61955099 20.80110325 -5.17270135 19.06808524 -4.72624969 17.33496475 C-4.11565556 14.96476133 -3.50378344 12.5948914 -2.89160156 10.22509766 C-2.71306892 9.53071846 -2.53453629 8.83633926 -2.35059357 8.12091827 C-1.64125017 5.37959379 -0.89585477 2.6875643 0 0 Z " fill="#221714" transform="translate(400,40)"/>
<path d="M0 0 C15.1875118 -0.04699634 30.37502023 -0.08212283 45.56258869 -0.10362434 C52.61653913 -0.1138791 59.67044405 -0.12782647 66.72436523 -0.15087891 C73.54547233 -0.17315962 80.36653234 -0.18460499 87.18767357 -0.18975449 C89.77606126 -0.19341922 92.3644467 -0.20057443 94.9528141 -0.21146011 C113.04875589 -0.28446342 131.13565013 -0.18965918 148.8125 4.1875 C149.68430908 4.40180664 150.55611816 4.61611328 151.4543457 4.83691406 C165.64358267 8.5376576 178.33505054 15.29847125 186.4375 27.9375 C196.45002575 46.32208119 193.08120912 67.26317959 188.27856445 86.6953125 C188.0134094 87.78319061 187.74825434 88.87106873 187.47506428 89.99191284 C184.76651134 101.057034 181.94966765 112.09411116 179.10546875 123.125 C178.55431281 125.26855281 178.00330684 127.41214418 177.45243835 129.55577087 C175.99870024 135.21023716 174.54226447 140.86400484 173.08498383 146.51755905 C172.18204087 150.02118266 171.27978943 153.52498366 170.37774658 157.02883911 C163.09441401 185.31815338 155.79599058 213.60358695 148.41528702 241.86767578 C147.87603533 243.93353369 147.33752433 245.99958352 146.79916382 248.06567383 C145.82485126 251.80368786 144.84646192 255.5406263 143.8671875 259.27734375 C143.58622726 260.3553978 143.30526703 261.43345184 143.01579285 262.54417419 C142.76163101 263.51049271 142.50746918 264.47681122 142.24560547 265.47241211 C142.02726044 266.3059874 141.80891541 267.13956268 141.58395386 267.99839783 C141 270 141 270 140 272 C131.05536869 272.06946766 122.11083004 272.12279465 113.16598797 272.15543652 C109.01266143 272.17110189 104.85951925 272.19235582 100.70629883 272.22631836 C96.69924415 272.2588811 92.69236696 272.27684645 88.6851902 272.28463173 C87.15533465 272.29018082 85.62548897 272.30101676 84.09570885 272.31719017 C81.95511145 272.33892415 79.81525027 272.34196872 77.67456055 272.34057617 C76.45544479 272.34723801 75.23632904 272.35389984 73.98027039 272.36076355 C71 272 71 272 69.08283997 270.97871399 C66.15939065 265.63658567 68.28655776 258.74660516 69.77807617 253.20727539 C69.96909818 252.46651764 70.16012018 251.72575989 70.35693073 250.96255493 C70.99310069 248.50509883 71.64300563 246.051497 72.29296875 243.59765625 C72.75236346 241.83432465 73.21087832 240.07076362 73.6685791 238.30699158 C74.65078704 234.5295731 75.63905501 230.75381308 76.63217163 226.97924805 C78.19959851 221.02183712 79.75374099 215.06101146 81.3059082 209.09960938 C83.45399405 200.85427844 85.60779901 192.61046276 87.765625 184.36767578 C92.07778712 167.89242815 96.35734812 151.40873276 100.63170338 134.92364216 C101.9834985 129.71080165 103.33799965 124.49867547 104.69514275 119.28722477 C105.5414162 116.0364172 106.38612079 112.78520321 107.23051453 109.53390694 C107.61571851 108.05207472 108.00156469 106.57040924 108.38816833 105.08894157 C110.40083514 97.37488249 112.35586103 89.64926724 114.20629883 81.89453125 C114.37369159 81.20131775 114.54108435 80.50810425 114.71354961 79.79388428 C117.06048229 69.83863641 118.56639949 60.53839907 113.5 51.25 C103.99781137 42.69803024 89.82851374 43.51659334 77.881073 44.10421753 C75.6182127 44.23256052 73.35594787 44.36829263 71.09375 44.5078125 C70.31225586 44.55494385 69.53076172 44.6020752 68.72558594 44.65063477 C66.81698564 44.76590955 64.90848237 44.88278907 63 45 C62.77101517 45.89754501 62.54203033 46.79509003 62.30610657 47.71983337 C49.72588313 97.02550409 37.06519721 146.30928819 24.26713753 195.55887222 C21.48077923 206.28195167 18.70459803 217.00759697 15.94068718 227.73648453 C15.39577938 229.85154981 14.85059383 231.96654329 14.30531311 234.08151245 C13.95540859 235.43878039 13.60550922 236.79604966 13.25561523 238.15332031 C13.08648274 238.80939585 12.91735025 239.46547138 12.74309254 240.14142799 C11.92165181 243.32862703 11.10136977 246.51611852 10.28250122 249.70397949 C9.40379355 253.1247648 8.52248082 256.54486893 7.640625 259.96484375 C7.2563459 261.46612068 7.2563459 261.46612068 6.86430359 262.99772644 C6.63096817 263.9007399 6.39763275 264.80375336 6.15722656 265.73413086 C5.85585785 266.90654579 5.85585785 266.90654579 5.54840088 268.10264587 C5 270 5 270 4 272 C-4.94463131 272.06946766 -13.88916996 272.12279465 -22.83401203 272.15543652 C-26.98733857 272.17110189 -31.14048075 272.19235582 -35.29370117 272.22631836 C-39.30075585 272.2588811 -43.30763304 272.27684645 -47.3148098 272.28463173 C-48.84466535 272.29018082 -50.37451103 272.30101676 -51.90429115 272.31719017 C-54.04488855 272.33892415 -56.18474973 272.34196872 -58.32543945 272.34057617 C-59.54455521 272.34723801 -60.76367096 272.35389984 -62.01972961 272.36076355 C-65 272 -65 272 -66.91716003 270.97871399 C-70.06622224 265.22431479 -67.43218881 257.67389976 -65.85473633 251.73852539 C-65.62466888 250.84159721 -65.39460144 249.94466904 -65.15756226 249.02056122 C-64.39154141 246.04380971 -63.61182649 243.07082641 -62.83203125 240.09765625 C-62.28347786 237.97742539 -61.73578302 235.85697224 -61.18888855 233.73631287 C-59.71462265 228.02947633 -58.22853315 222.32577959 -56.74023438 216.62258911 C-55.18380203 210.64993359 -53.63834038 204.67444094 -52.09179688 198.69921875 C-49.58738128 189.02858768 -47.07679594 179.35958023 -44.56103516 169.69189453 C-41.43024685 157.66050259 -38.31162153 145.62600312 -35.19921875 133.58984375 C-31.39312027 118.87482235 -27.57772449 104.16224247 -23.75462341 89.45162964 C-21.36165012 80.24367869 -18.97130281 71.03505329 -16.58403778 61.82562065 C-14.78419585 54.88256382 -12.98275509 47.93992321 -11.18006134 40.99760628 C-10.1160596 36.89988034 -9.0527433 32.80197968 -7.99121094 28.70361328 C-7.01528855 24.93596983 -6.03726054 21.16887952 -5.05754852 17.40221977 C-4.69944219 16.0239016 -4.34211284 14.6453813 -3.98560333 13.26664925 C-3.50061066 11.39150353 -3.0125991 9.5171394 -2.52441406 7.64282227 C-2.25244202 6.59473892 -1.98046997 5.54665558 -1.70025635 4.46681213 C-1 2 -1 2 0 0 Z " fill="#221714" transform="translate(2141,40)"/>
<path d="M0 0 C1.56808411 -0.00855011 1.56808411 -0.00855011 3.16784668 -0.01727295 C5.36611951 -0.02664768 7.56440592 -0.03322661 9.76269531 -0.03710938 C13.05820389 -0.04677079 16.35307569 -0.07784986 19.6484375 -0.109375 C44.82822737 -0.23572368 72.3271464 1.85147338 91.59375 20.0859375 C101.46346694 30.53395816 104.92566874 44.31952563 104.75390625 58.453125 C103.29510747 83.50176753 103.29510747 83.50176753 99.59375 87.203125 C97.32383113 87.29752478 95.05093033 87.32054726 92.77905273 87.31665039 C91.71081772 87.31686943 91.71081772 87.31686943 90.6210022 87.3170929 C88.25641888 87.3163937 85.89191339 87.30860106 83.52734375 87.30078125 C81.89209537 87.29891709 80.25684643 87.29749318 78.62159729 87.29649353 C74.30940215 87.29266818 69.99724048 87.28283775 65.68505859 87.27178955 C61.28809054 87.2615758 56.89111711 87.25699599 52.49414062 87.25195312 C43.86066169 87.24121549 35.22721 87.22413887 26.59375 87.203125 C26.74740907 85.75641942 26.90306503 84.30992583 27.05957031 82.86352539 C27.14603821 82.05798721 27.2325061 81.25244904 27.32159424 80.42250061 C27.59375 78.203125 27.59375 78.203125 28.140625 75.63671875 C28.78293208 72.18708675 28.81777745 68.76217988 28.84375 65.265625 C28.864375 64.57533203 28.885 63.88503906 28.90625 63.17382812 C28.94239467 58.40724949 28.10198465 55.24351242 25.59375 51.203125 C19.51573751 45.12511251 13.37972048 43.91240326 4.96875 43.828125 C-6.54081703 43.91501488 -15.85714241 46.36062744 -24.203125 54.6796875 C-35.1218323 67.18586643 -40.69597936 83.45134575 -45.6796875 99.03125 C-46.06908508 100.24717331 -46.45848267 101.46309662 -46.85968018 102.71586609 C-50.69097227 114.84551731 -54.02674948 127.09317037 -57.21923828 139.4050293 C-58.16127342 143.03498181 -59.11688193 146.6611657 -60.07421875 150.28710938 C-63.00944869 161.47075125 -65.82398083 172.66906803 -68.296875 183.96484375 C-68.60029816 185.34697807 -68.60029816 185.34697807 -68.90985107 186.7570343 C-72.82109032 204.34141846 -72.82109032 204.34141846 -68.40625 221.203125 C-63.3590346 227.34163021 -56.01166098 228.22481535 -48.40625 229.203125 C-42.45506027 229.6308331 -36.49209451 229.49155943 -30.53125 229.390625 C-28.95704426 229.37552899 -27.38282428 229.3618494 -25.80859375 229.34960938 C-22.00745095 229.31704304 -18.20701494 229.26554282 -14.40625 229.203125 C-14.17429932 227.91849365 -13.94234863 226.6338623 -13.70336914 225.31030273 C-12.09120735 217.26939156 -9.82380976 209.39168014 -7.65234375 201.48828125 C-7.18650016 199.78347593 -6.72093373 198.07859485 -6.25563049 196.37364197 C-5.28517967 192.82038938 -4.31255757 189.26774153 -3.33813477 185.71557617 C-2.08880075 181.16120252 -0.84317601 176.60582535 0.40106297 172.05005741 C1.59039735 167.69580455 2.78140843 163.34201095 3.97265625 158.98828125 C4.1994916 158.15881548 4.42632694 157.32934971 4.66003609 156.47474861 C5.30051463 154.13403577 5.94216837 151.79364857 6.58422852 149.45336914 C6.77385666 148.75985855 6.9634848 148.06634796 7.15885925 147.3518219 C7.91213836 144.61031034 8.69442681 141.90109456 9.59375 139.203125 C34.01375 139.203125 58.43375 139.203125 83.59375 139.203125 C82.4687472 147.07814459 82.4687472 147.07814459 81.61619568 150.29774475 C81.32856606 151.39567856 81.32856606 151.39567856 81.03512573 152.51579285 C80.82687164 153.29441177 80.61861755 154.0730307 80.40405273 154.87524414 C80.18267136 155.71565247 79.96128998 156.55606079 79.73320007 157.42193604 C79.00168502 160.1950629 78.26455129 162.96666275 77.52734375 165.73828125 C77.00951538 167.69656118 76.49203007 169.65493186 75.97486877 171.61338806 C74.60873741 176.7829506 73.23780607 181.9512286 71.86590576 187.1192627 C70.50071263 192.26556662 69.14023826 197.41311729 67.77929688 202.56054688 C65.43619026 211.41999016 63.08776821 220.27801074 60.73541832 229.13500404 C59.37614478 234.25336528 58.01928908 239.3723532 56.66588116 244.49226856 C55.91061929 247.34827584 55.15366207 250.20383165 54.39622688 253.05926323 C53.89370009 254.95588429 53.39328248 256.85306381 52.89292908 258.7502594 C52.59963211 259.85417526 52.30633514 260.95809113 52.00415039 262.09545898 C51.75339249 263.04307602 51.50263458 263.99069305 51.24427795 264.96702576 C50.59375 267.203125 50.59375 267.203125 49.59375 269.203125 C46.69111689 269.96020037 43.84940316 270.58618571 40.90625 271.140625 C40.00559814 271.31319824 39.10494629 271.48577148 38.17700195 271.66357422 C9.78248409 276.96807155 -18.64264745 278.37448782 -47.46875 278.453125 C-48.44601044 278.45839203 -49.42327087 278.46365906 -50.43014526 278.46908569 C-78.20535829 278.58497996 -112.38313168 278.68918009 -134.40625 259.203125 C-140.17332881 253.35013068 -143.20906604 247.06440632 -145.40625 239.203125 C-145.63183594 238.4090625 -145.85742188 237.615 -146.08984375 236.796875 C-158.31935914 183.49305622 -128.08888068 91.33038864 -100.40625 46.203125 C-85.31361941 23.1114002 -65.26772779 9.52291084 -38.57617188 3.65527344 C-25.84081816 1.00159712 -12.99031402 0.05697269 0 0 Z " fill="#221714" transform="translate(1118.40625,36.796875)"/>
<path d="M0 0 C0.886875 0.598125 1.77375 1.19625 2.6875 1.8125 C11.50380299 10.15224607 16.43595963 21.53939451 17.23828125 33.57421875 C17.52762532 44.48662381 15.9708515 54.50060513 13 65 C12 66 12 66 9.37413025 66.12025452 C8.20386795 66.11803391 7.03360565 66.11581329 5.82788086 66.11352539 C4.86205833 66.11374443 4.86205833 66.11374443 3.87672424 66.1139679 C1.73939697 66.11326885 -0.39784413 66.10547691 -2.53515625 66.09765625 C-4.01346285 66.09579204 -5.49177007 66.09436815 -6.97007751 66.09336853 C-10.86798802 66.08954359 -14.76586149 66.07971352 -18.66375732 66.06866455 C-22.63846333 66.05844992 -26.61317529 66.0538708 -30.58789062 66.04882812 C-38.391944 66.03809122 -46.19596682 66.02101509 -54 66 C-53.78806 65.10937363 -53.57612 64.21874725 -53.35775757 63.3011322 C-53.08291534 62.13175613 -52.80807312 60.96238007 -52.52490234 59.75756836 C-52.25108734 58.59881699 -51.97727234 57.44006561 -51.69515991 56.24620056 C-50.90399635 52.55169003 -50.59835037 49.33342276 -50.625 45.5625 C-50.61726563 44.45003906 -50.60953125 43.33757812 -50.6015625 42.19140625 C-51.1833354 37.53151942 -52.85355327 34.21592835 -56.0625 30.8125 C-65.33685277 25.09002701 -76.40970204 24.62357277 -86.97265625 26.5390625 C-95.65287291 28.92186707 -101.84287592 33.66486721 -107 41 C-111.82017495 50.66938709 -114.05784964 61.22006844 -111.234375 71.89453125 C-106.64888958 82.40562636 -96.04443353 86.83174891 -85.9375 90.8125 C-84.9074585 91.23136475 -83.87741699 91.65022949 -82.81616211 92.08178711 C-77.38705307 94.28157953 -71.93415257 96.41892309 -66.4765625 98.546875 C-33.72812494 111.35511974 -33.72812494 111.35511974 -21 123 C-20.21109375 123.68578125 -19.4221875 124.3715625 -18.609375 125.078125 C-6.82556353 135.92547463 -2.74410809 150.52570203 -2.00390625 166.1171875 C-1.97798047 191.88741473 -12.91212208 219.0870804 -30.64453125 237.765625 C-43.81870017 250.26251492 -60.43401108 257.31242869 -78 261 C-78.76376953 261.16371094 -79.52753906 261.32742188 -80.31445312 261.49609375 C-94.62934367 264.36618779 -109.14809537 264.31118958 -123.6875 264.375 C-124.63928131 264.38294586 -125.59106262 264.39089172 -126.57168579 264.39907837 C-153.058528 264.56867762 -183.84888328 261.7552641 -203.8828125 242.3125 C-213.48728681 231.82200408 -217.38877649 219.38131497 -217.21484375 205.2734375 C-216.3937252 192.76257669 -213.63953892 179.27907784 -208 168 C-184.9 168 -161.8 168 -138 168 C-140 179 -140 179 -141 184 C-141.22603981 186.93612012 -141.23055112 189.86842512 -141.25 192.8125 C-141.270625 193.58142578 -141.29125 194.35035156 -141.3125 195.14257812 C-141.35491331 201.42504934 -140.30538178 206.73136678 -136.59765625 211.98828125 C-129.49867793 218.11182743 -121.09515965 219.33915174 -111.9375 218.9375 C-102.3906596 217.94698897 -93.42914425 215.49528374 -87 208 C-79.39951936 197.71915662 -74.42635796 183.88887766 -76 171 C-78.48950139 162.46456666 -83.48251272 158.26230312 -91 154 C-100.55673052 149.2155376 -110.3484742 145.18532054 -120.32324219 141.37310791 C-152.22463729 129.14209093 -152.22463729 129.14209093 -164 119 C-164.86625 118.401875 -165.7325 117.80375 -166.625 117.1875 C-177.67966258 107.00557394 -182.50351056 92.28586305 -183.25390625 77.6484375 C-183.94028481 57.31369034 -177.98622612 37.54297324 -166 21 C-165.35546875 20.09765625 -164.7109375 19.1953125 -164.046875 18.265625 C-147.53181539 -3.38745315 -122.47167761 -12.61573355 -96.34375 -16.44140625 C-65.19887421 -20.63028199 -25.88743715 -20.0859211 0 0 Z " fill="#221714" transform="translate(1634,52)"/>
<path d="M0 0 C2.66756269 0.00186853 5.33512268 0.00333968 8.00268555 0.00428772 C14.26370428 0.00737122 20.52470513 0.01554355 26.78571606 0.02563721 C33.92500559 0.03689204 41.06429607 0.04233219 48.2035923 0.04733264 C62.86490393 0.05772936 77.52620165 0.0752698 92.1875 0.09765625 C91.62325329 6.13275583 90.68071704 11.78222807 89.12109375 17.6328125 C88.92274429 18.39693954 88.72439484 19.16106659 88.52003479 19.948349 C87.89420419 22.35385696 87.25977457 24.75699484 86.625 27.16015625 C86.19538905 28.80518862 85.76634752 30.4503698 85.33789062 32.09570312 C84.29432486 36.09810203 83.24304878 40.09840169 82.1875 44.09765625 C81.14481964 44.10130188 80.10213928 44.10494751 79.02786255 44.10870361 C69.17097653 44.14574706 59.31440023 44.20362151 49.45775032 44.28155899 C44.39109177 44.32096105 39.32460513 44.35318513 34.2578125 44.36865234 C29.36222797 44.38386689 24.46711629 44.41839725 19.57174301 44.46596527 C17.71002197 44.48072972 15.8482334 44.48869441 13.98645401 44.4895401 C-1.29695477 44.13281422 -1.29695477 44.13281422 -14.66120911 50.67727661 C-23.42199963 59.54763504 -25.11536348 74.472687 -28 86.09765625 C-28.67401803 88.79228561 -29.35000325 91.48640049 -30.02839661 94.17993164 C-30.44755325 95.84635807 -30.86390614 97.51349281 -31.27714539 99.18139648 C-32.70183654 104.87632933 -32.70183654 104.87632933 -33.8125 107.09765625 C-1.8025 107.09765625 30.2075 107.09765625 63.1875 107.09765625 C62.06231424 116.09914234 62.06231424 116.09914234 61.26367188 119.11108398 C60.99834656 120.12639442 60.99834656 120.12639442 60.72766113 121.16221619 C60.53909546 121.86149734 60.35052979 122.5607785 60.15625 123.28125 C59.96027222 124.02222427 59.76429443 124.76319855 59.56237793 125.52662659 C59.151354 127.07595482 58.73779206 128.62461182 58.32177734 130.17260742 C57.6831119 132.551501 57.05389478 134.93275417 56.42578125 137.31445312 C56.02398852 138.82436549 55.6216642 140.33413651 55.21875 141.84375 C55.03018433 142.55720078 54.84161865 143.27065155 54.64733887 144.00572205 C53.30307365 148.9820826 53.30307365 148.9820826 52.1875 150.09765625 C49.17399762 150.19295237 46.18345894 150.22317529 43.16967773 150.21118164 C42.22343536 150.21132767 41.27719299 150.21147369 40.30227661 150.21162415 C37.15852608 150.21092461 34.01483399 150.20313034 30.87109375 150.1953125 C28.69775932 150.19344846 26.52442448 150.19202449 24.35108948 150.19102478 C18.61848805 150.18719846 12.88591177 150.17736722 7.15332031 150.1663208 C1.30859721 150.15610912 -4.53612993 150.15152768 -10.38085938 150.14648438 C-21.858084 150.13574505 -33.33528991 150.11866727 -44.8125 150.09765625 C-45.06626404 151.18915985 -45.32002808 152.28066345 -45.58148193 153.40524292 C-47.56267991 161.89602554 -49.60767455 170.36100836 -51.828125 178.79296875 C-52.36237364 180.84755372 -52.89621677 182.90224416 -53.4296875 184.95703125 C-54.25089125 188.11337877 -55.07469342 191.26895732 -55.90527344 194.42285156 C-56.72061562 197.52343519 -57.52523046 200.62664203 -58.328125 203.73046875 C-58.57806213 204.66907745 -58.82799927 205.60768616 -59.08551025 206.57473755 C-60.36800575 211.57058416 -61.0933379 215.93924697 -60.8125 221.09765625 C-54.95604663 224.10848878 -50.18351165 224.54011929 -43.65454102 224.5300293 C-42.16071144 224.54531677 -42.16071144 224.54531677 -40.63670349 224.56091309 C-37.36321332 224.59097302 -34.09001614 224.6002985 -30.81640625 224.609375 C-28.53953586 224.62622684 -26.26267474 224.64437776 -23.98582458 224.66377258 C-18.00675352 224.71122363 -12.02772007 224.74106484 -6.04852295 224.76721191 C0.05822171 224.79704199 6.16483684 224.84356398 12.27148438 224.88867188 C24.24342176 224.97464942 36.21538585 225.04201953 48.1875 225.09765625 C46.69036971 229.23163841 45.1605057 233.35279001 43.625 237.47265625 C43.20669922 238.62894531 42.78839844 239.78523437 42.35742188 240.9765625 C37.62662606 253.56830476 31.09036483 264.22385462 18.4375 269.97265625 C13.95556136 271.52409655 9.91680147 272.22154787 5.18051147 272.23809814 C4.19666473 272.24380829 3.21281799 272.24951843 2.19915771 272.25540161 C1.13102844 272.25651947 0.06289917 272.25763733 -1.03759766 272.25878906 C-2.1715799 272.26375397 -3.30556213 272.26871887 -4.47390747 272.27383423 C-8.22479867 272.28843616 -11.97564755 272.29525534 -15.7265625 272.30078125 C-18.33865357 272.30653521 -20.95074464 272.31229291 -23.56283569 272.3180542 C-28.34212187 272.32761832 -33.12139897 272.33351922 -37.90069354 272.33655095 C-44.91092127 272.34102349 -51.92095322 272.35853779 -58.93112147 272.38755155 C-65.02278098 272.41187876 -71.11436045 272.41950046 -77.20606613 272.4212265 C-79.78711384 272.42424435 -82.3681609 272.4322434 -84.94917679 272.44541168 C-88.56994482 272.46256305 -92.19024242 272.46056926 -95.81103516 272.45410156 C-96.86701904 272.46331635 -97.92300293 272.47253113 -99.01098633 272.48202515 C-109.34670809 272.42450797 -120.67197482 270.40770057 -128.71875 263.44921875 C-136.44764506 255.42557769 -138.500171 245.68599244 -138.375 234.84765625 C-138.39884766 233.9453125 -138.42269531 233.04296875 -138.44726562 232.11328125 C-138.39868636 208.01796645 -128.68348495 182.7908735 -122.58299637 159.64716721 C-121.2831515 154.71345082 -119.98748724 149.77863625 -118.69116211 144.84399414 C-117.14851375 138.97331027 -115.6049612 133.10286772 -114.05833435 127.23323059 C-111.56241012 117.76045099 -109.07490149 108.28570761 -106.61538696 98.80340576 C-105.46191303 94.35767179 -104.30170226 89.91371575 -103.13989258 85.47015381 C-102.6429836 83.56344603 -102.14900062 81.65597245 -101.65844727 79.74761963 C-86.42360864 20.53753017 -86.42360864 20.53753017 -63.8125 7.09765625 C-44.50538495 -2.50819012 -20.91547733 -0.04332927 0 0 Z " fill="#221714" transform="translate(2467.8125,39.90234375)"/>
<path d="M0 0 C2.69141106 0.00242985 5.38282207 0.00333949 8.07423401 0.00428772 C14.39549309 0.00737345 20.7167345 0.01554894 27.03798586 0.02563721 C34.24496558 0.03688492 41.45194623 0.04233043 48.65893257 0.04733264 C63.46143276 0.05773444 78.26391919 0.07527941 93.06640625 0.09765625 C92.75404057 1.84657613 92.4401001 3.59521478 92.12550354 5.34373474 C91.95084847 6.31753806 91.77619341 7.29134138 91.59624577 8.29465389 C90.92005165 11.87191389 90.06962786 15.35806632 89.15625 18.8828125 C88.89769981 19.88446693 88.89769981 19.88446693 88.63392639 20.90635681 C88.27533306 22.29214574 87.91485601 23.67744859 87.55249023 25.06225586 C86.99694906 27.18676202 86.44826086 29.31295722 85.90039062 31.43945312 C83.21007317 41.81032242 83.21007317 41.81032242 82.06640625 44.09765625 C81.02150528 44.10130188 79.97660431 44.10494751 78.90003967 44.10870361 C69.02812594 44.14572718 59.15652201 44.20358017 49.2848444 44.28155899 C44.21031 44.3209818 39.13594778 44.35319577 34.0612793 44.36865234 C29.15921523 44.38385314 24.2576247 44.4183594 19.35577202 44.46596527 C17.4904334 44.48074381 15.62502717 44.48869523 13.7596302 44.4895401 C-1.53848589 44.36939559 -1.53848589 44.36939559 -14.74609375 51.41015625 C-19.67166251 57.46156929 -21.83525153 63.36468488 -23.6953125 70.828125 C-23.93143753 71.74096756 -24.16756256 72.65381012 -24.4108429 73.59431458 C-25.15721775 76.48889159 -25.88934469 79.38685132 -26.62109375 82.28515625 C-27.12341187 84.2430792 -27.62665819 86.20076426 -28.13085938 88.15820312 C-29.75243182 94.46620201 -31.35393791 100.77903291 -32.93359375 107.09765625 C-0.92359375 107.09765625 31.08640625 107.09765625 64.06640625 107.09765625 C54.06640625 147.09765625 54.06640625 147.09765625 53.06640625 150.09765625 C20.72640625 150.09765625 -11.61359375 150.09765625 -44.93359375 150.09765625 C-45.59359375 153.72765625 -46.25359375 157.35765625 -46.93359375 161.09765625 C-47.41293247 163.17228607 -47.91699959 165.24160555 -48.46166992 167.30004883 C-48.88672066 168.92146538 -48.88672066 168.92146538 -49.32035828 170.57563782 C-49.61940567 171.70309921 -49.91845306 172.83056061 -50.2265625 173.9921875 C-50.86309584 176.43542561 -51.49914961 178.87878871 -52.13476562 181.32226562 C-53.13044584 185.13316448 -54.12978145 188.94298505 -55.13745117 192.75073242 C-56.1153434 196.45351646 -57.07829118 200.15992993 -58.0390625 203.8671875 C-58.34418259 205.00477005 -58.64930267 206.1423526 -58.96366882 207.31440735 C-59.37453484 208.91218269 -59.37453484 208.91218269 -59.79370117 210.54223633 C-60.03859787 211.4728035 -60.28349457 212.40337067 -60.53581238 213.36213684 C-60.99234045 216.50165392 -60.59816154 219.01148206 -59.93359375 222.09765625 C-54.52090785 224.33388035 -49.64512072 224.40316567 -43.88916016 224.41650391 C-42.8934198 224.42654953 -41.89767944 224.43659515 -40.87176514 224.44694519 C-37.59290117 224.47774265 -34.31411875 224.49480295 -31.03515625 224.51171875 C-28.75685934 224.53043314 -26.47856933 224.55000675 -24.20028687 224.57040405 C-18.21299313 224.62170249 -12.22567693 224.6613406 -6.23828125 224.69854736 C-0.12494357 224.73860124 5.98830084 224.78968731 12.1015625 224.83984375 C24.08977821 224.93657602 36.07804661 225.02098956 48.06640625 225.09765625 C47.5851234 226.54466393 47.10357044 227.99158177 46.62190247 229.4384613 C46.35376645 230.24422324 46.08563044 231.04998518 45.80936909 231.88016415 C38.54027184 253.57595421 38.54027184 253.57595421 32.06640625 260.09765625 C31.46054688 260.71769531 30.8546875 261.33773438 30.23046875 261.9765625 C23.48860698 268.35868066 15.53536161 272.20541508 6.18640137 272.23809814 C5.20537445 272.24380829 4.22434753 272.24951843 3.21359253 272.25540161 C2.14343903 272.25651947 1.07328552 272.25763733 -0.02929688 272.25878906 C-1.72764175 272.26623642 -1.72764175 272.26623642 -3.46029663 272.27383423 C-7.21181851 272.28845578 -10.96329804 272.29525938 -14.71484375 272.30078125 C-17.32596843 272.30653457 -19.93709311 272.31229228 -22.54821777 272.3180542 C-27.32867534 272.32762384 -32.10912382 272.33352101 -36.88958979 272.33655095 C-43.89981768 272.34101961 -50.90984942 272.3585124 -57.92001772 272.38755155 C-64.01113778 272.41189703 -70.10217782 272.41950144 -76.19334412 272.4212265 C-78.77356532 272.42424261 -81.3537859 272.43223569 -83.93397522 272.44541168 C-87.55704306 272.46258608 -91.17964164 272.46056347 -94.80273438 272.45410156 C-95.85669403 272.46331635 -96.91065369 272.47253113 -97.99655151 272.48202515 C-109.50671922 272.41815228 -120.29809462 270.33181471 -128.87109375 262.27734375 C-137.1395975 253.49205852 -138.52001801 243.18818311 -138.2615509 231.45355225 C-138.01813261 225.66794845 -136.96659524 220.1407223 -135.7878418 214.48144531 C-135.56508166 213.392934 -135.34232153 212.30442268 -135.11281109 211.18292618 C-132.72992557 199.7636978 -129.8558951 188.48635847 -126.890625 177.20703125 C-126.31581425 174.9998423 -125.74158466 172.79250192 -125.16789246 170.58502197 C-123.97285929 165.99241089 -122.77338266 161.40099506 -121.57006836 156.81054688 C-120.05940109 151.04759358 -118.55619613 145.28273062 -117.05587006 139.51707745 C-111.54177479 118.32820253 -105.98608524 97.15041328 -100.296875 76.0078125 C-100.09645914 75.25999763 -99.89604328 74.51218277 -99.68955421 73.74170685 C-85.48629927 20.80988581 -85.48629927 20.80988581 -64.76171875 7.7265625 C-45.71593374 -2.76106748 -20.98310218 -0.04300997 0 0 Z " fill="#221714" transform="translate(1352.93359375,39.90234375)"/>
<path d="M0 0 C68.97 0 137.94 0 209 0 C206.60394599 14.37632408 200.56660009 29.12171993 189 38.375 C182.59533331 42.84711736 176.06098281 45.13515422 168.2097168 45.11352539 C166.82885139 45.11341209 166.82885139 45.11341209 165.42008972 45.11329651 C163.94950859 45.10555458 163.94950859 45.10555458 162.44921875 45.09765625 C161.43527542 45.0962413 160.42133209 45.09482635 159.37666321 45.09336853 C156.14691179 45.08778328 152.91723038 45.07523345 149.6875 45.0625 C147.49414163 45.0574831 145.30078217 45.05292052 143.10742188 45.04882812 C137.73825747 45.03781868 132.36913374 45.0210952 127 45 C126.87237778 46.16771439 126.74475555 47.33542877 126.61326599 48.53852844 C126.10490397 52.5840558 125.23058227 56.43762377 124.18774414 60.38354492 C124.00448295 61.08291609 123.82122175 61.78228725 123.63240719 62.50285149 C123.02140593 64.83000276 122.40320529 67.15518025 121.78515625 69.48046875 C121.34152882 71.16559095 120.89842837 72.85085196 120.45581055 74.53623962 C119.49962961 78.17390818 118.54052955 81.81078918 117.57913208 85.44708252 C115.2407479 94.29316277 112.91821413 103.14340836 110.59579277 111.99369049 C110.04958129 114.07513028 109.50319897 116.15652525 108.95665169 118.23787689 C104.58311964 134.8959542 100.25933329 151.56646599 95.96875 168.24609375 C95.67905272 169.37228559 95.38935543 170.49847744 95.09087944 171.65879631 C92.25315796 182.69327215 89.42045818 193.72903494 86.5894804 204.76524258 C85.28055381 209.86715048 83.97070457 214.96882095 82.66015625 220.0703125 C82.4120627 221.03613817 82.16396915 222.00196384 81.90835762 222.99705696 C77.7032243 239.35784883 73.40515954 255.69188472 69 272 C59.40342658 272.04630573 49.80689152 272.0818602 40.21023083 272.10362434 C35.75429022 272.11406913 31.29842596 272.12824099 26.8425293 272.15087891 C22.54371196 272.17258254 18.24496813 272.18456339 13.94610023 272.18975449 C12.30461787 272.19345471 10.6631396 272.20068017 9.02168846 272.21146011 C6.72555162 272.22594217 4.42971996 272.22797934 2.13354492 272.22705078 C0.1716346 272.23371262 0.1716346 272.23371262 -1.82991028 272.24050903 C-5 272 -5 272 -8 270 C-10.12010519 261.39471585 -6.05876851 251.34343189 -3.8125 243.04296875 C-3.36114847 241.33800032 -2.91097556 239.63271952 -2.46188354 237.92715454 C-1.49471458 234.26299226 -0.52012639 230.60091893 0.46051025 226.94033813 C2.01732554 221.12880099 3.55906023 215.31333912 5.09716797 209.49682617 C5.3582453 208.50956071 5.61932262 207.52229525 5.88831139 206.50511265 C6.42289907 204.48336926 6.95742345 202.46160913 7.49188614 200.43983269 C8.31211623 197.33910457 9.13397671 194.23881181 9.95602417 191.13856506 C13.94169928 176.09249954 17.83903678 161.02501636 21.6953125 145.9453125 C22.24226569 143.80923343 22.78928272 141.67317071 23.33636475 139.53712463 C25.45483951 131.26274785 27.57301232 122.98831283 29.67626953 114.71005249 C30.90391829 109.87855776 32.13887422 105.04898519 33.37890244 100.22065353 C33.83110404 98.45404367 34.28055152 96.68672596 34.72690201 94.91862869 C39.6910234 75.26229223 45.28871123 60.71128877 60 46 C36.57 45.67 13.14 45.34 -11 45 C-9.83333856 38.58336205 -8.71933987 32.50568137 -7.08984375 26.25 C-6.91747696 25.58460205 -6.74511017 24.9192041 -6.56752014 24.23364258 C-6.20889618 22.85205629 -5.84841879 21.47094976 -5.48608398 20.09033203 C-4.93136239 17.97661317 -4.38219974 15.86150851 -3.83398438 13.74609375 C-1.17722191 3.53166573 -1.17722191 3.53166573 0 0 Z " fill="#221714" transform="translate(1674,40)"/>
<path d="M0 0 C0.6748645 -0.0049649 1.349729 -0.00992981 2.04504395 -0.01504517 C4.28817754 -0.02970513 6.53124034 -0.03647642 8.77441406 -0.04199219 C10.33042402 -0.04774216 11.88643395 -0.05349991 13.44244385 -0.05926514 C16.71098156 -0.06978717 19.9794946 -0.0756214 23.24804688 -0.07910156 C27.43237244 -0.08457737 31.61637111 -0.10858046 35.80059433 -0.13707352 C39.01768943 -0.1557207 42.23470631 -0.16090668 45.45185089 -0.16243744 C46.99399851 -0.16546172 48.53614483 -0.17348274 50.07823944 -0.18662262 C52.23990991 -0.20372104 54.40078892 -0.20179367 56.5625 -0.1953125 C57.79192322 -0.19895813 59.02134644 -0.20260376 60.2880249 -0.20635986 C63.83209918 0.19413696 65.71537547 1.02044626 68.54003906 3.16113281 C70.6549696 7.85104578 68.6435322 12.82356806 67.38378906 17.55175781 C67.13487915 18.52076019 66.88596924 19.48976257 66.6295166 20.48812866 C65.7764543 23.79849614 64.90805918 27.10465838 64.04003906 30.41113281 C63.41404534 32.8280306 62.78908081 35.24519514 62.16503906 37.66259766 C60.75673718 43.11056369 59.34191843 48.55678248 57.92285156 54.00195312 C55.35166766 63.87107327 52.80493855 73.74646751 50.25878906 83.62207031 C45.87667986 100.61406237 41.48425561 117.60336634 37.08700562 134.59144592 C34.05129866 146.31964033 31.01776389 158.04839298 27.9866333 169.777771 C26.25736168 176.46942388 24.52734451 183.16088392 22.7971077 189.85228729 C21.63319959 194.35358548 20.46954962 198.85494993 19.30664062 203.35650635 C16.39471547 214.62739418 13.47506323 225.89623642 10.54003906 237.16113281 C10.32800339 237.97522865 10.11596771 238.78932449 9.89750671 239.6280899 C8.62681756 244.50427889 7.35166094 249.37926524 6.07040024 254.25268745 C5.6729358 255.76622292 5.27660918 257.28005769 4.88147354 258.7942028 C4.34112023 260.86344465 3.79643305 262.93149508 3.25048828 264.99926758 C2.94311737 266.16982193 2.63574646 267.34037628 2.31906128 268.54640198 C1.54003906 271.16113281 1.54003906 271.16113281 0.54003906 272.16113281 C-1.71347108 272.27663326 -3.97064883 272.32085642 -6.22705078 272.33813477 C-6.93438858 272.34470596 -7.64172638 272.35127716 -8.37049866 272.35804749 C-10.72063287 272.3778231 -13.07070309 272.38945202 -15.42089844 272.39941406 C-16.62197172 272.40552735 -16.62197172 272.40552735 -17.84730911 272.41176414 C-22.08472691 272.43264242 -26.32211215 272.44693686 -30.55957031 272.45629883 C-34.94371702 272.46737119 -39.32735724 272.50177508 -43.71132469 272.54147053 C-47.07588669 272.56757513 -50.44032686 272.57598511 -53.80498123 272.57958031 C-55.42136687 272.58446175 -57.03774651 272.59611985 -58.65403366 272.6146183 C-60.9144617 272.63888199 -63.17356454 272.6380691 -65.43408203 272.63110352 C-66.72124115 272.63696976 -68.00840027 272.642836 -69.33456421 272.64888 C-72.45996094 272.16113281 -72.45996094 272.16113281 -74.46157837 270.63175964 C-76.87944368 264.64843911 -73.77518996 256.92071874 -72.20117188 250.8996582 C-71.9709584 250.00273003 -71.74074493 249.10580185 -71.5035553 248.18169403 C-70.73854239 245.20615212 -69.96646582 242.2324914 -69.19433594 239.25878906 C-68.64762932 237.13844993 -68.10135414 235.01799953 -67.55548096 232.89744568 C-66.08535628 227.19169537 -64.60905668 221.48755947 -63.13153076 215.78372192 C-61.5852053 209.81015781 -60.04442922 203.83516245 -58.50292969 197.86035156 C-55.11080006 184.71723789 -51.71008723 171.5763538 -48.30770874 158.4358902 C-47.01458555 153.44069622 -45.72260985 148.44520564 -44.43066406 143.44970703 C-39.70251096 125.16949423 -34.96446356 106.89187784 -30.21459961 88.61729431 C-27.8194939 79.40140491 -25.42929318 70.18426177 -23.04399872 60.96582794 C-21.24472949 54.01232697 -19.44322458 47.05940804 -17.64002228 40.10692596 C-16.57534709 36.00149675 -15.51182746 31.89577634 -14.45117188 27.78930664 C-13.47625081 24.01492248 -12.49815355 20.24137648 -11.51750946 16.46847534 C-11.15896996 15.08665135 -10.80163573 13.70451402 -10.44556427 12.322052 C-9.96167757 10.44402328 -9.47316523 8.56718815 -8.984375 6.69042969 C-8.71240295 5.64012573 -8.44043091 4.58982178 -8.16021729 3.50769043 C-6.80486018 -1.03410851 -4.42102505 0.02461733 0 0 Z " fill="#221714" transform="translate(659.4599609375,39.8388671875)"/>
<path d="M0 0 C1.17506607 -0.00137466 2.35013214 -0.00274933 3.56080627 -0.00416565 C5.4888636 0.00122726 5.4888636 0.00122726 7.45587158 0.00672913 C8.82590228 0.00701126 10.19593313 0.00685275 11.56596375 0.00628662 C15.28256375 0.00599968 18.99913149 0.0118798 22.71572399 0.01886058 C26.60080489 0.02511122 30.48588653 0.02569927 34.37097168 0.02688599 C41.72674201 0.02999425 49.08249748 0.03820085 56.43826127 0.04823548 C64.81304149 0.05941227 73.18782242 0.06491102 81.56260824 0.06993091 C98.78908222 0.08038387 116.01554174 0.09797355 133.24200439 0.12025452 C133.57200439 1.11025452 133.90200439 2.10025452 134.24200439 3.12025452 C130.52518155 7.08439447 126.63790255 10.0655539 122.11700439 13.05775452 C113.47465083 18.89284706 105.08609017 25.03958395 96.72589111 31.27015686 C94.20473357 33.14801531 91.6785682 35.01899859 89.15216064 36.88978577 C79.20661412 44.27717269 69.47444749 51.86646429 59.91534424 59.74671936 C57.60444104 61.64358854 55.26870055 63.50844533 52.92950439 65.37025452 C39.63041068 75.98736433 26.67662699 87.00156937 13.77325439 98.09291077 C11.44832592 100.09001406 9.11484559 102.07631372 6.77325439 104.05384827 C-0.17909754 109.94029688 -6.92577831 115.99796914 -13.55657959 122.24501038 C-17.3225685 125.79230652 -21.14739482 129.24281979 -25.07049561 132.61634827 C-27.44781595 134.73502496 -29.65624988 137.00620049 -31.88426208 139.27978516 C-33.69218825 141.05561543 -35.55907356 142.70215403 -37.48773193 144.34510803 C-41.73572868 148.03995893 -45.66504736 151.98260909 -49.58221436 156.02259827 C-51.03669874 157.50430112 -52.49179445 158.9854041 -53.94744873 160.46595764 C-56.21144119 162.7734077 -58.47130494 165.08438346 -60.72113037 167.40565491 C-62.91349095 169.66440036 -65.12125583 171.90707435 -67.33221436 174.14759827 C-68.00314621 174.8474736 -68.67407806 175.54734894 -69.36534119 176.26843262 C-70.31706963 177.22556908 -70.31706963 177.22556908 -71.2880249 178.20204163 C-71.83903366 178.76716965 -72.39004242 179.33229767 -72.95774841 179.91455078 C-75.31628542 181.49416545 -76.97924192 181.34223613 -79.75799561 181.12025452 C-79.12526451 173.89400996 -77.24563714 167.21153578 -75.23553467 160.25697327 C-74.86861588 158.97156925 -74.50221579 157.68601707 -74.1362915 156.40032959 C-73.14557041 152.92513929 -72.14749939 149.45209972 -71.14795399 145.97943878 C-70.09722428 142.32457548 -69.05298878 138.6678571 -68.00793457 135.0113678 C-66.24988858 128.86373817 -64.48739256 122.717399 -62.72186279 116.57191467 C-60.46914827 108.73054759 -58.22368713 100.88712348 -55.98059464 93.04299927 C-54.03855165 86.25186698 -52.09314492 79.46169898 -50.14721203 72.67168045 C-49.52900136 70.51403413 -48.91123274 68.35626162 -48.2935257 66.19847107 C-40.93363924 40.49799974 -40.93363924 40.49799974 -37.90936279 30.59681702 C-37.56137634 29.45551331 -37.21338989 28.31420959 -36.8548584 27.13832092 C-33.03403866 16.62516671 -26.07221555 9.05164774 -16.25799561 3.77650452 C-10.74163084 1.23607337 -6.1027831 -0.00550793 0 0 Z " fill="#E60011" transform="translate(121.75799560546875,-0.1202545166015625)"/>
</svg>
